<?xml version="1.0" encoding="UTF-8" ?>
<!DOCTYPE svg PUBLIC "-//W3C//DTD SVG 1.1//EN" "http://www.w3.org/Graphics/SVG/1.1/DTD/svg11.dtd">
<svg width="886pt" height="1456pt" viewBox="0 0 886 1456" version="1.1" xmlns="http://www.w3.org/2000/svg">
<g id="#ffffffff">
</g>
<g id="#141454ff">
<path fill="#141454" opacity="1.00" d=" M 434.62 1.55 C 442.10 -2.07 450.89 4.37 451.94 12.05 C 453.14 20.24 450.32 28.26 448.97 36.25 C 445.42 52.18 442.08 68.16 438.68 84.12 C 436.10 64.95 433.24 45.83 430.53 26.68 C 429.80 21.13 428.28 15.36 429.98 9.84 C 430.96 6.83 432.29 3.77 434.62 1.55 Z" />
<path fill="#141454" opacity="1.00" d=" M 468.28 26.19 C 470.16 22.11 474.73 19.97 479.05 19.72 C 482.11 19.61 485.58 21.16 486.65 24.23 C 488.41 28.84 487.64 34.09 485.11 38.27 C 480.16 46.75 476.18 55.73 471.38 64.29 C 467.85 70.42 465.48 77.21 461.30 82.97 C 463.04 69.35 463.85 55.64 465.32 41.99 C 465.93 36.69 466.02 31.14 468.28 26.19 Z" />
<path fill="#141454" opacity="1.00" d=" M 361.59 43.99 C 361.87 40.62 364.73 37.64 368.11 37.30 C 371.86 36.84 376.11 37.27 378.99 39.97 C 382.46 43.24 384.15 47.84 385.80 52.19 C 388.42 59.56 391.47 66.77 393.85 74.22 C 396.24 81.57 399.49 88.60 401.92 95.93 C 397.20 91.70 393.56 86.44 389.06 82.00 C 382.55 75.48 376.89 68.19 370.51 61.56 C 368.39 59.31 366.12 57.17 364.27 54.68 C 362.00 51.65 361.30 47.70 361.59 43.99 Z" />
<path fill="#141454" opacity="1.00" d=" M 334.19 63.12 C 337.01 59.21 342.41 58.06 346.92 59.07 C 350.73 60.10 353.45 63.21 355.81 66.19 C 366.16 79.92 375.50 94.38 385.81 108.13 C 379.41 104.71 373.67 100.21 367.35 96.65 C 358.35 91.03 349.52 85.14 340.52 79.51 C 336.85 77.39 334.53 73.57 333.28 69.61 C 332.55 67.46 332.72 64.94 334.19 63.12 Z" />
<path fill="#141454" opacity="1.00" d=" M 306.99 86.97 C 311.85 82.56 319.63 82.56 324.99 86.08 C 329.73 89.21 333.51 93.51 337.73 97.27 C 345.45 104.21 352.73 111.60 360.30 118.70 C 364.18 122.43 368.26 125.95 371.95 129.88 C 352.54 122.27 333.11 114.70 313.66 107.22 C 309.14 105.47 305.87 101.41 303.95 97.09 C 302.34 93.49 304.23 89.41 306.99 86.97 Z" />
<path fill="#141454" opacity="1.00" d=" M 545.62 95.61 C 548.97 92.21 552.65 88.84 557.28 87.36 C 560.89 86.20 564.81 87.10 568.14 88.67 C 570.41 89.76 572.76 91.48 573.23 94.13 C 573.95 97.43 572.06 100.58 569.98 102.98 C 566.73 106.74 561.87 108.36 557.49 110.35 C 548.57 114.05 539.89 118.30 530.98 122.01 C 524.01 124.95 517.31 128.53 510.19 131.11 C 521.89 119.17 533.91 107.54 545.62 95.61 Z" />
<path fill="#141454" opacity="1.00" d=" M 420.25 120.13 C 423.84 113.21 430.76 108.41 438.32 106.79 C 437.35 113.14 436.12 119.50 436.49 125.95 C 436.85 141.94 443.97 156.58 449.81 171.12 C 453.62 182.78 452.85 195.79 448.37 207.15 C 444.64 198.12 442.51 188.28 436.77 180.20 C 427.97 168.75 420.26 155.84 417.77 141.42 C 416.80 134.30 416.87 126.65 420.25 120.13 Z" />
<path fill="#141454" opacity="1.00" d=" M 455.42 118.44 C 458.88 114.92 462.57 111.45 467.23 109.60 C 466.50 115.41 464.93 121.14 465.23 127.05 C 465.53 143.09 471.95 158.13 478.35 172.58 C 481.48 179.46 482.41 187.40 480.54 194.76 C 478.09 203.66 470.31 210.25 461.88 213.35 C 462.90 206.20 465.56 199.30 465.39 191.98 C 465.90 183.61 462.47 175.80 459.95 168.01 C 458.15 163.04 456.70 157.96 455.23 152.89 C 452.76 155.52 451.25 158.82 449.60 161.98 C 445.45 154.54 444.29 145.66 445.59 137.30 C 446.94 130.24 450.40 123.59 455.42 118.44 Z" />
<path fill="#141454" opacity="1.00" d=" M 272.59 122.03 C 272.92 117.26 276.16 112.20 281.08 111.24 C 285.40 110.81 290.12 110.67 293.98 113.01 C 315.88 125.49 338.06 137.48 359.93 150.00 C 336.68 145.36 313.51 140.26 290.28 135.49 C 287.26 134.91 284.19 134.47 281.24 133.57 C 276.30 132.10 272.58 127.19 272.59 122.03 Z" />
<path fill="#141454" opacity="1.00" d=" M 582.73 114.78 C 585.86 113.02 589.57 112.98 593.07 112.99 C 597.71 112.78 601.54 116.92 602.62 121.13 C 602.31 126.05 598.22 130.37 593.45 131.38 C 569.93 137.05 546.41 142.75 523.00 148.85 C 527.64 145.40 532.84 142.84 537.82 139.96 C 552.86 131.69 567.78 123.20 582.73 114.78 Z" />
<path fill="#141454" opacity="1.00" d=" M 401.10 131.07 C 403.09 129.48 405.51 128.61 407.87 127.74 C 407.29 133.07 406.21 138.44 407.09 143.80 C 408.84 155.71 414.77 166.37 420.14 176.95 C 423.63 183.86 428.25 190.41 429.70 198.14 C 430.83 203.99 431.88 209.97 431.23 215.94 C 430.86 219.35 430.15 222.71 429.50 226.08 C 426.57 218.74 425.19 210.78 421.08 203.94 C 418.44 199.04 413.59 196.06 409.92 192.06 C 403.38 184.96 397.94 176.95 392.83 168.78 C 389.73 173.29 389.02 178.84 387.82 184.05 C 386.35 192.17 384.81 200.50 386.03 208.76 C 386.74 213.63 387.41 218.51 388.51 223.30 C 389.11 225.99 390.19 228.84 392.70 230.30 C 396.58 232.74 400.98 234.16 405.16 235.98 C 405.78 234.03 406.78 232.09 406.69 230.00 C 406.13 227.04 404.47 224.46 403.31 221.73 C 400.89 216.57 399.30 210.99 399.18 205.27 C 401.06 205.18 402.94 205.10 404.83 205.04 C 408.53 212.73 410.77 221.17 415.89 228.13 C 419.21 233.14 424.04 236.80 428.92 240.17 C 428.67 242.17 428.42 244.17 428.17 246.17 C 424.77 246.17 421.38 246.10 417.99 246.08 C 417.14 248.54 416.49 251.05 416.12 253.63 C 422.52 258.34 430.78 257.89 438.04 260.33 C 435.41 262.62 432.89 266.02 429.03 265.85 C 421.00 265.92 412.95 265.05 404.92 265.80 C 404.28 270.16 403.20 274.51 403.31 278.94 C 403.19 281.28 405.05 283.33 407.29 283.76 C 409.32 284.17 411.39 284.21 413.46 284.33 C 412.16 279.61 410.44 274.98 409.92 270.09 C 414.25 267.98 419.43 268.06 423.77 270.14 C 423.72 273.36 423.31 276.63 423.90 279.83 C 425.57 283.61 428.69 286.60 431.95 289.05 C 435.06 291.39 439.03 291.83 442.74 292.54 C 442.69 294.24 442.64 295.95 442.58 297.66 C 432.46 301.93 421.45 299.35 410.94 298.59 C 411.07 307.78 411.20 317.04 413.18 326.06 C 414.11 330.06 414.37 334.18 414.18 338.28 C 410.76 338.32 407.33 338.36 403.92 338.57 C 411.28 338.63 418.65 338.75 426.01 338.60 C 434.02 338.54 442.04 338.93 450.05 338.50 C 447.98 338.39 445.91 338.29 443.85 338.21 C 443.56 332.92 443.72 327.61 443.60 322.32 C 441.25 320.38 438.63 318.72 436.57 316.46 C 435.91 314.54 435.89 312.40 436.42 310.45 C 437.31 308.25 439.95 307.82 442.05 307.86 C 444.16 307.94 446.80 307.94 448.17 309.87 C 450.51 313.03 450.78 317.15 450.83 320.95 C 450.83 326.88 450.55 332.81 451.03 338.74 C 461.69 338.83 472.34 338.47 483.00 338.70 C 575.67 338.72 668.33 338.70 761.00 338.71 C 766.31 338.68 771.63 338.60 776.95 338.87 C 777.06 357.80 777.24 376.74 777.32 395.67 C 792.88 395.65 808.44 395.64 824.00 395.65 C 831.36 395.69 838.72 395.47 846.07 395.90 C 846.30 401.26 846.22 406.63 846.20 412.00 C 846.20 470.33 846.20 528.67 846.20 587.00 C 846.24 592.22 846.36 597.46 845.89 602.67 C 827.93 602.53 809.96 602.62 792.00 602.60 C 785.89 602.63 779.78 602.37 773.69 602.86 C 776.24 607.62 779.72 611.77 782.84 616.15 C 810.70 654.60 838.69 692.96 866.56 731.40 C 871.48 738.16 876.11 745.12 881.23 751.73 C 882.46 753.39 883.49 755.19 884.51 757.01 C 878.35 757.47 872.17 757.22 866.00 757.26 C 843.65 757.28 821.30 757.24 798.95 757.27 C 798.32 768.83 798.86 780.42 798.69 792.00 C 798.85 797.23 798.16 802.53 799.09 807.71 C 801.55 810.66 804.89 812.70 807.78 815.22 C 830.05 833.60 852.49 851.78 874.68 870.26 C 880.89 874.98 882.00 883.64 881.31 890.91 C 880.17 891.16 879.04 891.43 877.93 891.70 C 878.78 891.76 880.46 891.86 881.31 891.92 C 880.82 894.79 880.25 897.67 879.34 900.46 C 877.24 906.73 875.67 913.17 873.61 919.45 C 866.30 943.50 857.16 966.95 846.84 989.85 C 844.18 995.70 841.01 1001.29 838.26 1007.10 C 834.34 1015.36 829.58 1023.19 825.07 1031.14 C 798.86 1075.29 763.27 1113.93 720.94 1143.06 C 702.36 1156.38 682.61 1168.03 662.21 1178.33 C 654.41 1182.67 646.14 1186.02 638.15 1189.98 C 625.40 1195.92 612.42 1201.38 599.28 1206.41 C 606.01 1219.35 613.00 1232.15 619.80 1245.06 C 627.19 1259.92 635.49 1274.31 642.93 1289.16 C 650.79 1303.25 657.79 1317.81 665.75 1331.85 C 647.17 1331.98 628.58 1331.76 610.00 1331.85 C 602.10 1331.96 594.20 1331.54 586.32 1332.13 C 586.25 1343.11 586.64 1354.10 586.18 1365.08 C 579.12 1365.46 572.06 1365.18 565.00 1365.22 C 533.74 1365.25 502.48 1365.19 471.22 1365.24 C 471.05 1371.85 471.12 1378.46 471.08 1385.08 C 471.24 1386.93 470.85 1389.24 472.47 1390.61 C 475.08 1393.31 477.97 1395.80 480.10 1398.95 C 486.12 1407.16 487.70 1418.03 485.68 1427.88 C 483.10 1439.89 473.65 1449.88 462.16 1453.93 C 456.96 1455.60 451.40 1455.52 446.00 1455.26 C 437.46 1454.85 429.74 1450.05 423.88 1444.10 C 414.15 1433.89 411.97 1417.92 417.31 1405.07 C 419.30 1400.77 422.12 1396.86 425.53 1393.59 C 427.05 1391.99 429.20 1390.48 429.04 1388.01 C 429.26 1380.42 429.22 1372.82 428.91 1365.24 C 397.27 1365.20 365.64 1365.24 334.00 1365.22 C 327.34 1365.19 320.68 1365.38 314.03 1365.10 C 313.75 1354.06 314.16 1343.01 313.88 1331.98 C 295.93 1331.52 277.96 1332.18 260.00 1331.84 C 252.75 1331.79 245.49 1332.14 238.24 1331.87 C 242.59 1324.88 245.98 1317.37 250.04 1310.23 C 257.97 1294.50 266.60 1279.15 274.65 1263.49 C 280.04 1254.09 284.40 1244.16 289.76 1234.75 C 294.38 1225.52 300.12 1216.84 303.86 1207.20 C 284.78 1200.62 266.18 1192.73 247.90 1184.18 C 233.73 1177.19 219.51 1170.24 206.07 1161.89 C 180.05 1146.42 155.84 1127.96 133.91 1107.10 C 128.71 1101.64 123.20 1096.49 118.03 1091.00 C 103.81 1075.98 91.57 1059.25 79.81 1042.28 C 68.42 1024.20 57.40 1005.80 48.65 986.27 C 34.50 956.04 23.43 924.43 14.94 892.17 C 13.81 885.85 13.73 879.16 15.00 872.88 C 16.00 871.28 17.47 870.07 18.83 868.81 C 25.01 863.33 31.16 857.83 37.16 852.16 C 52.04 839.07 66.46 825.47 81.41 812.45 C 84.81 809.20 89.88 811.05 94.08 810.58 C 90.71 810.32 87.33 810.27 83.95 810.29 C 83.66 792.62 84.06 774.94 83.78 757.26 C 62.18 757.24 40.59 757.28 19.00 757.26 C 12.92 757.23 6.83 757.44 0.76 757.02 C 6.46 747.81 13.28 739.36 19.55 730.54 C 24.07 724.07 29.08 717.97 33.47 711.42 C 56.95 678.94 80.59 646.57 104.13 614.14 C 106.85 610.42 109.64 606.75 112.04 602.81 C 105.04 602.36 98.01 602.67 91.00 602.60 C 73.81 602.53 56.63 602.71 39.45 602.53 C 39.21 596.35 39.37 590.17 39.35 584.00 C 39.31 521.32 39.40 458.65 39.30 395.97 C 44.19 395.48 49.10 395.60 54.00 395.65 C 69.27 395.66 84.54 395.62 99.80 395.70 C 100.27 376.76 99.78 357.81 100.05 338.87 C 104.70 338.64 109.35 338.65 114.00 338.70 C 210.36 338.73 306.71 338.66 403.06 338.73 C 403.59 326.99 404.06 314.70 399.54 303.60 C 397.78 299.22 396.05 294.84 394.22 290.49 C 392.23 285.77 389.42 281.24 388.97 276.03 C 388.53 272.89 389.00 269.66 388.24 266.58 C 386.32 261.62 382.83 257.50 380.04 253.04 C 378.47 250.68 378.59 247.73 378.54 245.02 C 378.63 242.18 378.62 239.23 379.60 236.53 C 381.18 234.14 384.04 233.10 386.44 231.74 C 383.90 229.56 381.53 227.07 380.21 223.94 C 377.81 218.52 375.84 212.92 373.85 207.34 C 371.63 201.19 371.63 194.50 372.46 188.09 C 374.21 176.11 377.86 164.37 383.67 153.71 C 387.90 145.12 393.53 137.05 401.10 131.07 M 111.19 350.04 C 110.97 368.95 111.47 387.87 110.98 406.78 C 93.99 406.81 77.00 406.74 60.00 406.79 C 53.44 406.86 46.89 406.41 40.33 406.16 L 40.27 406.74 C 43.60 406.60 46.92 406.61 50.25 406.72 C 50.43 410.48 50.48 414.24 50.44 418.00 C 50.34 475.66 50.53 533.31 50.34 590.97 C 56.54 591.68 62.78 591.28 69.00 591.34 C 90.69 591.38 112.37 591.30 134.06 591.37 C 132.77 593.59 131.39 595.77 129.86 597.84 C 93.86 647.14 58.19 696.67 22.21 745.98 C 46.45 746.22 70.70 745.97 94.94 746.09 C 95.24 764.05 94.86 782.03 95.10 800.00 C 102.03 800.23 108.98 800.23 115.92 800.00 C 116.08 776.30 115.92 752.60 115.99 728.91 C 119.68 729.05 123.38 729.05 127.07 728.91 C 127.29 752.59 127.08 776.27 127.17 799.96 C 135.77 800.35 144.39 800.03 153.00 800.13 C 170.39 800.03 187.79 800.31 205.17 800.00 C 205.44 795.33 205.42 790.66 205.37 786.00 C 205.34 735.32 205.40 684.65 205.34 633.98 C 205.35 632.85 205.47 631.75 205.69 630.66 C 206.74 629.37 208.16 628.46 209.51 627.54 C 223.52 618.37 238.13 610.05 253.51 603.40 C 278.23 592.14 304.13 583.56 330.57 577.37 C 359.27 570.26 388.72 566.51 418.20 564.65 C 430.12 564.18 442.06 564.16 453.99 564.49 C 490.08 564.73 526.08 569.89 560.99 578.97 C 588.73 585.99 615.54 596.37 641.26 608.87 C 653.90 615.68 666.66 622.35 678.57 630.40 C 678.88 636.93 678.64 643.46 678.69 650.00 C 678.70 693.33 678.69 736.67 678.70 780.00 C 678.74 786.67 678.50 793.34 678.87 800.00 C 689.91 800.31 700.95 800.03 712.00 800.12 C 726.63 800.03 741.27 800.32 755.91 800.00 C 756.01 776.30 756.01 752.60 755.91 728.91 C 747.94 728.55 739.96 728.84 732.00 728.76 C 724.76 728.86 717.52 728.45 710.31 729.05 L 710.31 728.09 C 713.53 727.92 716.76 727.79 720.00 727.83 C 753.69 728.04 787.38 727.76 821.06 727.94 C 822.78 727.91 824.52 727.62 826.15 727.03 C 826.39 727.46 826.88 728.31 827.12 728.74 C 807.14 728.93 787.15 728.48 767.18 728.94 C 767.12 752.61 767.13 776.29 767.17 799.96 C 774.00 800.24 780.85 800.33 787.68 799.83 C 787.71 781.93 787.35 764.01 787.82 746.11 C 805.55 745.99 823.27 746.11 841.00 746.07 C 848.34 746.01 855.69 746.27 863.02 745.85 C 858.61 739.08 853.56 732.76 848.86 726.20 C 820.73 687.31 792.42 648.56 764.31 609.66 C 759.90 603.55 755.18 597.67 751.06 591.35 C 772.70 591.32 794.35 591.36 816.00 591.34 C 822.30 591.31 828.60 591.53 834.90 591.16 C 834.97 587.77 835.01 584.38 834.99 581.00 C 834.89 522.98 835.07 464.95 834.90 406.93 C 812.23 406.55 789.55 406.90 766.88 406.78 C 765.51 387.89 766.63 368.93 766.07 350.02 C 760.72 349.77 755.36 349.85 750.00 349.87 C 542.00 349.87 334.00 349.87 126.00 349.87 C 121.06 349.83 116.12 349.79 111.19 350.04 M 495.93 577.32 C 502.61 579.70 509.62 581.02 516.22 583.65 C 539.28 591.82 561.07 603.61 580.48 618.51 C 598.41 632.83 614.80 649.33 627.67 668.40 C 631.40 673.72 635.09 679.09 638.19 684.82 C 643.07 693.83 648.26 702.75 651.73 712.43 C 660.26 733.01 665.58 754.92 667.59 777.11 C 667.63 730.20 667.66 683.28 667.58 636.37 C 655.47 628.77 642.60 622.51 629.82 616.13 C 609.25 606.28 587.86 598.17 565.93 591.93 C 543.09 584.96 519.53 580.75 495.93 577.32 M 312.96 593.72 C 305.31 595.84 297.74 598.23 290.37 601.18 C 264.57 610.27 239.72 622.05 216.53 636.58 C 216.33 679.41 216.55 722.25 216.41 765.09 C 217.86 758.82 218.68 752.42 220.22 746.17 C 221.70 739.03 224.09 732.13 226.24 725.17 C 229.58 714.70 234.29 704.74 239.05 694.86 C 247.94 678.14 258.39 662.16 271.02 648.01 C 290.04 626.62 313.01 608.78 338.40 595.57 C 347.44 591.28 356.59 587.17 366.08 583.94 C 371.69 581.98 377.46 580.47 383.01 578.30 C 359.41 582.21 335.85 586.69 312.96 593.72 M 418.48 582.70 C 384.15 586.65 350.47 598.23 321.85 617.77 C 283.62 642.80 253.84 680.42 238.16 723.34 C 232.79 736.71 229.88 750.87 227.25 764.98 C 225.51 774.90 225.02 784.97 224.74 795.01 C 224.54 813.44 226.20 831.97 230.96 849.81 C 237.66 877.60 249.87 904.10 267.02 926.98 C 273.62 935.93 280.84 944.43 288.96 952.04 C 298.74 962.38 310.03 971.19 321.78 979.18 C 331.35 985.22 340.96 991.35 351.47 995.67 C 363.34 1001.22 375.84 1005.24 388.47 1008.64 C 402.41 1012.03 416.62 1014.56 430.99 1014.95 C 443.40 1015.68 455.84 1014.81 468.19 1013.49 C 480.78 1011.75 493.39 1009.56 505.47 1005.51 C 514.05 1002.66 522.73 999.95 530.83 995.86 C 537.03 992.70 543.45 989.98 549.40 986.36 C 574.55 971.90 596.64 952.26 614.23 929.22 C 629.32 908.83 641.45 886.08 648.60 861.69 C 653.56 846.60 656.06 830.83 657.55 815.05 C 658.58 796.58 658.30 777.90 654.61 759.71 C 651.11 739.46 644.15 719.95 635.36 701.42 C 619.25 669.78 595.57 641.92 566.48 621.51 C 558.72 615.68 550.28 610.86 541.77 606.26 C 504.20 586.37 460.69 578.52 418.48 582.70 M 95.44 811.58 C 93.31 812.58 91.65 814.31 89.89 815.84 C 73.14 831.11 56.11 846.07 39.27 861.25 C 33.24 866.51 27.49 872.11 21.16 877.03 C 24.75 879.52 27.78 883.02 31.86 884.69 C 35.04 882.67 37.65 879.90 40.50 877.48 C 60.56 860.21 80.49 842.79 100.46 825.42 C 102.90 823.39 105.48 820.89 108.93 821.25 C 139.29 821.31 169.64 821.26 200.00 821.28 C 205.05 821.32 210.11 821.38 215.16 821.08 C 215.03 817.80 214.70 814.55 214.05 811.35 C 178.04 811.17 142.02 811.34 106.00 811.25 C 102.49 811.30 98.91 810.91 95.44 811.58 M 668.25 811.27 C 667.95 814.55 667.77 817.84 667.76 821.15 C 672.84 821.36 677.92 821.31 683.00 821.28 C 711.33 821.27 739.66 821.29 768.00 821.27 C 771.84 821.34 775.75 820.87 779.55 821.60 C 782.55 823.02 784.88 825.48 787.48 827.51 C 808.78 844.87 830.04 862.28 851.40 879.57 C 854.52 882.23 857.67 884.88 861.03 887.26 C 864.70 884.26 868.16 881.02 871.79 877.97 C 862.11 870.82 853.21 862.71 843.82 855.20 C 827.06 841.27 810.07 827.62 793.44 813.55 C 791.68 811.96 789.43 811.08 787.06 811.24 C 747.45 811.31 707.85 811.25 668.25 811.27 M 106.58 832.75 C 103.31 834.63 100.80 837.53 97.93 839.93 C 88.60 847.92 79.36 856.02 70.11 864.11 C 60.00 873.21 49.38 881.75 39.46 891.06 C 40.74 897.53 42.81 903.80 44.67 910.12 C 59.57 959.65 82.03 1007.25 113.47 1048.46 C 133.22 1074.77 156.86 1098.03 182.87 1118.13 C 204.22 1134.17 226.83 1148.62 250.92 1160.22 C 272.81 1171.66 295.94 1180.46 319.16 1188.78 C 328.84 1192.13 338.84 1194.67 348.20 1198.89 C 345.26 1205.81 341.46 1212.31 337.91 1218.93 C 322.96 1247.23 308.02 1275.54 293.00 1303.81 C 312.37 1304.38 331.76 1303.77 351.14 1304.06 C 351.59 1315.35 351.18 1326.64 351.29 1337.93 C 356.51 1338.31 361.76 1338.21 367.00 1338.18 C 421.00 1338.18 475.00 1338.19 529.00 1338.18 C 535.64 1338.14 542.28 1338.34 548.92 1338.04 C 549.34 1326.72 548.91 1315.39 549.09 1304.07 C 569.40 1303.83 589.72 1304.26 610.02 1303.91 C 593.21 1271.49 575.75 1239.40 558.90 1207.00 C 556.88 1203.18 554.59 1199.50 553.05 1195.46 C 559.28 1193.97 565.59 1192.83 571.70 1190.86 C 612.08 1178.10 651.37 1161.18 686.98 1138.09 C 703.20 1127.99 718.30 1116.21 732.86 1103.86 C 737.70 1099.36 742.65 1094.99 747.50 1090.50 C 767.67 1070.03 786.13 1047.77 801.40 1023.39 C 821.60 991.48 837.00 956.69 848.72 920.84 C 851.50 911.91 853.87 902.86 856.55 893.90 C 831.61 874.00 806.30 854.55 781.42 834.56 C 779.65 833.03 777.41 832.16 775.05 832.32 C 738.78 832.40 702.50 832.37 666.23 832.33 C 665.28 836.15 664.66 840.04 664.28 843.96 C 699.21 843.79 734.15 843.95 769.08 843.86 C 771.57 843.69 773.92 844.61 775.77 846.25 C 793.00 860.02 810.23 873.79 827.50 887.50 C 831.52 890.60 835.63 893.60 839.25 897.18 C 838.07 903.92 835.59 910.32 833.68 916.86 C 820.95 956.91 803.03 995.51 778.96 1030.03 C 753.96 1065.78 721.93 1096.46 685.56 1120.47 C 680.21 1123.78 675.05 1127.40 669.66 1130.63 C 655.98 1138.95 641.63 1146.08 627.27 1153.14 C 595.89 1167.66 563.32 1179.53 530.23 1189.52 C 537.93 1203.95 545.92 1218.23 553.24 1232.85 C 559.00 1243.70 564.95 1254.46 570.53 1265.41 C 574.39 1272.58 578.41 1279.68 581.92 1287.04 C 575.29 1287.57 568.64 1287.26 562.00 1287.32 C 551.11 1287.35 540.22 1287.26 529.34 1287.32 C 529.25 1298.33 529.62 1309.35 529.20 1320.35 C 525.70 1320.62 522.18 1320.62 518.69 1320.37 C 518.51 1309.47 518.24 1298.56 518.68 1287.68 C 521.80 1287.63 524.93 1287.64 528.06 1287.54 C 524.93 1287.32 521.79 1287.28 518.66 1287.33 C 518.34 1283.61 518.35 1279.89 518.75 1276.19 C 533.51 1276.04 548.29 1276.42 563.05 1276.03 C 560.06 1268.97 556.39 1262.22 552.61 1255.56 C 542.84 1236.69 532.78 1217.97 522.83 1199.20 C 520.20 1193.24 516.17 1187.97 514.04 1181.79 C 521.68 1180.25 529.09 1177.80 536.57 1175.66 C 548.11 1171.85 559.90 1168.74 571.15 1164.09 C 591.44 1156.76 611.58 1148.84 630.76 1138.92 C 677.46 1116.18 719.99 1084.20 752.80 1043.77 C 758.70 1036.89 764.08 1029.59 769.11 1022.06 C 793.71 987.46 811.13 948.25 823.97 907.93 C 824.73 905.43 825.64 902.94 825.84 900.32 C 824.27 898.16 821.96 896.73 819.90 895.12 C 813.12 889.94 806.37 884.71 799.78 879.27 C 790.53 872.18 781.26 865.11 772.21 857.76 C 770.64 856.60 769.00 855.25 766.97 855.18 C 762.98 854.85 758.98 855.12 755.00 855.09 C 728.00 855.09 701.00 855.10 674.00 855.09 C 670.09 855.14 666.16 854.75 662.28 855.27 C 660.92 856.02 660.85 857.84 660.27 859.15 C 657.89 867.86 654.93 876.40 651.70 884.83 C 646.37 898.08 639.43 910.64 631.66 922.61 C 616.97 945.60 597.61 965.39 575.84 981.74 C 570.81 985.48 565.44 988.73 560.21 992.19 C 553.29 996.92 545.58 1000.30 538.18 1004.18 C 524.01 1010.80 509.19 1016.03 494.00 1019.74 C 464.44 1026.10 433.58 1028.01 403.72 1022.60 C 361.86 1015.81 322.26 996.50 290.56 968.42 C 278.45 957.14 266.63 945.31 257.37 931.52 C 244.48 914.03 234.33 894.53 227.10 874.05 C 224.88 867.80 223.23 861.38 220.95 855.15 C 189.97 854.98 158.99 855.19 128.01 855.05 C 124.86 855.11 121.63 854.72 118.57 855.58 C 115.16 857.32 112.48 860.15 109.54 862.54 C 95.94 873.65 82.50 884.96 68.97 896.16 C 70.03 902.99 72.90 909.33 74.91 915.90 C 77.31 923.88 80.35 931.63 83.50 939.34 C 88.11 951.33 93.54 962.99 99.42 974.42 C 109.15 994.27 121.00 1013.05 134.21 1030.77 C 141.83 1040.12 149.00 1049.88 157.49 1058.48 C 184.83 1088.19 217.75 1112.40 253.10 1131.72 C 263.37 1136.97 273.59 1142.36 284.17 1146.96 C 307.21 1157.46 331.16 1165.78 355.18 1173.68 C 365.44 1176.75 375.63 1180.09 386.13 1182.27 C 384.98 1185.22 383.52 1188.04 381.93 1190.79 C 373.76 1206.08 365.81 1221.48 357.67 1236.79 C 354.42 1242.32 351.72 1248.14 348.67 1253.78 C 344.62 1261.07 340.71 1268.45 337.01 1275.92 C 351.98 1276.54 366.97 1275.99 381.95 1276.17 C 382.14 1279.87 382.14 1283.58 381.99 1287.30 C 373.66 1287.66 365.33 1287.17 357.00 1287.32 C 344.23 1287.15 331.44 1287.66 318.68 1287.06 C 320.39 1281.71 323.60 1277.07 326.18 1272.14 C 337.12 1251.46 348.07 1230.79 359.10 1210.16 C 362.42 1203.45 365.89 1196.82 369.66 1190.35 C 365.48 1189.32 361.33 1188.17 357.27 1186.77 C 349.71 1184.12 341.95 1182.12 334.40 1179.45 C 319.78 1174.33 305.28 1168.87 290.97 1162.96 C 266.99 1152.85 243.70 1141.04 221.57 1127.34 C 209.80 1119.58 198.02 1111.77 187.04 1102.93 C 154.01 1076.96 125.79 1044.95 103.98 1009.05 C 83.46 975.01 68.05 938.00 57.13 899.82 C 56.18 897.03 56.10 893.64 58.74 891.74 C 76.97 876.29 95.67 861.37 113.95 845.97 C 115.55 844.42 117.71 843.80 119.90 843.88 C 152.70 843.84 185.50 843.96 218.30 843.84 C 218.02 839.98 217.43 836.15 216.67 832.36 C 183.78 832.35 150.89 832.39 118.00 832.35 C 114.20 832.44 110.31 831.90 106.58 832.75 M 569.70 1202.97 C 571.63 1207.63 574.22 1211.97 576.51 1216.46 C 590.94 1243.37 604.96 1270.51 619.41 1297.41 C 621.60 1301.46 623.12 1306.25 627.17 1308.91 C 634.34 1313.97 641.74 1318.70 648.69 1324.06 C 629.53 1287.73 610.01 1251.58 590.89 1215.21 C 589.75 1213.11 588.80 1210.54 586.34 1209.71 C 580.83 1207.37 575.38 1204.84 569.70 1202.97 M 320.36 1209.28 C 317.86 1210.21 314.97 1211.14 313.88 1213.85 C 306.98 1227.51 299.42 1240.82 292.32 1254.38 C 280.74 1276.31 269.16 1298.25 257.28 1320.02 C 263.01 1316.22 268.38 1311.90 274.20 1308.23 C 276.75 1306.52 279.63 1304.96 281.18 1302.20 C 286.33 1293.24 290.64 1283.83 295.67 1274.81 C 308.16 1251.33 320.50 1227.77 333.09 1204.34 C 328.88 1206.07 324.64 1207.73 320.36 1209.28 M 595.32 1207.05 C 593.37 1207.73 595.08 1209.93 596.51 1208.84 C 598.46 1208.14 596.74 1205.92 595.32 1207.05 M 325.28 1323.27 C 324.96 1332.83 325.07 1342.40 325.25 1351.96 C 329.70 1348.90 334.36 1346.11 338.52 1342.66 C 340.61 1341.13 340.02 1338.25 340.21 1336.04 C 340.06 1328.30 340.33 1320.56 339.99 1312.83 C 334.87 1316.00 330.06 1319.62 325.28 1323.27 M 560.27 1313.00 C 560.32 1322.25 560.14 1331.50 560.38 1340.74 C 565.05 1344.20 570.03 1347.19 575.10 1350.01 C 575.45 1344.01 575.26 1338.00 575.35 1332.00 C 575.32 1329.41 575.48 1326.78 574.95 1324.25 C 570.57 1319.90 565.18 1316.70 560.27 1313.00 M 444.93 1351.00 C 445.08 1355.42 444.32 1359.96 445.67 1364.28 C 446.37 1356.11 446.34 1347.84 445.71 1339.67 C 444.35 1343.30 445.04 1347.22 444.93 1351.00 M 440.29 1365.28 C 440.25 1371.75 440.28 1378.22 440.25 1384.69 C 446.70 1383.40 453.35 1383.21 459.80 1384.70 C 460.09 1378.21 460.07 1371.72 459.83 1365.24 C 453.32 1365.17 446.80 1365.17 440.29 1365.28 M 445.43 1396.64 C 434.85 1398.90 426.58 1409.16 427.01 1420.03 C 426.89 1427.76 431.48 1434.92 437.60 1439.34 C 444.02 1443.23 452.34 1444.27 459.36 1441.41 C 465.52 1439.02 470.22 1433.67 472.63 1427.62 C 474.87 1421.30 474.44 1413.94 470.96 1408.15 C 466.19 1399.28 455.23 1394.40 445.43 1396.64 Z" />
<path fill="#141454" opacity="1.00" d=" M 241.76 149.78 C 243.83 145.73 248.41 143.06 252.97 143.29 C 258.24 143.42 263.23 145.33 268.21 146.85 C 282.86 151.65 297.60 156.18 312.34 160.71 C 322.03 163.65 331.61 166.98 341.33 169.83 C 345.31 170.98 349.27 172.19 353.12 173.72 C 332.02 172.79 311.00 170.62 289.90 169.64 C 277.51 168.78 265.12 168.01 252.73 167.20 C 248.23 166.90 243.41 164.82 241.39 160.55 C 240.07 157.12 240.31 153.13 241.76 149.78 Z" />
<path fill="#141454" opacity="1.00" d=" M 604.31 149.11 C 610.34 147.25 616.44 144.54 622.90 145.24 C 627.81 145.74 632.05 149.99 632.26 154.98 C 633.23 160.87 628.42 166.68 622.58 167.26 C 590.74 169.44 558.84 170.97 527.04 173.72 C 530.98 171.89 535.14 170.64 539.30 169.39 C 561.03 162.83 582.61 155.77 604.31 149.11 Z" />
<path fill="#141454" opacity="1.00" d=" M 212.10 184.09 C 215.08 182.37 218.54 181.47 221.99 181.81 C 231.04 182.54 239.92 184.58 248.96 185.39 C 275.07 188.92 301.20 192.36 327.28 196.11 C 326.77 197.18 326.27 198.25 325.77 199.33 C 322.18 199.85 318.58 200.25 314.97 200.49 C 283.96 202.76 252.97 205.13 221.96 207.25 C 215.70 207.88 208.60 205.19 205.85 199.22 C 203.91 193.62 206.83 186.77 212.10 184.09 Z" />
<path fill="#141454" opacity="1.00" d=" M 600.91 190.15 C 618.97 188.24 636.92 185.32 655.01 183.71 C 658.60 183.65 662.06 185.09 665.11 186.89 C 668.67 188.87 670.18 193.13 670.31 197.00 C 670.40 200.45 668.06 203.42 665.36 205.30 C 661.87 207.68 657.47 208.07 653.37 207.82 C 619.24 205.74 585.17 202.79 551.05 200.40 C 544.99 199.85 538.87 199.82 532.87 198.68 C 555.54 195.70 578.26 193.22 600.91 190.15 Z" />
<path fill="#141454" opacity="1.00" d=" M 320.03 226.98 C 328.70 226.31 337.41 226.36 346.10 226.37 C 337.15 228.82 327.93 230.08 318.84 231.90 C 289.56 237.65 260.28 243.43 230.96 248.98 C 223.43 250.09 216.11 252.25 208.59 253.39 C 202.35 254.35 196.24 255.99 190.01 257.01 C 185.16 257.84 180.02 257.51 175.51 255.42 C 169.76 252.96 167.21 245.29 169.90 239.75 C 171.91 236.18 175.43 233.54 179.38 232.49 C 185.43 230.78 191.79 231.53 198.00 231.43 C 208.01 231.61 217.97 230.31 227.98 230.40 C 235.99 230.45 243.96 229.45 251.97 229.43 C 257.59 229.40 263.21 229.25 268.82 228.82 C 277.18 228.18 285.58 228.63 293.93 227.92 C 302.61 227.18 311.34 227.62 320.03 226.98 Z" />
<path fill="#141454" opacity="1.00" d=" M 529.85 226.56 C 537.22 226.34 544.61 226.47 551.97 226.97 C 561.99 227.65 572.05 227.14 582.07 227.88 C 592.01 228.62 602.00 228.18 611.95 228.85 C 623.94 229.60 635.98 229.12 647.97 229.99 C 657.41 230.59 666.88 230.27 676.33 230.73 C 682.52 231.03 688.77 230.34 694.92 231.39 C 699.91 232.27 704.74 235.55 706.57 240.40 C 708.58 246.02 705.33 252.67 699.89 254.92 C 693.83 258.00 686.84 256.72 680.52 255.31 C 643.64 248.28 606.67 241.66 569.83 234.37 C 559.56 232.70 549.37 230.56 539.12 228.77 C 535.98 228.24 532.88 227.52 529.85 226.56 Z" />
<path fill="#141454" opacity="1.00" d=" M 560.98 257.16 C 588.37 262.83 615.59 269.31 642.96 275.13 C 662.39 279.79 682.01 283.56 701.42 288.33 C 706.72 289.61 712.13 290.36 717.42 291.71 C 726.67 294.09 736.12 295.52 745.37 297.89 C 748.61 298.70 751.84 300.53 753.31 303.66 C 754.71 306.87 754.66 310.56 753.95 313.94 C 753.03 318.35 749.18 321.46 745.23 323.15 C 741.67 324.65 737.72 323.77 734.22 322.59 C 705.73 312.32 677.07 302.50 648.52 292.39 C 633.35 286.83 617.92 282.00 602.79 276.33 C 598.52 274.79 594.18 273.46 589.94 271.88 C 579.98 268.13 569.74 265.19 559.93 261.05 C 560.27 259.75 560.62 258.45 560.98 257.16 Z" />
<path fill="#141454" opacity="1.00" d=" M 319.09 263.26 C 322.01 262.65 324.96 262.24 327.92 261.86 C 328.42 263.04 328.93 264.24 329.44 265.43 C 301.83 274.85 273.72 282.72 246.00 291.78 C 236.00 294.76 226.00 297.70 216.10 301.00 C 192.17 308.44 168.26 315.96 144.31 323.36 C 140.06 324.74 135.66 326.60 131.09 325.81 C 125.25 324.77 119.60 320.19 118.95 314.02 C 118.56 310.43 118.67 306.14 121.50 303.50 C 124.98 300.21 129.93 299.53 134.43 298.62 C 152.85 295.33 171.17 291.47 189.61 288.29 C 216.50 282.71 243.55 277.86 270.52 272.68 C 286.68 269.39 302.93 266.54 319.09 263.26 Z" />
<path fill="#141454" opacity="1.00" d=" M 260.20 394.38 C 265.38 394.45 270.56 394.45 275.74 394.38 C 276.03 399.17 275.45 404.02 276.17 408.78 C 277.47 411.99 280.74 413.93 282.06 417.13 C 282.40 418.71 282.39 420.34 282.43 421.96 C 282.30 438.97 282.40 455.99 282.36 473.00 C 282.32 479.27 282.60 485.54 282.15 491.80 C 277.77 493.47 273.33 495.09 268.67 495.76 C 266.22 490.16 263.66 484.60 260.86 479.16 C 256.04 469.83 251.81 460.21 247.19 450.79 C 245.32 447.03 243.29 443.35 241.73 439.45 C 240.92 437.43 239.96 435.46 238.51 433.83 C 238.26 445.55 238.56 457.28 238.39 469.00 C 238.40 471.84 238.21 474.70 238.62 477.52 C 240.43 479.50 243.17 480.20 245.31 481.74 C 246.17 482.93 245.89 484.53 246.06 485.93 C 246.06 492.14 246.22 498.36 245.75 504.56 C 240.53 506.62 235.46 509.05 230.22 511.05 C 229.83 505.80 230.53 500.49 229.76 495.28 C 227.99 492.66 225.12 491.08 223.20 488.60 C 222.57 487.17 222.67 485.57 222.58 484.06 C 222.70 461.04 222.61 438.02 222.64 415.00 C 222.69 408.28 222.44 401.56 222.82 394.84 C 228.07 394.75 233.48 393.92 238.64 395.22 C 239.99 396.99 240.86 399.05 241.77 401.07 C 247.06 413.33 252.96 425.31 258.35 437.52 C 261.13 443.36 263.48 449.40 266.56 455.09 C 266.64 446.39 266.46 437.68 266.61 428.98 C 266.60 426.49 266.77 423.97 266.30 421.51 C 265.01 417.55 261.08 414.96 260.14 410.85 C 259.56 405.38 259.91 399.86 260.20 394.38 Z" />
<path fill="#141454" opacity="1.00" d=" M 165.15 394.85 C 170.86 394.48 176.59 394.48 182.29 394.88 C 181.61 399.30 180.34 403.59 179.02 407.86 C 172.56 432.41 165.67 456.85 159.17 481.39 C 157.71 487.04 155.84 492.59 154.90 498.36 C 161.28 497.42 167.47 495.52 173.79 494.27 C 174.05 500.49 173.46 506.73 173.99 512.94 C 173.94 515.15 176.03 516.46 177.82 517.23 C 181.66 518.62 185.77 517.40 189.64 516.75 C 191.65 512.94 193.70 509.13 195.28 505.11 C 196.97 500.95 196.34 496.37 196.41 492.00 C 196.32 459.68 196.47 427.36 196.33 395.05 C 201.60 394.39 206.92 394.51 212.20 394.84 C 212.57 401.22 212.35 407.61 212.38 414.00 C 212.40 444.68 212.35 475.37 212.41 506.05 C 212.53 510.52 209.97 514.36 208.16 518.27 C 206.54 521.41 205.26 525.12 202.00 526.97 C 197.23 529.81 192.52 532.74 187.84 535.73 C 185.54 537.46 182.66 536.28 180.19 535.65 C 173.96 533.71 167.88 531.15 162.34 527.68 C 161.01 526.76 159.53 525.90 158.66 524.50 C 158.16 521.33 158.25 518.11 158.01 514.92 C 149.01 516.80 140.09 519.11 131.06 520.89 C 134.23 507.45 137.97 494.14 141.72 480.85 C 147.12 459.97 153.15 439.26 158.64 418.40 C 161.06 410.62 162.69 402.62 165.15 394.85 Z" />
<path fill="#141454" opacity="1.00" d=" M 292.81 394.84 C 298.09 394.50 303.40 394.37 308.66 395.02 C 308.54 419.02 308.64 443.01 308.60 467.00 C 308.56 472.77 308.85 478.55 308.40 484.32 C 303.28 485.87 298.12 487.28 292.85 488.22 C 292.43 482.15 292.64 476.07 292.62 470.00 C 292.62 450.33 292.62 430.66 292.62 411.00 C 292.60 405.61 292.49 400.22 292.81 394.84 Z" />
<path fill="#141454" opacity="1.00" d=" M 318.87 394.86 C 324.14 394.48 329.45 394.41 334.71 394.97 C 334.67 411.98 334.70 428.99 334.66 446.00 C 334.71 449.57 334.31 453.22 335.08 456.75 C 335.94 458.57 337.48 460.03 339.22 461.01 C 341.75 461.53 344.34 460.90 346.88 460.72 C 347.42 453.82 347.09 446.91 347.16 440.00 C 347.21 424.97 347.09 409.93 347.19 394.89 C 352.45 394.45 357.73 394.48 362.99 394.85 C 363.31 415.24 362.93 435.63 363.18 456.02 C 363.08 458.88 363.55 462.20 361.41 464.48 C 358.56 467.94 355.79 471.47 352.89 474.88 C 350.77 477.52 347.06 477.40 344.03 478.00 C 341.25 478.18 338.10 479.17 335.60 477.47 C 332.12 475.33 329.08 472.58 325.73 470.25 C 323.42 468.51 320.87 467.01 319.03 464.76 C 318.50 462.20 318.66 459.58 318.64 457.00 C 318.89 436.29 318.41 415.57 318.87 394.86 Z" />
<path fill="#141454" opacity="1.00" d=" M 418.28 394.95 C 426.50 394.27 434.77 394.82 443.01 394.58 C 448.49 394.33 453.98 396.28 458.21 399.74 C 460.08 401.19 459.70 403.82 459.92 405.91 C 460.01 415.45 460.63 425.06 459.31 434.54 C 458.77 438.60 456.17 441.89 454.66 445.59 C 453.95 446.97 454.71 448.44 455.16 449.77 C 457.93 456.55 461.41 463.06 463.34 470.16 C 458.59 470.34 453.80 470.58 449.07 470.01 C 447.43 470.12 447.05 468.34 446.57 467.19 C 444.42 460.93 442.73 454.52 440.73 448.21 C 438.56 448.16 436.40 448.11 434.23 448.07 C 434.03 455.35 434.42 462.63 434.04 469.90 C 428.80 470.31 423.52 470.60 418.27 470.12 C 418.28 445.06 418.27 420.00 418.28 394.95 M 434.20 410.34 C 433.85 418.82 434.22 427.31 434.22 435.80 C 437.48 435.95 440.74 435.99 444.00 435.94 C 444.17 427.41 444.36 418.86 443.84 410.34 C 440.62 410.32 437.41 410.32 434.20 410.34 Z" />
<path fill="#141454" opacity="1.00" d=" M 548.72 402.92 C 548.34 399.61 550.18 396.39 553.23 395.05 C 557.09 394.24 561.08 394.71 565.00 394.63 C 569.61 394.75 574.24 394.28 578.83 394.88 C 580.42 396.13 581.23 398.08 582.23 399.79 C 584.57 404.46 587.56 408.83 589.11 413.87 C 595.02 433.16 601.15 452.39 606.98 471.70 C 607.62 474.39 607.57 477.17 607.65 479.92 C 603.74 479.39 599.88 478.58 596.04 477.71 C 594.78 480.92 593.47 484.11 591.99 487.23 C 581.21 485.24 570.53 482.74 559.88 480.18 C 558.79 477.98 558.02 475.51 556.28 473.72 C 554.02 471.82 551.38 470.45 548.91 468.89 C 548.53 446.90 548.89 424.91 548.72 402.92 M 564.86 410.69 C 564.41 423.45 564.88 436.23 564.63 449.00 C 564.71 452.27 564.26 455.89 566.18 458.76 C 568.11 461.75 570.05 464.81 572.63 467.29 C 574.49 468.30 576.71 468.30 578.78 468.22 C 579.93 466.54 580.39 464.52 581.02 462.61 C 582.94 462.68 584.85 462.77 586.78 462.86 C 584.61 452.95 581.26 443.35 578.67 433.55 C 576.63 425.89 574.52 418.25 572.01 410.74 C 569.62 410.68 567.24 410.66 564.86 410.69 Z" />
<path fill="#141454" opacity="1.00" d=" M 672.88 394.83 C 681.58 394.40 690.29 394.75 699.00 394.65 C 705.16 394.76 711.37 394.19 717.50 395.13 C 718.45 399.11 719.59 403.05 720.88 406.94 C 724.49 417.92 727.32 429.15 730.86 440.16 C 733.89 450.51 737.27 460.76 740.05 471.19 C 744.90 486.72 749.58 502.29 754.10 517.91 C 755.65 523.55 757.83 529.00 759.05 534.72 C 750.25 530.88 741.99 525.91 733.21 522.01 C 732.80 528.23 733.65 534.52 732.75 540.69 C 730.85 543.48 727.80 545.31 724.86 546.83 C 723.52 546.40 722.44 545.48 721.36 544.66 C 714.14 538.66 706.42 533.25 698.23 528.67 C 693.86 526.17 689.14 524.37 684.70 522.03 C 684.67 518.20 684.61 514.38 684.46 510.56 C 681.21 508.14 677.75 506.00 674.59 503.47 C 672.75 502.32 673.08 499.93 672.93 498.08 C 673.01 472.39 672.80 446.69 672.79 421.00 C 672.85 412.27 672.50 403.55 672.88 394.83 M 689.07 410.87 C 688.79 434.92 689.12 458.97 688.91 483.01 C 688.93 485.24 688.83 487.52 689.35 489.72 C 691.95 494.81 697.11 497.92 700.34 502.55 C 701.24 506.93 700.19 511.46 700.90 515.87 C 701.84 517.36 703.54 518.12 705.01 519.03 C 709.32 521.37 713.60 523.79 718.00 525.99 C 718.57 516.67 717.99 507.34 718.28 498.02 C 723.25 499.52 727.94 501.86 733.00 503.08 C 729.94 492.00 726.20 481.14 722.95 470.12 C 720.11 460.94 717.51 451.69 714.41 442.59 C 710.84 431.99 708.23 421.07 704.11 410.66 C 699.10 410.43 694.07 410.48 689.07 410.87 Z" />
<path fill="#141454" opacity="1.00" d=" M 436.35 488.35 C 440.40 488.24 444.46 488.25 448.51 488.47 C 455.44 500.81 462.24 513.23 469.45 525.42 C 472.23 529.94 474.15 534.99 477.50 539.16 C 477.77 526.57 477.48 513.97 477.67 501.37 C 474.90 501.13 472.14 500.90 469.37 500.66 C 469.36 496.83 469.35 492.99 469.36 489.16 C 475.97 489.25 482.61 489.14 489.19 489.98 C 489.63 498.31 489.26 506.66 489.37 515.00 C 489.25 528.07 489.60 541.15 489.21 554.21 C 483.21 553.90 477.21 553.48 471.24 552.89 C 463.00 539.07 455.56 524.80 447.37 510.96 C 447.61 518.83 447.84 526.70 448.45 534.55 C 450.75 536.34 453.20 538.01 455.11 540.24 C 456.06 544.17 455.48 548.26 455.31 552.25 C 451.60 552.42 447.89 552.35 444.19 552.06 C 444.08 549.12 443.95 546.19 443.80 543.27 C 441.36 541.08 438.41 539.31 436.59 536.54 C 436.09 533.39 436.37 530.17 436.35 527.00 C 436.42 514.12 436.36 501.23 436.35 488.35 Z" />
<path fill="#141454" opacity="1.00" d=" M 391.52 490.45 C 394.53 489.42 397.78 489.58 400.93 489.40 C 406.32 489.32 411.69 488.73 417.08 488.61 C 418.43 488.71 420.30 488.38 421.10 489.82 C 423.86 494.05 427.01 498.63 426.67 503.93 C 426.62 511.96 426.52 519.99 426.66 528.02 C 426.64 530.49 426.80 533.01 426.23 535.45 C 425.22 538.86 422.87 541.72 422.03 545.19 C 421.51 547.99 421.65 550.86 421.63 553.70 C 413.77 554.48 405.84 553.98 398.01 555.03 C 395.12 555.38 392.22 555.66 389.33 555.88 C 389.13 552.71 389.29 549.49 388.58 546.39 C 387.27 544.34 385.36 542.75 384.02 540.73 C 383.46 538.88 383.57 536.92 383.53 535.03 C 383.61 526.35 383.65 517.67 383.53 508.99 C 383.56 505.94 383.26 502.65 384.97 499.95 C 386.92 496.64 388.82 493.21 391.52 490.45 M 399.85 501.98 C 397.01 504.00 395.03 507.38 395.31 510.95 C 395.40 518.30 395.27 525.65 395.36 533.00 C 395.28 536.89 398.37 539.65 400.43 542.61 C 403.80 542.78 407.19 542.72 410.57 542.53 C 412.28 539.16 414.41 535.80 414.64 531.93 C 414.91 527.62 414.63 523.31 414.69 519.00 C 414.62 513.06 415.24 507.02 413.78 501.19 C 409.15 501.11 404.35 500.64 399.85 501.98 Z" />
<path fill="#141454" opacity="1.00" d=" M 147.05 659.06 C 149.77 655.25 152.53 651.46 155.70 648.00 C 155.62 666.24 155.66 684.48 155.69 702.72 C 141.85 702.86 128.01 702.63 114.17 702.83 C 124.88 688.05 136.18 673.72 147.05 659.06 Z" />
<path fill="#141454" opacity="1.00" d=" M 528.12 779.80 C 528.96 781.29 529.75 782.89 531.08 784.05 C 547.07 783.83 563.06 783.85 579.04 783.98 C 581.29 783.95 583.55 783.77 585.77 783.36 C 588.12 782.73 590.45 782.00 592.81 781.40 C 592.29 785.21 591.49 788.98 590.56 792.72 C 588.32 801.94 586.51 811.26 584.46 820.53 C 583.71 823.45 583.22 826.74 580.82 828.84 C 577.51 831.92 573.91 834.70 570.87 838.07 C 572.09 840.82 573.39 843.53 574.92 846.13 C 581.64 857.42 588.52 868.61 595.12 879.97 C 597.95 884.60 601.06 889.09 603.19 894.12 C 597.79 894.41 592.39 894.29 587.00 894.29 C 560.32 894.28 533.65 894.30 506.97 894.26 C 504.87 894.09 503.03 895.15 501.51 896.49 C 474.21 919.85 446.83 943.12 419.50 966.45 C 416.43 969.10 413.37 971.77 410.10 974.17 C 408.79 972.71 407.50 971.26 406.31 969.72 C 396.21 955.86 385.70 942.30 375.53 928.49 C 369.99 920.42 363.61 912.97 358.04 904.92 C 355.22 901.46 353.15 897.27 349.60 894.50 C 346.09 893.97 342.52 894.30 338.99 894.27 C 322.99 894.31 307.00 894.27 291.00 894.29 C 286.17 894.33 281.33 894.40 276.51 894.03 C 277.24 892.06 277.42 889.59 279.29 888.31 C 281.89 887.85 284.52 887.53 287.16 887.31 C 292.77 886.98 298.39 887.17 304.00 887.15 C 337.33 887.14 370.67 887.12 404.00 887.10 C 408.84 887.21 413.77 886.51 418.55 887.51 C 421.72 889.97 423.78 893.63 427.19 895.84 C 435.00 901.26 446.54 899.87 453.06 893.04 C 454.88 891.23 456.40 889.08 458.49 887.56 C 462.90 886.49 467.51 887.16 472.00 887.07 C 504.00 887.11 536.00 887.08 568.00 887.08 C 575.70 887.03 583.41 887.30 591.11 886.88 C 587.26 878.94 582.12 871.73 577.95 863.97 C 572.75 855.45 568.20 846.55 562.85 838.12 C 558.57 837.99 554.28 837.93 550.00 838.00 C 535.28 838.17 520.55 837.76 505.84 838.43 C 513.22 839.01 520.64 839.10 528.00 840.00 C 536.12 840.92 544.30 840.90 552.43 841.57 C 557.59 851.87 563.50 861.80 568.29 872.29 C 556.37 875.12 544.00 873.92 531.97 872.52 C 522.70 871.57 513.48 870.21 504.20 869.43 C 493.91 868.57 483.58 867.36 473.24 868.10 C 465.40 868.61 457.35 869.52 450.27 873.17 C 445.71 875.32 442.04 878.85 438.60 882.45 C 433.39 878.16 427.98 873.85 421.50 871.66 C 406.38 866.35 390.05 867.73 374.40 869.19 C 352.41 870.98 330.27 876.61 308.19 872.65 C 311.32 865.36 315.18 858.42 318.20 851.09 C 319.72 848.06 320.71 844.49 323.35 842.23 C 326.84 841.45 330.46 841.71 334.02 841.67 C 344.18 841.83 354.34 841.26 364.43 840.07 C 368.42 839.57 372.44 839.26 376.47 839.11 C 377.84 839.57 379.21 840.08 380.58 840.58 C 381.94 839.27 383.22 837.86 384.84 836.87 C 387.69 836.12 390.68 836.60 393.59 836.67 C 394.75 835.35 395.91 834.03 397.06 832.70 C 405.48 830.32 414.25 831.30 422.86 831.32 C 425.71 824.05 425.41 816.22 426.17 808.60 C 429.34 809.72 432.51 811.12 435.93 811.24 C 441.14 811.38 446.32 810.55 451.46 809.73 C 453.39 817.01 454.90 824.41 455.07 831.97 C 462.00 831.42 468.99 830.18 475.94 831.24 C 479.91 831.83 483.85 832.63 487.83 833.22 C 497.54 820.80 507.20 808.34 517.13 796.10 C 521.50 791.18 525.58 785.92 528.12 779.80 M 527.59 790.70 C 525.23 792.13 523.69 794.52 521.97 796.62 C 542.26 796.73 562.55 796.57 582.84 796.65 C 583.23 794.57 583.61 792.50 583.96 790.42 C 566.95 790.30 549.94 790.49 532.94 790.31 C 531.15 790.33 529.33 790.28 527.59 790.70 M 512.86 808.84 C 526.91 809.16 540.95 808.88 555.00 808.97 C 563.53 808.87 572.08 809.21 580.61 808.79 C 580.76 806.82 580.94 804.85 581.11 802.90 C 563.08 802.38 545.04 802.90 527.00 802.65 C 524.09 802.67 521.11 802.43 518.26 803.12 C 515.98 804.49 514.51 806.81 512.86 808.84 M 429.91 815.79 C 429.86 817.63 429.82 819.48 429.78 821.35 C 436.29 821.67 442.82 821.67 449.33 821.35 C 449.32 819.48 449.29 817.62 449.26 815.78 C 442.81 815.46 436.36 815.45 429.91 815.79 M 508.33 816.09 C 506.50 817.63 505.30 819.74 503.99 821.70 C 528.56 821.70 553.12 821.72 577.69 821.70 C 577.85 819.73 578.03 817.76 578.20 815.81 C 557.81 815.27 537.40 815.81 517.00 815.55 C 514.11 815.59 511.14 815.30 508.33 816.09 M 500.62 827.70 C 498.42 829.35 496.89 831.70 495.16 833.80 C 517.78 833.55 540.40 833.74 563.02 833.71 C 567.62 833.86 570.56 829.74 573.93 827.26 C 553.95 827.60 533.97 827.32 514.00 827.41 C 509.54 827.52 505.03 826.96 500.62 827.70 M 426.27 828.27 C 425.89 829.83 425.52 831.40 425.16 832.97 C 429.62 835.95 433.78 839.79 438.90 841.53 C 443.92 839.43 448.30 836.08 452.81 833.09 C 452.04 831.50 451.28 829.90 450.55 828.31 C 442.49 827.54 434.33 827.65 426.27 828.27 M 360.82 895.03 C 362.25 896.91 363.55 898.99 365.52 900.39 C 367.18 901.23 369.13 900.99 370.94 901.13 C 389.96 900.98 408.98 901.18 427.99 901.01 C 425.14 899.68 422.55 897.91 420.03 896.04 C 418.08 894.41 415.37 894.88 413.03 894.75 C 395.63 895.04 378.22 894.50 360.82 895.03 M 451.90 900.97 C 459.92 901.25 467.96 900.96 475.99 901.12 C 478.89 901.08 481.86 901.32 484.71 900.63 C 487.67 899.49 489.91 897.12 492.22 895.03 C 484.15 894.57 476.08 894.96 468.01 894.77 C 465.10 894.81 462.13 894.54 459.30 895.28 C 456.47 896.64 454.26 898.95 451.90 900.97 M 369.44 907.90 C 370.55 909.87 371.41 912.24 373.46 913.47 C 377.26 914.20 381.16 913.79 385.00 913.85 C 413.01 913.81 441.02 913.86 469.03 913.85 C 473.33 914.01 476.46 910.67 479.27 907.90 C 473.86 907.46 468.42 907.63 463.00 907.64 C 437.33 907.64 411.67 907.63 386.00 907.64 C 380.48 907.64 374.95 907.44 369.44 907.90 M 377.82 920.31 C 379.15 922.27 380.32 924.50 382.33 925.88 C 385.80 926.78 389.45 926.32 393.01 926.40 C 410.34 926.34 427.67 926.37 445.00 926.38 C 448.93 926.30 452.92 926.78 456.80 926.00 C 460.21 924.67 462.99 922.20 465.99 920.18 C 436.60 920.32 407.20 920.05 377.82 920.31 M 386.11 932.26 C 387.73 934.48 389.19 936.92 391.38 938.66 C 393.53 939.16 395.77 939.04 397.97 939.06 C 411.67 938.76 425.36 938.57 439.06 938.70 C 440.85 938.65 442.68 938.72 444.44 938.31 C 446.89 937.22 448.48 934.91 450.23 932.98 C 440.48 932.36 430.71 932.84 420.96 932.61 C 409.34 932.30 397.73 932.45 386.11 932.26 M 395.93 944.90 C 397.31 946.82 398.54 948.97 400.49 950.40 C 403.61 951.10 406.84 950.80 410.01 950.84 C 415.33 950.69 420.65 951.03 425.96 950.76 C 430.15 950.60 433.37 947.55 436.33 944.93 C 429.90 944.43 423.44 944.72 417.00 944.68 C 409.98 944.74 402.94 944.44 395.93 944.90 M 405.08 957.20 C 406.97 959.33 408.74 961.66 411.17 963.22 C 415.69 962.80 419.22 959.40 423.05 957.24 C 417.06 957.17 411.07 957.13 405.08 957.20 Z" />
<path fill="#141454" opacity="1.00" d=" M 89.19 901.93 C 95.78 901.41 102.40 901.73 109.00 901.68 C 116.05 901.72 123.10 901.46 130.14 901.85 C 130.46 908.21 130.45 914.60 130.15 920.98 C 125.47 921.06 120.79 921.04 116.11 921.17 C 118.52 927.24 121.04 933.27 123.28 939.41 C 138.91 939.25 154.56 939.65 170.18 939.19 C 170.53 933.18 170.55 927.16 170.18 921.15 C 166.56 921.08 162.93 920.99 159.31 920.83 C 159.36 914.56 159.36 908.29 159.32 902.02 C 166.19 901.27 173.10 901.83 179.99 901.63 C 183.20 901.67 186.50 901.34 189.63 902.22 C 192.53 904.97 192.29 909.30 192.36 912.98 C 192.18 925.66 192.50 938.34 192.29 951.02 C 192.50 954.29 190.04 957.43 186.65 957.50 C 177.80 958.09 168.90 957.24 160.04 957.84 C 159.74 972.22 160.07 986.61 159.88 1001.00 C 159.91 1003.88 159.69 1006.82 160.29 1009.67 C 161.97 1012.28 164.72 1013.93 166.58 1016.40 C 167.12 1018.88 166.91 1021.45 166.93 1023.99 C 166.79 1029.73 167.04 1035.48 166.75 1041.23 C 163.12 1038.18 160.23 1034.41 157.23 1030.78 C 146.73 1017.75 136.96 1004.12 128.27 989.81 C 127.04 987.78 127.15 985.33 127.10 983.06 C 127.14 977.68 127.14 972.30 127.21 966.93 C 130.94 971.46 134.54 976.12 137.87 980.97 C 137.74 973.72 137.93 966.48 137.76 959.24 C 132.48 959.06 127.18 959.43 121.91 959.04 C 117.53 958.81 113.95 955.93 110.94 953.02 C 106.41 948.70 104.58 942.55 102.02 937.03 C 99.12 929.89 95.39 923.06 93.36 915.60 C 92.04 911.01 90.61 906.47 89.19 901.93 Z" />
<path fill="#141454" opacity="1.00" d=" M 206.33 901.89 C 207.81 901.79 209.31 901.66 210.80 901.79 C 213.26 904.00 214.33 907.29 215.97 910.09 C 222.33 921.45 228.78 932.85 236.97 943.02 C 238.61 945.08 240.49 946.98 241.76 949.31 C 242.58 951.42 242.30 953.75 242.37 955.98 C 242.16 963.39 242.25 970.82 241.85 978.23 C 237.59 974.77 234.10 970.50 229.94 966.94 C 229.56 973.28 229.75 979.64 229.72 986.00 C 229.70 1006.66 229.76 1027.33 229.70 1047.99 C 229.75 1051.56 229.36 1055.21 230.12 1058.74 C 232.30 1062.85 237.06 1064.93 239.14 1069.09 C 239.58 1072.17 239.36 1075.31 239.48 1078.43 C 245.87 1081.81 251.57 1086.29 257.75 1090.02 C 258.00 1086.75 258.22 1083.49 258.39 1080.23 C 261.53 1080.00 264.68 1079.80 267.82 1079.65 C 268.09 1056.75 267.75 1033.85 267.98 1010.96 C 267.95 1009.07 268.02 1007.18 267.60 1005.35 C 265.15 1001.22 260.65 998.78 258.16 994.68 C 257.35 992.55 257.62 990.22 257.54 988.01 C 257.71 980.99 257.32 973.95 257.81 966.94 C 265.02 973.51 271.95 980.42 279.81 986.24 C 282.74 988.64 286.21 990.43 288.76 993.28 C 289.14 995.14 289.11 997.05 289.14 998.96 C 288.94 1033.99 289.26 1069.02 288.98 1104.05 C 285.52 1104.17 282.06 1104.26 278.61 1104.42 C 277.94 1107.00 277.58 1109.81 275.90 1112.00 C 273.68 1114.92 270.83 1117.27 267.99 1119.56 C 256.84 1113.80 246.01 1107.41 235.56 1100.48 C 230.10 1096.98 225.05 1092.90 219.57 1089.45 C 218.93 1084.83 219.16 1080.11 218.22 1075.54 C 215.67 1069.92 208.36 1066.76 208.38 1059.99 C 208.44 1026.98 208.36 993.96 208.44 960.95 C 208.40 956.86 206.22 953.16 206.31 949.07 C 206.41 933.34 206.34 917.61 206.33 901.89 Z" />
<path fill="#141454" opacity="1.00" d=" M 671.52 902.35 C 675.53 900.92 679.93 901.78 684.10 901.86 C 684.33 906.90 684.29 911.95 684.25 917.00 C 684.25 961.34 684.25 1005.69 684.26 1050.03 C 684.39 1054.78 681.19 1058.64 680.32 1063.15 C 679.94 1070.14 682.79 1076.85 682.75 1083.83 C 682.76 1085.90 680.74 1087.10 679.40 1088.38 C 674.58 1092.07 669.54 1095.56 664.04 1098.17 C 663.74 1087.74 662.29 1077.38 662.13 1066.95 C 661.71 1062.36 665.10 1058.59 665.14 1054.08 C 665.29 1047.65 665.32 1041.20 664.85 1034.79 C 659.66 1038.58 655.83 1043.81 651.34 1048.34 C 646.23 1053.55 641.15 1058.79 635.96 1063.92 C 634.42 1065.54 632.54 1067.38 632.82 1069.84 C 633.29 1071.41 634.05 1072.88 634.62 1074.44 C 635.57 1076.92 635.04 1079.73 635.95 1082.24 C 637.56 1084.16 639.77 1085.56 641.19 1087.67 C 641.90 1089.67 641.69 1091.85 641.76 1093.96 C 641.65 1099.82 641.84 1105.69 641.55 1111.56 C 634.30 1116.99 626.10 1121.08 617.50 1123.89 C 617.27 1117.26 617.68 1110.62 617.16 1104.02 C 616.91 1099.73 612.52 1097.55 611.00 1093.85 C 610.76 1092.59 610.65 1091.33 610.65 1090.07 C 610.69 1069.70 610.66 1049.33 610.60 1028.96 C 610.33 1017.32 610.37 1005.68 610.56 994.04 C 610.71 989.43 610.07 984.76 610.92 980.21 C 611.79 978.42 613.22 977.00 614.58 975.59 C 618.76 971.43 622.93 967.26 627.20 963.19 C 641.53 948.85 654.53 933.02 664.36 915.22 C 666.96 911.05 668.61 906.32 671.52 902.35 M 652.09 970.09 C 646.74 975.41 641.47 980.81 636.02 986.03 C 634.40 987.73 632.26 989.48 632.38 992.08 C 632.24 1007.02 632.51 1021.97 632.26 1036.92 C 642.44 1027.21 652.13 1017.01 662.18 1007.18 C 666.22 1003.24 670.98 1000.14 674.78 995.95 C 671.72 998.65 668.69 1001.42 665.14 1003.49 C 664.68 988.29 665.02 973.08 664.71 957.88 C 660.10 961.52 656.25 965.97 652.09 970.09 Z" />
<path fill="#141454" opacity="1.00" d=" M 700.27 901.94 C 707.83 901.42 715.41 901.59 722.98 901.82 C 731.74 915.89 739.96 930.29 748.50 944.50 C 751.55 949.45 753.92 954.88 757.86 959.24 C 760.26 956.82 762.55 954.23 764.10 951.17 C 768.96 941.95 770.33 931.47 771.86 921.31 C 767.30 920.99 762.71 921.39 758.17 920.88 C 756.31 920.65 755.32 918.58 755.13 916.92 C 754.57 911.91 754.95 906.86 755.05 901.84 C 764.02 901.43 773.01 901.80 781.99 901.63 C 787.95 901.47 793.95 902.24 799.57 904.28 C 799.63 907.19 799.81 910.11 799.70 913.03 C 799.57 917.02 797.93 920.73 796.77 924.49 C 794.17 932.28 792.17 940.28 788.87 947.83 C 786.58 953.02 784.97 958.49 782.47 963.60 C 779.88 968.90 777.14 974.13 774.24 979.27 C 770.74 985.56 766.04 991.05 761.49 996.59 C 760.68 997.51 759.32 999.36 758.10 997.90 C 748.74 986.66 740.50 974.52 733.12 961.90 C 729.75 956.52 726.92 950.79 723.02 945.77 C 722.48 952.16 722.77 958.59 722.72 965.00 C 722.68 979.02 722.79 993.03 722.65 1007.04 C 722.72 1008.88 722.52 1010.84 723.24 1012.60 C 725.45 1015.67 729.06 1018.07 729.59 1022.10 C 730.29 1027.05 730.37 1032.07 730.42 1037.07 C 730.63 1041.41 727.38 1044.72 724.85 1047.87 C 719.94 1053.36 714.85 1058.78 708.89 1063.17 C 708.34 1054.12 708.87 1045.04 708.69 1035.99 C 708.81 1029.08 700.19 1025.89 700.24 1019.03 C 700.31 980.00 700.25 940.97 700.27 901.94 Z" />
<path fill="#141454" opacity="1.00" d=" M 582.67 1000.70 C 585.53 999.14 588.74 1001.28 590.47 1003.57 C 593.34 1007.44 596.06 1011.92 595.69 1016.95 C 595.50 1026.46 595.82 1035.97 595.52 1045.49 C 589.41 1048.19 583.19 1050.60 576.92 1052.89 C 576.34 1044.96 576.78 1037.02 576.74 1029.09 C 569.74 1033.67 562.40 1037.71 555.46 1042.37 C 555.25 1063.24 555.41 1084.12 555.20 1104.99 C 555.22 1112.91 554.95 1120.82 555.17 1128.74 C 559.75 1127.38 564.39 1126.22 569.15 1125.72 C 569.41 1131.15 569.42 1136.60 569.38 1142.04 C 569.17 1143.48 569.61 1145.26 568.55 1146.47 C 566.00 1147.41 563.30 1147.88 560.65 1148.47 C 548.02 1151.08 535.58 1154.56 522.92 1157.02 C 522.43 1149.68 522.39 1142.30 522.93 1134.96 C 526.44 1133.99 530.00 1133.23 533.60 1132.64 C 533.53 1109.72 533.64 1086.81 533.54 1063.90 C 526.08 1071.01 519.90 1079.33 512.81 1086.80 C 510.79 1089.26 507.71 1091.48 507.66 1094.96 C 507.40 1100.81 507.85 1106.67 507.53 1112.53 C 501.08 1112.72 494.63 1112.63 488.18 1112.68 C 487.86 1105.44 487.91 1098.19 487.99 1090.95 C 487.84 1086.98 491.19 1084.30 493.44 1081.47 C 509.55 1062.22 525.39 1042.75 541.57 1023.56 C 545.33 1019.39 551.11 1018.33 555.89 1015.77 C 564.97 1011.04 573.60 1005.47 582.67 1000.70 Z" />
<path fill="#141454" opacity="1.00" d=" M 309.30 1006.21 C 312.01 1006.49 314.24 1008.30 316.58 1009.56 C 323.53 1013.91 331.11 1017.07 338.59 1020.36 C 341.34 1021.60 344.36 1022.37 346.85 1024.14 C 349.03 1026.41 350.41 1029.30 352.19 1031.88 C 358.37 1041.02 364.99 1049.84 371.06 1059.06 C 373.78 1062.90 376.76 1066.59 378.95 1070.79 C 373.81 1075.05 368.59 1079.23 363.02 1082.92 C 360.11 1079.11 357.82 1074.89 355.07 1070.98 C 351.07 1065.28 347.25 1059.46 343.43 1053.65 C 341.81 1051.25 340.46 1048.61 338.35 1046.60 C 334.19 1044.35 329.47 1043.41 324.98 1042.03 C 324.70 1062.69 325.05 1083.35 324.82 1104.02 C 324.84 1106.25 324.74 1108.53 325.22 1110.75 C 326.82 1113.91 330.23 1115.64 332.13 1118.61 C 332.80 1120.95 332.85 1123.41 333.16 1125.84 C 338.37 1127.52 343.59 1129.18 348.82 1130.83 C 350.28 1127.07 351.63 1123.27 353.02 1119.50 C 360.94 1120.68 368.76 1122.48 376.56 1124.26 C 376.69 1130.58 377.25 1136.88 377.22 1143.21 C 373.64 1143.37 370.06 1143.45 366.47 1143.42 C 366.11 1146.67 366.67 1150.27 365.24 1153.27 C 362.32 1155.32 358.59 1157.72 354.92 1156.17 C 340.43 1151.30 326.09 1145.99 311.91 1140.29 C 311.21 1137.19 311.01 1133.72 308.77 1131.27 C 306.41 1128.09 302.23 1125.51 302.62 1121.06 C 302.65 1089.04 302.66 1057.02 302.63 1025.00 C 302.72 1021.10 302.16 1017.10 303.15 1013.29 C 304.53 1010.45 306.78 1008.06 309.30 1006.21 Z" />
<path fill="#141454" opacity="1.00" d=" M 497.30 1036.52 C 500.77 1035.70 504.31 1035.23 507.87 1035.03 C 508.46 1036.28 509.43 1037.44 509.61 1038.87 C 507.30 1042.95 504.01 1046.49 500.41 1049.47 C 496.65 1051.24 492.04 1049.44 488.31 1051.48 C 484.32 1053.69 480.27 1055.85 476.51 1058.46 C 474.76 1059.54 473.96 1061.46 473.30 1063.33 C 478.88 1063.86 484.30 1062.06 489.86 1062.08 C 489.24 1064.49 488.82 1067.17 486.89 1068.96 C 484.11 1071.82 481.14 1074.51 478.01 1076.98 C 476.38 1078.42 474.09 1078.27 472.07 1078.35 C 468.43 1078.34 464.79 1078.26 461.15 1078.32 C 460.75 1081.16 460.10 1084.09 460.81 1086.96 C 461.88 1091.43 464.37 1095.37 466.71 1099.28 C 469.52 1099.43 472.33 1099.58 475.14 1099.77 C 475.50 1104.06 475.53 1108.39 474.98 1112.68 C 468.78 1112.65 462.58 1112.76 456.39 1112.52 C 454.47 1109.30 452.91 1105.89 451.41 1102.47 C 449.07 1097.17 446.02 1092.17 444.26 1086.63 C 443.08 1082.96 443.78 1078.92 445.78 1075.69 C 448.58 1070.95 451.76 1066.45 454.77 1061.84 C 458.79 1055.65 464.08 1050.45 468.76 1044.78 C 470.06 1043.36 471.27 1041.58 473.26 1041.13 C 481.16 1039.04 489.34 1038.33 497.30 1036.52 Z" />
<path fill="#141454" opacity="1.00" d=" M 390.09 1039.17 C 392.01 1037.15 395.12 1037.48 397.39 1038.69 C 403.05 1041.43 408.14 1045.16 413.40 1048.57 C 420.02 1052.81 425.92 1058.04 432.22 1062.73 C 434.17 1064.41 436.77 1065.85 437.47 1068.52 C 440.00 1079.39 437.31 1090.76 432.46 1100.59 C 430.74 1103.91 429.34 1107.38 427.60 1110.69 C 426.76 1112.40 424.58 1112.43 423.03 1113.12 C 418.29 1107.41 414.55 1100.96 409.90 1095.18 C 403.20 1085.52 396.15 1076.13 389.55 1066.41 C 385.97 1061.21 381.92 1056.35 378.67 1050.94 C 382.25 1046.81 386.12 1042.92 390.09 1039.17 M 400.91 1058.89 C 401.46 1062.71 404.28 1065.51 406.40 1068.55 C 411.66 1075.52 416.01 1083.46 423.33 1088.56 C 425.13 1085.43 425.61 1081.68 425.19 1078.14 C 424.23 1076.38 422.81 1074.96 421.44 1073.55 C 416.74 1068.85 411.76 1064.38 406.20 1060.72 C 404.64 1059.61 402.77 1059.13 400.91 1058.89 Z" />
<path fill="#141454" opacity="1.00" d=" M 405.60 1137.40 C 406.25 1134.79 408.24 1132.25 411.07 1131.95 C 414.36 1131.47 417.69 1131.66 421.00 1131.66 C 428.10 1131.78 435.19 1131.48 442.28 1131.87 C 442.73 1138.59 442.08 1145.34 442.55 1152.07 C 442.76 1145.33 442.34 1138.59 442.72 1131.87 C 455.14 1131.41 467.58 1131.88 480.01 1131.63 C 483.29 1131.73 486.92 1131.26 489.85 1133.09 C 491.94 1134.38 492.56 1136.95 492.99 1139.22 C 493.89 1144.76 493.65 1150.40 493.71 1156.01 C 493.70 1184.33 493.68 1212.66 493.71 1240.99 C 493.63 1244.80 494.12 1248.70 493.30 1252.46 C 491.59 1255.26 488.69 1257.06 486.79 1259.72 C 486.15 1261.36 486.32 1263.18 486.26 1264.93 C 486.36 1273.20 486.64 1281.48 486.67 1289.76 C 479.52 1289.99 472.36 1289.94 465.21 1289.82 C 465.04 1279.88 465.29 1269.94 465.12 1260.00 C 465.13 1257.44 464.96 1254.86 465.43 1252.34 C 466.71 1249.43 471.25 1248.59 471.30 1245.02 C 471.62 1237.95 471.48 1230.86 471.22 1223.79 C 463.82 1223.40 456.40 1223.68 449.00 1223.62 C 441.62 1223.69 434.24 1223.39 426.87 1223.81 C 426.60 1231.50 426.58 1239.21 426.85 1246.91 C 428.91 1248.59 431.25 1250.05 432.85 1252.23 C 433.43 1255.78 433.11 1259.41 433.15 1263.01 C 433.00 1271.95 433.36 1280.91 432.97 1289.86 C 425.78 1289.92 418.59 1290.02 411.41 1289.73 C 411.50 1282.49 411.67 1275.25 411.91 1268.02 C 411.92 1265.44 412.10 1262.84 411.62 1260.31 C 409.84 1256.43 404.18 1254.77 404.39 1250.00 C 404.42 1217.32 404.41 1184.63 404.40 1151.95 C 404.48 1147.09 404.41 1142.15 405.60 1137.40 M 425.19 1153.88 C 425.02 1169.54 425.33 1185.19 425.36 1200.85 C 432.56 1201.56 439.79 1201.13 447.00 1201.21 C 455.56 1201.06 464.13 1201.58 472.67 1200.93 C 472.97 1185.24 473.51 1169.54 473.00 1153.85 C 465.00 1153.40 457.00 1153.74 449.00 1153.65 C 441.06 1153.76 433.12 1153.36 425.19 1153.88 Z" />
<path fill="#141454" opacity="1.00" d=" M 370.99 1287.74 C 374.64 1287.51 378.30 1287.50 381.95 1287.72 C 382.25 1295.04 381.83 1302.37 382.22 1309.69 C 425.14 1309.55 468.06 1309.71 510.99 1309.61 C 513.41 1309.61 515.84 1309.69 518.27 1309.81 C 518.46 1313.31 518.47 1316.82 518.30 1320.33 C 511.87 1320.74 505.43 1320.49 499.00 1320.54 C 461.33 1320.55 423.67 1320.54 386.00 1320.54 C 380.99 1320.57 375.98 1320.65 370.98 1320.31 C 370.78 1309.45 370.77 1298.59 370.99 1287.74 Z" />
</g>
<g id="#141553ff">
<path fill="#141553" opacity="1.00" d=" M 393.70 22.67 C 396.49 18.89 402.19 19.18 406.04 21.04 C 410.50 23.07 412.57 28.00 413.21 32.59 C 414.02 38.72 414.35 44.89 414.99 51.04 C 415.73 61.74 417.46 72.36 417.90 83.09 C 410.06 67.98 402.22 52.86 394.18 37.86 C 391.63 33.28 391.35 27.37 393.70 22.67 Z" />
<path fill="#141553" opacity="1.00" d=" M 479.61 128.47 C 480.59 125.27 482.58 122.52 484.70 119.98 C 486.11 124.87 486.98 129.90 488.49 134.76 C 492.74 147.78 497.32 160.80 504.40 172.59 C 506.96 176.87 510.10 181.07 510.59 186.20 C 512.38 199.95 508.99 213.73 504.62 226.69 C 503.86 229.16 502.89 231.76 503.58 234.38 C 504.66 239.30 505.29 244.47 504.27 249.46 C 501.32 255.91 493.36 258.55 491.38 265.56 C 487.00 278.53 483.43 291.79 481.06 305.29 C 479.47 314.09 478.95 323.04 478.35 331.95 C 478.18 334.17 477.74 336.35 477.24 338.52 C 474.77 338.42 472.30 338.34 469.84 338.23 C 468.53 324.90 472.62 311.60 470.79 298.28 C 468.00 297.79 465.08 297.68 462.45 296.56 C 460.03 294.65 460.79 291.14 461.05 288.48 C 464.83 287.52 468.96 286.74 471.86 283.91 C 476.28 279.67 478.13 273.38 478.11 267.39 C 470.76 266.79 463.37 266.87 456.01 266.53 C 452.88 266.41 449.85 265.62 446.89 264.66 C 446.84 260.32 451.25 257.84 455.10 257.50 C 462.39 256.82 469.73 257.66 477.04 257.23 C 485.40 257.06 491.43 249.42 493.66 241.99 C 489.20 239.61 484.40 241.67 479.88 242.60 C 468.75 244.98 457.34 245.65 446.00 246.07 C 442.41 246.12 438.78 246.35 435.23 245.71 C 432.93 245.44 430.89 242.61 432.22 240.46 C 434.05 238.13 437.30 238.48 439.93 238.37 C 446.94 238.50 453.98 238.12 460.87 236.73 C 466.46 235.63 471.72 232.77 475.69 228.69 C 480.49 223.20 481.72 215.76 484.38 209.18 C 485.87 209.53 487.36 209.91 488.86 210.31 C 488.01 219.36 483.54 227.54 481.93 236.44 C 486.29 236.64 490.89 235.21 493.91 231.96 C 496.05 227.28 496.61 222.04 497.55 217.02 C 498.36 210.76 498.80 204.40 498.13 198.11 C 497.34 191.38 492.79 186.04 490.00 180.08 C 484.84 169.22 480.08 157.92 478.53 145.90 C 478.03 140.10 477.81 134.08 479.61 128.47 Z" />
<path fill="#141553" opacity="1.00" d=" M 417.39 309.43 C 421.35 306.73 429.06 307.17 430.36 312.66 C 431.38 315.66 431.42 318.86 431.45 322.00 C 431.45 327.43 431.50 332.87 431.23 338.31 C 429.05 338.32 426.86 338.32 424.69 338.31 C 424.23 333.08 424.89 327.81 424.32 322.60 C 422.63 320.28 419.69 319.31 417.72 317.26 C 416.42 314.89 416.46 311.92 417.39 309.43 Z" />
<path fill="#141553" opacity="1.00" d=" M 132.27 368.36 C 337.17 368.37 542.07 368.37 746.98 368.36 C 747.66 375.89 747.25 383.45 747.31 391.00 C 747.38 402.68 747.24 414.36 747.32 426.04 C 750.20 426.22 753.08 426.38 755.98 426.40 C 773.67 426.30 791.35 426.33 809.04 426.33 C 809.66 432.87 809.23 439.44 809.19 446.00 C 809.21 481.33 809.20 516.67 809.20 552.00 C 809.26 557.98 809.36 563.98 808.91 569.96 C 805.04 570.97 801.09 571.78 797.07 571.70 C 774.71 571.58 752.35 571.69 730.00 571.64 C 724.65 571.60 719.31 571.56 713.98 571.83 C 718.99 580.05 725.18 587.45 730.69 595.34 C 755.92 630.09 781.14 664.83 806.44 699.53 C 810.56 705.34 815.15 710.85 818.53 717.15 C 814.75 717.33 810.97 717.40 807.19 717.57 C 811.03 717.62 814.94 717.17 818.75 717.89 C 822.13 720.03 824.11 723.70 826.15 727.03 C 824.52 727.62 822.78 727.91 821.06 727.94 C 787.38 727.76 753.69 728.04 720.00 727.83 C 716.76 727.79 713.53 727.92 710.31 728.09 L 710.31 729.05 C 710.50 742.53 710.19 756.03 710.48 769.51 C 717.17 769.76 723.86 769.74 730.56 769.61 C 730.65 765.56 730.69 761.53 730.72 757.49 C 727.60 757.47 724.48 757.47 721.36 757.53 C 721.20 753.75 721.18 749.98 721.28 746.21 C 728.06 745.90 734.86 745.89 741.65 746.24 C 741.62 757.72 741.65 769.19 741.63 780.66 C 727.56 780.76 713.48 780.81 699.40 780.60 C 699.23 775.40 699.24 770.19 699.31 764.99 C 699.35 696.79 699.27 628.57 699.34 560.37 C 724.56 560.35 749.78 560.40 775.00 560.37 C 782.63 560.32 790.27 560.62 797.89 560.15 C 798.13 523.44 797.87 486.72 798.01 450.00 C 798.05 445.94 798.00 441.88 797.89 437.82 C 789.93 437.33 781.96 437.66 774.00 437.59 C 761.46 437.54 748.93 437.65 736.40 437.60 C 735.93 418.35 736.43 399.08 736.02 379.83 C 730.02 379.49 724.00 379.57 718.00 379.62 C 532.33 379.62 346.67 379.62 161.00 379.62 C 155.10 379.55 149.19 379.44 143.31 379.92 C 143.08 399.20 143.69 418.50 143.05 437.78 C 129.70 437.96 116.35 437.75 103.00 437.84 C 95.78 437.85 88.55 437.58 81.34 438.13 C 81.37 478.76 81.37 519.40 81.34 560.03 C 87.54 560.60 93.78 560.41 100.00 560.37 C 128.29 560.38 156.59 560.37 184.88 560.35 C 185.35 566.56 185.23 572.78 185.18 579.00 C 185.18 636.33 185.18 693.67 185.18 751.00 C 185.23 757.09 185.29 763.19 185.01 769.28 C 181.36 769.42 177.71 769.40 174.07 769.24 C 173.69 755.81 174.23 742.37 173.87 728.94 C 165.92 728.53 157.96 728.82 150.00 728.77 C 142.36 728.78 134.71 728.63 127.07 728.91 C 123.38 729.05 119.68 729.05 115.99 728.91 C 104.67 728.57 93.33 728.85 82.00 728.75 C 74.15 728.64 66.28 729.16 58.45 728.36 C 60.79 724.72 62.81 720.64 66.33 717.98 C 67.83 717.55 69.40 717.56 70.95 717.54 C 105.23 717.76 139.51 717.56 173.79 717.67 C 174.00 713.11 174.06 708.55 173.99 703.99 C 173.87 665.32 174.10 626.65 173.88 587.98 C 164.54 600.33 155.91 613.19 146.52 625.50 C 137.09 638.71 127.67 651.93 117.95 664.93 C 107.29 679.61 96.79 694.40 86.07 709.04 C 84.04 711.77 82.33 714.83 79.64 716.98 C 75.43 717.97 71.03 717.28 66.75 717.22 C 69.85 711.65 73.88 706.70 77.58 701.54 C 103.87 665.18 130.37 628.97 156.63 592.59 C 161.42 585.62 167.06 579.25 171.28 571.90 C 162.86 571.36 154.43 571.74 146.00 571.65 C 120.81 571.57 95.62 571.79 70.43 571.55 C 70.21 566.37 70.22 561.18 70.28 556.00 C 70.32 512.99 70.25 469.98 70.30 426.97 C 73.19 426.79 76.08 426.63 78.98 426.62 C 96.61 426.71 114.25 426.69 131.88 426.69 C 132.58 407.25 131.73 387.79 132.27 368.36 M 710.36 586.93 C 710.38 630.51 710.41 674.08 710.35 717.66 C 741.95 717.56 773.56 717.75 805.17 717.57 C 802.51 712.24 798.28 707.97 795.03 703.03 C 785.90 689.86 776.08 677.21 766.92 664.07 C 751.48 643.18 736.42 622.00 721.01 601.08 C 717.54 596.30 714.30 591.34 710.36 586.93 Z" />
<path fill="#141553" opacity="1.00" d=" M 504.26 491.05 C 512.38 491.29 520.32 493.28 528.42 493.77 C 530.90 494.33 534.41 493.65 535.88 496.22 C 538.02 499.81 539.80 503.61 541.59 507.39 C 543.17 510.69 542.75 514.45 542.79 518.00 C 542.62 526.34 542.86 534.68 542.76 543.02 C 542.98 547.49 539.68 550.87 537.30 554.28 C 535.81 556.13 534.61 558.34 532.61 559.69 C 528.30 559.76 524.11 558.52 519.87 557.93 C 516.13 557.23 512.28 557.13 508.60 556.14 C 506.91 555.32 505.89 553.61 504.67 552.27 C 502.82 549.83 500.58 547.59 499.32 544.77 C 498.88 542.89 498.93 540.94 498.89 539.04 C 498.95 529.01 498.75 518.98 498.66 508.95 C 498.43 502.50 501.94 496.84 504.26 491.05 M 512.12 504.05 C 509.74 511.14 510.85 518.67 510.64 526.00 C 510.73 530.59 510.20 535.25 511.00 539.80 C 511.61 541.88 512.78 544.39 515.17 544.78 C 519.31 545.88 523.58 546.36 527.84 546.79 C 529.21 544.73 530.87 542.63 530.74 540.02 C 530.93 533.34 530.69 526.66 530.90 519.99 C 530.90 515.28 531.04 510.01 528.07 506.05 C 522.86 504.76 517.45 504.50 512.12 504.05 Z" />
<path fill="#141553" opacity="1.00" d=" M 230.55 530.56 C 234.57 529.07 238.56 527.11 242.92 527.01 C 245.96 526.91 249.00 527.18 252.03 527.35 C 252.82 536.21 252.16 545.12 252.36 554.00 C 252.29 559.01 252.56 564.03 252.33 569.05 C 252.18 574.25 248.60 578.42 247.44 583.35 C 246.87 586.76 246.99 590.23 246.80 593.67 C 243.03 595.50 239.27 597.36 235.40 599.00 C 235.29 595.64 235.16 592.28 235.25 588.93 C 234.92 582.10 240.76 576.88 240.40 570.03 C 232.47 573.34 224.90 577.44 217.26 581.36 C 217.27 583.12 217.16 584.90 217.49 586.65 C 218.50 589.86 221.04 592.51 221.30 595.98 C 221.55 599.56 221.67 603.22 221.04 606.78 C 218.08 610.23 213.81 612.17 209.86 614.24 C 209.62 610.50 209.75 606.75 209.60 603.01 C 209.48 598.56 205.86 595.17 205.46 590.78 C 205.19 587.86 205.33 584.92 205.34 582.00 C 205.48 569.46 205.19 556.92 205.45 544.39 C 213.20 538.77 221.58 533.93 230.55 530.56 M 217.38 549.29 C 217.11 555.77 217.25 562.26 217.16 568.74 C 224.86 564.79 232.61 560.92 240.52 557.40 C 240.79 551.35 240.67 545.28 240.63 539.22 C 232.07 540.17 224.05 543.91 217.38 549.29 Z" />
<path fill="#141553" opacity="1.00" d=" M 143.29 746.18 C 150.23 745.96 157.18 746.01 164.12 746.11 C 164.38 749.76 164.38 753.43 164.15 757.09 C 160.88 757.19 157.61 757.27 154.34 757.34 C 154.28 761.45 154.28 765.55 154.36 769.66 C 164.62 769.73 174.90 769.41 185.16 769.76 C 185.46 773.41 185.46 777.08 185.08 780.73 C 171.18 780.63 157.28 780.84 143.39 780.61 C 143.19 769.14 143.29 757.66 143.29 746.18 Z" />
</g>
<g id="#141453ff">
<path fill="#141453" opacity="1.00" d=" M 502.13 41.23 C 505.96 38.81 511.92 39.50 514.44 43.47 C 516.14 48.80 514.98 55.06 511.38 59.38 C 506.35 65.69 501.52 72.15 496.47 78.43 C 491.30 84.90 486.78 91.87 481.17 97.97 C 486.71 81.93 491.15 65.53 496.60 49.45 C 497.79 46.37 499.28 43.12 502.13 41.23 Z" />
<path fill="#141453" opacity="1.00" d=" M 529.95 65.97 C 534.56 62.05 543.34 64.01 544.75 70.25 C 545.37 75.11 542.97 80.14 538.99 82.93 C 532.20 87.85 525.46 92.84 518.56 97.59 C 512.32 101.90 506.61 106.94 500.14 110.90 C 502.73 106.59 505.68 102.51 508.32 98.24 C 512.21 92.13 515.73 85.79 519.79 79.79 C 523.00 75.07 525.39 69.60 529.95 65.97 Z" />
<path fill="#141453" opacity="1.00" d=" M 373.25 394.91 C 379.50 394.41 385.78 394.68 392.04 394.59 C 394.09 394.72 396.47 394.33 398.13 395.84 C 401.62 398.56 404.56 401.91 407.61 405.11 C 405.92 409.33 403.59 413.25 400.98 416.97 C 397.30 414.37 394.31 410.12 389.41 410.01 C 389.05 415.36 389.12 420.73 389.23 426.10 C 395.41 426.60 401.61 426.24 407.80 426.30 C 408.14 431.84 408.19 437.39 408.01 442.95 C 401.76 443.17 395.50 442.88 389.25 443.17 C 389.11 448.06 389.09 452.96 389.32 457.85 C 395.50 457.40 401.60 456.09 407.82 456.09 C 407.93 461.01 407.94 465.93 407.71 470.85 C 399.14 471.84 390.53 472.38 381.94 473.17 C 379.66 473.17 376.75 474.00 375.15 471.84 C 373.04 469.82 373.23 466.73 373.17 464.06 C 373.32 441.01 373.16 417.96 373.25 394.91 Z" />
<path fill="#141453" opacity="1.00" d=" M 476.27 394.95 C 482.50 394.32 488.76 394.76 495.00 394.59 C 497.57 394.64 500.22 394.37 502.71 395.11 C 506.13 397.36 509.27 400.15 511.92 403.29 C 512.88 408.09 512.09 413.04 511.91 417.89 C 506.74 417.89 501.57 417.77 496.41 417.57 C 496.47 415.13 496.51 412.69 496.55 410.26 C 493.12 410.31 489.70 410.34 486.28 410.38 C 486.11 414.08 486.13 417.80 486.42 421.50 C 494.96 426.78 503.99 431.27 512.26 436.99 C 512.45 444.01 512.30 451.03 512.40 458.06 C 512.25 460.08 512.67 462.49 511.09 464.08 C 508.36 467.09 505.44 470.11 501.88 472.14 C 497.56 472.49 493.24 471.70 488.92 471.68 C 485.44 471.45 481.79 471.77 478.48 470.50 C 475.16 467.76 473.51 463.59 472.14 459.63 C 470.81 455.96 470.26 452.07 470.06 448.18 C 475.28 447.82 480.52 447.84 485.75 448.12 C 485.78 451.47 485.85 454.83 485.98 458.19 C 489.65 458.53 493.34 458.36 496.99 457.89 C 497.38 453.33 497.38 448.75 496.97 444.20 C 488.61 439.90 480.08 435.89 471.95 431.14 C 469.92 430.31 470.40 427.81 470.22 426.06 C 470.27 420.70 470.19 415.34 470.27 409.99 C 470.36 404.40 473.87 399.75 476.27 394.95 Z" />
<path fill="#141453" opacity="1.00" d=" M 607.48 395.23 C 609.21 394.55 611.11 394.64 612.95 394.58 C 624.98 394.68 637.01 394.68 649.04 394.58 C 651.10 394.69 653.44 394.40 655.18 395.79 C 657.83 397.73 660.42 399.87 662.42 402.51 C 663.28 406.61 662.70 410.85 662.80 415.01 C 662.74 447.38 662.79 479.76 662.74 512.13 C 657.79 510.70 652.95 508.86 648.28 506.69 C 646.28 506.03 646.93 503.64 646.70 502.06 C 646.71 492.36 646.71 482.65 646.79 472.94 C 646.75 471.12 646.81 469.28 646.40 467.51 C 645.38 465.48 643.36 463.74 641.01 463.66 C 637.34 463.30 633.66 463.61 630.00 463.86 C 630.21 468.24 630.65 472.60 630.86 476.98 C 631.29 483.91 628.46 490.43 626.59 496.97 C 621.65 495.98 616.50 495.21 612.04 492.74 L 611.68 491.96 C 612.48 484.98 615.38 478.46 616.72 471.59 C 617.14 469.65 616.68 467.69 616.17 465.83 C 611.32 449.40 606.39 433.00 601.50 416.58 C 600.82 413.89 599.60 410.89 601.11 408.25 C 603.27 403.93 605.11 399.44 607.48 395.23 M 620.10 410.85 C 617.27 411.22 617.11 414.77 617.96 416.93 C 621.25 427.81 624.96 438.59 627.56 449.67 C 633.94 450.01 640.33 449.89 646.72 449.75 C 646.68 436.63 646.71 423.51 646.64 410.38 C 637.79 410.55 628.93 410.42 620.10 410.85 Z" />
<path fill="#141453" opacity="1.00" d=" M 333.76 496.87 C 347.23 493.94 361.09 491.75 374.91 492.84 C 375.14 497.85 375.14 502.87 374.86 507.87 C 371.00 508.51 367.13 509.01 363.25 509.48 C 363.09 508.23 362.94 506.98 362.79 505.74 C 358.92 505.67 355.11 506.34 351.37 507.23 C 351.18 520.52 351.40 533.83 351.24 547.13 C 354.22 547.20 357.19 546.87 360.17 546.65 C 360.41 550.73 360.42 554.83 359.96 558.90 C 350.70 560.88 341.38 562.55 332.08 564.29 C 331.81 559.97 331.85 555.64 332.23 551.34 C 334.49 550.79 336.74 550.24 339.00 549.72 C 339.84 543.51 339.29 537.24 339.41 531.00 C 339.33 523.67 339.69 516.34 339.17 509.03 C 335.30 509.24 331.45 509.70 327.64 510.35 C 327.39 511.87 327.14 513.39 326.89 514.92 C 323.30 515.86 319.61 516.37 315.89 516.43 C 315.57 511.68 315.56 506.91 315.96 502.16 C 321.69 499.78 327.71 498.20 333.76 496.87 Z" />
<path fill="#141453" opacity="1.00" d=" M 551.78 498.74 C 556.28 498.56 561.01 498.11 565.29 499.89 C 567.95 501.02 570.70 502.18 572.94 504.06 C 574.13 505.79 574.65 507.87 575.36 509.83 C 577.24 515.74 579.45 521.54 581.46 527.41 C 583.33 532.74 584.89 538.20 587.13 543.41 C 591.33 536.79 593.95 529.35 597.51 522.40 C 599.59 518.25 601.39 513.07 606.16 511.37 C 611.66 512.33 616.83 514.71 621.87 517.06 C 622.20 525.70 621.88 534.35 621.98 543.00 C 621.87 550.59 622.23 558.18 621.86 565.77 C 620.01 567.26 618.05 568.65 616.50 570.47 C 615.49 574.87 616.18 579.47 615.91 583.96 C 611.96 582.76 608.11 581.27 604.34 579.62 C 604.19 574.84 603.77 570.02 604.43 565.27 C 605.46 562.32 608.34 560.48 609.73 557.72 C 610.41 554.86 610.16 551.89 610.19 548.99 C 610.03 541.29 610.39 533.57 609.86 525.88 C 607.09 530.87 604.83 536.11 602.02 541.08 C 596.34 551.30 591.34 561.91 585.40 571.99 C 580.47 558.76 575.65 545.50 570.66 532.29 C 568.17 525.85 566.14 519.22 563.32 512.91 C 563.34 521.28 563.45 529.66 563.30 538.04 C 563.31 540.19 563.18 542.38 563.63 544.51 C 564.99 547.34 567.64 549.32 568.92 552.20 C 569.79 557.22 569.23 562.36 569.06 567.42 C 565.03 566.77 561.14 565.52 557.49 563.71 C 557.40 560.85 557.53 557.95 556.99 555.14 C 555.79 551.78 552.89 549.31 551.88 545.88 C 551.24 541.95 551.64 537.95 551.59 534.00 C 551.74 522.25 551.34 510.49 551.78 498.74 Z" />
<path fill="#141453" opacity="1.00" d=" M 291.41 508.54 C 296.22 506.29 301.47 505.16 306.64 504.01 C 306.80 521.02 306.55 538.04 306.75 555.06 C 306.67 557.56 306.95 560.32 305.44 562.50 C 303.79 565.10 301.61 567.29 299.56 569.56 C 297.60 571.61 295.70 573.91 292.98 574.96 C 289.17 576.47 285.27 577.78 281.57 579.55 C 279.53 580.34 277.51 581.54 275.27 581.53 C 271.24 579.43 267.77 576.42 264.07 573.82 C 263.53 559.42 264.43 544.99 263.66 530.60 C 262.58 529.85 260.81 529.42 260.84 527.79 C 260.43 524.58 260.76 521.35 260.93 518.14 C 267.10 515.86 273.29 513.60 279.66 511.92 C 279.97 516.11 279.99 520.32 279.78 524.53 C 278.43 525.34 277.08 526.17 275.74 527.01 C 275.52 537.69 275.79 548.37 275.61 559.04 C 275.75 561.32 275.28 564.11 277.22 565.80 C 278.40 566.84 279.86 568.44 281.61 567.69 C 287.14 565.99 292.59 562.40 294.55 556.71 C 295.15 553.84 294.93 550.89 294.96 547.99 C 294.81 539.10 295.05 530.21 294.85 521.33 C 293.50 521.24 292.14 521.15 290.79 521.06 C 290.81 516.93 289.84 512.45 291.41 508.54 Z" />
<path fill="#141453" opacity="1.00" d=" M 631.92 527.19 C 637.76 526.58 643.83 526.32 649.36 528.66 C 659.69 532.61 669.90 537.43 678.65 544.28 C 678.79 559.20 678.63 574.13 678.73 589.05 C 679.00 594.11 674.83 597.99 674.64 602.96 C 674.43 606.93 674.65 610.91 674.66 614.89 C 670.71 612.25 666.79 609.59 662.95 606.81 C 662.71 603.20 662.42 599.57 662.76 595.97 C 663.01 592.21 665.97 589.42 666.77 585.84 C 666.93 584.09 666.75 582.34 666.64 580.61 C 658.68 577.70 651.58 572.90 643.65 569.96 C 643.74 575.23 646.86 579.63 648.34 584.52 C 649.35 589.24 648.81 594.13 648.75 598.92 C 644.91 597.24 641.15 595.37 637.41 593.50 C 637.17 590.03 637.28 586.52 636.76 583.08 C 635.75 578.17 632.11 574.13 631.78 569.04 C 631.46 563.36 631.80 557.68 631.70 552.00 C 631.81 543.73 631.42 535.45 631.92 527.19 M 643.82 539.60 C 643.43 545.37 643.46 551.17 643.77 556.95 C 651.19 561.17 659.02 564.62 666.80 568.13 C 667.10 561.81 667.07 555.48 666.87 549.16 C 660.37 543.82 652.36 539.77 643.82 539.60 Z" />
<path fill="#141453" opacity="1.00" d=" M 729.99 647.97 C 738.06 658.26 745.64 668.94 753.72 679.23 C 759.24 687.24 765.82 694.48 770.98 702.76 C 757.32 702.76 743.67 702.75 730.03 702.76 C 729.55 694.51 729.93 686.25 729.82 678.00 C 729.91 667.99 729.60 657.97 729.99 647.97 Z" />
</g>
<g id="#181942ff">
<path fill="#181942" opacity="1.00" d=" M 327.28 196.11 C 332.28 196.51 337.27 197.14 342.12 198.45 C 336.68 198.94 331.23 199.26 325.77 199.33 C 326.27 198.25 326.77 197.18 327.28 196.11 Z" />
</g>
<g id="#191647ff">
<path fill="#191647" opacity="1.00" d=" M 527.99 250.06 C 539.12 251.72 550.04 254.56 560.98 257.16 C 560.62 258.45 560.27 259.75 559.93 261.05 C 553.76 259.56 547.90 257.06 541.91 255.01 C 537.26 253.39 532.55 251.93 527.99 250.06 Z" />
</g>
<g id="#191748ff">
<path fill="#191748" opacity="1.00" d=" M 327.92 261.86 C 339.58 259.45 351.22 256.93 363.00 255.14 C 355.07 258.18 346.81 260.18 338.76 262.85 C 335.70 263.87 332.59 264.72 329.44 265.43 C 328.93 264.24 328.42 263.04 327.92 261.86 Z" />
</g>
<g id="#16154eff">
<path fill="#16154e" opacity="1.00" d=" M 458.55 310.55 C 461.32 309.76 464.17 310.59 466.88 311.23 C 467.81 317.98 467.67 324.82 467.65 331.62 C 465.28 331.58 462.93 331.58 460.57 331.60 C 460.37 327.68 459.81 323.70 457.72 320.30 C 455.83 317.39 455.36 312.73 458.55 310.55 Z" />
</g>
<g id="#141654ff">
<path fill="#141654" opacity="1.00" d=" M 522.36 395.05 C 527.76 394.37 533.24 394.37 538.65 395.05 C 538.49 422.30 538.80 449.56 538.61 476.81 C 533.19 475.91 527.74 475.17 522.40 473.84 C 522.41 447.58 522.50 421.32 522.36 395.05 Z" />
</g>
<g id="#fefefbff">
</g>
<g id="#fffffeff">
</g>
<g id="#fffffdff">
</g>
<g id="#fefffdff">
</g>
<g id="#fefefdff">
</g>
<g id="#141552ff">
<path fill="#141552" opacity="1.00" d=" M 426.33 594.22 C 481.39 589.63 537.83 609.13 578.53 646.43 C 587.00 653.62 594.26 662.07 601.37 670.58 C 610.22 681.73 617.97 693.75 624.44 706.44 C 628.15 714.61 632.21 722.68 634.82 731.30 C 639.98 746.59 643.62 762.42 645.28 778.48 C 647.01 801.15 646.11 824.20 640.47 846.30 C 628.43 897.16 595.93 942.78 551.82 970.80 C 532.89 983.23 511.68 991.91 489.80 997.55 C 466.61 1003.24 442.45 1004.40 418.74 1002.10 C 405.09 1000.25 391.48 997.73 378.39 993.37 C 364.13 988.47 350.13 982.59 337.26 974.68 C 314.51 961.37 294.52 943.42 278.56 922.46 C 273.14 916.00 268.97 908.64 264.52 901.52 C 254.59 884.75 247.60 866.39 242.61 847.60 C 237.58 827.50 235.86 806.63 237.09 785.96 C 237.33 776.81 239.17 767.82 240.61 758.81 C 248.28 718.97 268.31 681.67 297.12 653.12 C 318.02 632.48 343.31 616.33 370.82 606.06 C 384.64 601.53 398.64 597.25 413.12 595.46 C 417.51 594.92 421.92 594.59 426.33 594.22 M 426.34 604.17 C 417.88 605.09 409.37 605.81 401.08 607.80 C 391.62 610.05 382.09 612.23 373.05 615.89 C 358.03 621.23 344.13 629.23 330.79 637.87 C 316.75 647.88 303.64 659.31 292.55 672.56 C 282.51 684.64 273.41 697.63 266.76 711.92 C 254.91 734.52 248.74 759.72 246.48 785.03 C 245.91 794.37 246.01 803.73 246.44 813.08 C 246.70 819.69 248.03 826.20 249.10 832.72 C 253.22 857.13 262.16 880.72 275.27 901.72 C 292.51 930.02 317.39 953.44 346.17 969.77 C 358.13 976.03 370.36 982.02 383.38 985.76 C 414.59 995.78 448.36 996.99 480.44 990.62 C 498.01 987.38 514.94 981.15 530.77 972.90 C 545.51 965.65 558.77 955.81 571.29 945.26 C 585.88 932.00 598.70 916.74 608.92 899.87 C 612.81 893.52 615.88 886.73 619.22 880.10 C 622.80 872.92 625.40 865.31 627.82 857.68 C 635.50 834.32 637.84 809.43 636.52 784.95 C 634.59 763.03 629.39 741.36 620.78 721.10 C 617.12 712.45 612.43 704.29 607.71 696.19 C 582.47 655.42 541.82 624.28 495.62 611.21 C 473.21 604.65 449.60 602.35 426.34 604.17 Z" />
</g>
<g id="#15164fff">
<path fill="#15164f" opacity="1.00" d=" M 374.50 649.53 C 390.87 634.57 412.96 626.47 435.02 625.86 C 451.07 625.14 467.08 629.47 481.22 636.94 C 495.67 645.59 508.28 657.33 517.59 671.39 C 521.98 677.62 525.26 684.52 528.96 691.16 C 530.91 691.22 532.88 691.17 534.82 691.51 C 537.59 692.14 540.00 694.05 542.92 694.10 C 548.57 694.41 554.26 693.58 559.89 694.34 C 564.92 695.43 569.46 698.00 574.30 699.66 C 578.32 701.34 582.72 702.30 586.39 704.75 C 590.13 710.76 593.63 717.36 594.21 724.57 C 595.14 733.96 596.34 743.32 597.67 752.66 C 598.23 756.23 598.02 759.89 597.16 763.41 C 595.70 769.40 594.59 775.48 592.81 781.40 C 590.45 782.00 588.12 782.73 585.77 783.36 C 586.15 781.59 586.53 779.81 586.92 778.05 C 577.96 777.23 568.97 777.85 560.00 777.68 C 551.44 777.81 542.87 777.25 534.33 778.01 C 533.25 780.02 532.17 782.03 531.08 784.05 C 529.75 782.89 528.96 781.29 528.12 779.80 C 531.77 771.93 535.07 763.88 537.44 755.53 C 539.11 749.84 538.73 743.85 538.71 738.00 C 538.56 727.99 539.08 717.97 538.21 708.00 C 537.82 703.94 538.11 699.78 537.09 695.81 C 535.93 694.00 533.44 693.96 531.60 694.50 C 529.21 696.66 528.53 700.01 528.19 703.07 C 527.99 705.66 527.86 708.44 529.02 710.85 C 530.94 712.86 533.76 713.65 536.19 714.90 C 536.50 716.10 536.82 717.30 537.15 718.52 C 534.73 717.97 532.31 717.42 529.89 716.90 C 529.49 722.93 529.78 728.96 529.70 734.99 C 529.65 740.92 527.63 746.56 526.65 752.36 C 526.01 755.69 525.72 759.18 524.14 762.25 C 522.46 765.51 520.19 768.46 518.90 771.92 C 517.72 774.66 517.05 777.72 515.17 780.11 C 513.86 780.58 512.48 780.80 511.13 781.11 C 512.62 775.42 514.76 769.87 517.89 764.87 C 519.61 762.09 521.30 759.20 521.91 755.95 C 523.77 745.89 526.45 735.74 524.96 725.44 C 522.11 725.00 519.27 724.48 516.47 723.81 C 519.32 722.12 522.43 720.91 525.20 719.09 C 526.30 715.83 525.85 711.93 523.82 709.12 C 522.21 706.71 517.90 707.07 516.82 709.81 C 515.54 712.68 515.60 715.90 515.30 718.98 C 514.74 728.90 511.47 738.37 508.82 747.87 C 506.97 753.67 505.77 759.96 501.78 764.76 C 495.77 772.02 490.03 779.54 483.16 786.03 C 485.55 788.28 487.90 790.59 490.00 793.12 C 486.42 791.78 483.24 789.63 479.79 788.05 C 477.84 786.88 475.23 788.87 475.71 791.06 C 475.98 793.49 476.83 795.80 477.53 798.14 C 475.78 797.38 473.95 796.75 472.35 795.70 C 471.04 794.12 470.46 792.10 469.73 790.23 C 467.88 784.90 465.94 779.50 465.59 773.82 C 465.12 765.34 465.31 756.77 463.71 748.39 C 463.40 745.43 460.07 743.56 457.35 744.56 C 453.92 745.95 451.78 749.52 451.28 753.08 C 450.88 755.33 452.63 757.48 454.64 758.28 C 457.02 758.88 459.51 758.56 461.94 758.53 C 461.89 759.94 461.85 761.37 461.81 762.81 C 457.78 763.12 453.80 762.33 450.22 760.47 C 449.70 766.30 449.59 772.15 449.77 778.01 C 449.97 784.02 448.28 789.98 449.13 795.99 C 449.74 800.59 450.62 805.16 451.46 809.73 C 446.32 810.55 441.14 811.38 435.93 811.24 C 432.51 811.12 429.34 809.72 426.17 808.60 C 427.38 801.46 428.84 794.30 428.47 787.01 C 428.89 778.45 427.06 770.04 426.58 761.53 C 423.12 763.25 419.25 763.86 415.49 762.81 C 415.26 761.44 415.03 760.08 414.80 758.73 C 417.40 758.96 420.07 759.54 422.68 758.98 C 424.07 758.34 425.19 757.13 425.76 755.71 C 425.81 752.69 424.53 749.72 422.70 747.36 C 421.14 745.34 418.08 743.94 415.77 745.57 C 414.17 747.42 413.62 749.88 413.19 752.22 C 412.07 759.45 412.01 766.77 411.67 774.06 C 411.39 781.13 408.71 787.79 406.22 794.31 C 405.27 797.36 401.64 797.67 399.15 798.90 C 400.57 796.03 401.89 793.13 403.06 790.16 C 401.13 789.53 398.97 787.64 396.98 789.07 C 393.74 790.96 390.66 793.23 386.96 794.15 C 389.50 790.95 392.72 788.43 395.96 785.99 C 391.73 782.24 387.49 778.46 384.07 773.94 C 379.77 768.26 374.39 763.30 371.33 756.77 C 369.00 751.97 366.34 747.25 365.11 742.01 C 363.47 735.31 362.72 728.43 361.73 721.62 C 361.12 717.69 361.18 713.62 359.92 709.82 C 358.60 707.85 355.36 706.43 353.37 708.29 C 351.15 710.10 350.95 713.25 350.95 715.91 C 351.10 717.44 350.99 719.57 352.65 720.34 C 355.32 721.82 358.20 722.86 360.90 724.27 C 357.88 725.96 354.45 725.42 351.27 724.62 C 351.64 732.05 350.48 739.64 352.15 746.97 C 354.12 753.02 355.64 759.35 359.15 764.75 C 362.37 769.89 364.58 775.60 366.04 781.48 C 364.81 781.29 363.61 781.01 362.44 780.65 C 360.47 778.35 359.72 775.32 358.50 772.62 C 356.60 767.77 352.90 763.77 351.69 758.64 C 350.31 752.47 347.87 746.46 347.93 740.05 C 347.82 732.44 347.86 724.82 347.58 717.22 C 345.26 717.75 342.94 718.28 340.62 718.80 C 340.80 717.67 340.98 716.55 341.18 715.44 C 343.40 714.24 346.04 713.49 347.75 711.55 C 348.85 707.56 348.76 703.27 348.01 699.23 C 347.62 696.54 345.08 694.25 342.30 694.99 C 339.80 695.25 340.09 698.15 340.08 699.99 C 340.45 707.67 339.32 715.30 339.29 722.97 C 339.21 730.67 338.61 738.35 338.59 746.05 C 338.49 754.21 341.90 761.79 344.55 769.35 C 347.99 777.56 351.14 786.14 356.97 793.02 C 367.07 806.33 375.07 821.08 385.00 834.51 C 389.03 834.03 393.07 833.50 397.06 832.70 C 395.91 834.03 394.75 835.35 393.59 836.67 C 390.68 836.60 387.69 836.12 384.84 836.87 C 383.22 837.86 381.94 839.27 380.58 840.58 C 379.21 840.08 377.84 839.57 376.47 839.11 C 376.88 838.94 377.68 838.58 378.09 838.41 C 365.07 837.67 352.03 838.31 339.00 838.16 C 327.13 838.06 315.27 838.46 303.41 838.04 C 304.55 839.40 305.68 840.77 306.82 842.15 C 304.84 848.12 301.97 853.73 299.36 859.44 C 295.34 868.75 290.84 877.85 287.16 887.31 C 284.52 887.53 281.89 887.85 279.29 888.31 C 280.64 883.35 283.31 878.93 285.34 874.25 C 287.86 868.51 290.77 862.95 293.35 857.24 C 295.60 852.18 298.49 847.39 300.10 842.07 C 293.63 838.80 286.00 838.24 280.08 833.87 C 276.01 831.01 271.73 828.34 268.29 824.71 C 265.46 821.75 264.45 817.67 263.03 813.96 C 261.70 810.05 259.89 806.33 258.61 802.42 C 257.42 799.21 259.02 795.93 260.03 792.91 C 264.19 781.13 269.78 769.89 276.19 759.18 C 278.58 754.92 283.03 752.62 286.93 750.00 C 293.84 745.57 300.49 740.74 307.59 736.62 C 312.70 733.65 317.67 730.27 323.38 728.54 C 327.39 727.31 331.54 726.57 335.63 725.61 C 336.89 716.44 337.36 707.15 336.84 697.91 C 336.66 695.58 336.96 692.50 339.54 691.62 C 341.86 691.16 344.24 691.45 346.59 691.54 C 351.12 681.49 355.22 670.95 362.55 662.54 C 366.36 658.05 370.04 653.41 374.50 649.53 M 412.93 634.20 C 412.89 635.37 412.85 636.56 412.82 637.75 C 417.30 635.75 422.16 634.40 426.12 631.41 C 421.62 631.72 417.18 632.67 412.93 634.20 M 448.97 631.30 C 451.67 633.77 455.29 634.77 458.39 636.61 C 460.64 637.92 463.04 639.10 465.71 639.19 C 465.73 637.89 465.75 636.60 465.77 635.32 C 460.35 633.35 454.73 631.82 448.97 631.30 M 415.67 642.68 C 416.78 643.62 417.89 644.57 419.01 645.52 C 422.48 641.83 425.84 638.03 428.81 633.92 C 424.21 636.49 419.56 639.08 415.67 642.68 M 441.14 633.74 C 440.81 640.11 440.85 646.50 441.17 652.88 C 445.80 652.79 450.39 652.00 454.79 650.56 C 451.11 644.34 447.28 637.85 441.14 633.74 M 447.15 633.88 C 449.97 637.72 452.96 641.44 455.68 645.35 C 456.50 646.28 457.15 647.80 458.65 647.62 C 459.76 646.50 460.69 645.24 461.68 644.03 C 457.37 639.95 452.40 636.63 447.15 633.88 M 423.16 648.80 C 427.24 650.65 431.48 652.18 435.90 652.98 C 436.63 646.85 436.48 640.67 436.02 634.53 C 430.54 638.06 426.77 643.51 423.16 648.80 M 382.51 649.53 C 380.77 650.88 378.92 652.22 377.77 654.15 C 378.07 656.92 379.36 659.45 380.47 661.97 C 384.01 659.75 386.56 656.37 389.63 653.61 C 395.39 648.44 402.10 644.53 408.31 639.96 C 408.15 638.64 407.99 637.32 407.84 636.01 C 398.50 638.52 390.19 643.78 382.51 649.53 M 471.02 638.03 C 470.38 639.56 469.75 641.11 469.14 642.67 C 473.88 645.93 478.64 649.21 482.86 653.15 C 487.22 656.95 490.86 661.47 495.00 665.49 C 497.08 663.47 498.96 661.25 500.65 658.90 C 496.83 654.20 491.98 650.49 487.21 646.83 C 482.13 643.37 477.02 639.68 471.02 638.03 M 401.64 650.61 C 395.53 655.21 389.52 660.07 384.67 666.04 C 390.14 672.06 397.09 676.72 404.58 679.85 C 406.89 672.10 409.61 664.44 413.18 657.17 C 414.30 654.89 415.30 652.55 416.23 650.19 C 414.44 648.42 412.64 646.67 410.81 644.96 C 407.57 646.52 404.50 648.42 401.64 650.61 M 466.18 646.94 C 464.08 648.69 462.02 650.48 459.98 652.29 C 460.89 654.85 461.92 657.37 463.05 659.84 C 466.44 667.29 468.98 675.09 471.39 682.90 C 478.47 679.35 485.23 675.04 491.06 669.66 C 488.39 665.21 484.47 661.74 480.72 658.24 C 476.17 654.11 471.57 649.94 466.18 646.94 M 420.52 653.26 C 415.88 662.41 411.73 671.95 409.50 682.00 C 417.68 686.21 426.99 688.25 436.16 688.41 C 436.30 678.07 436.65 667.69 435.98 657.37 C 430.66 656.66 425.64 654.73 420.52 653.26 M 441.14 657.35 C 440.88 667.87 440.98 678.40 441.08 688.92 C 449.66 689.05 458.32 687.81 466.44 684.98 C 463.71 674.68 461.17 664.12 456.03 654.70 C 451.15 655.99 446.17 656.91 441.14 657.35 M 358.53 677.51 C 356.60 681.22 354.27 684.83 353.22 688.92 C 354.52 693.14 357.91 696.36 361.39 698.92 C 363.99 690.09 367.61 681.50 372.80 673.87 C 374.51 671.36 376.16 668.81 377.64 666.16 C 376.03 663.34 374.67 660.38 373.48 657.37 C 367.71 663.45 362.49 670.10 358.53 677.51 M 498.25 669.88 C 502.98 676.99 507.52 684.29 510.70 692.24 C 511.78 694.94 512.87 697.64 514.06 700.30 C 517.34 697.84 520.23 694.91 522.92 691.82 C 521.11 687.01 518.53 682.55 515.91 678.15 C 512.52 672.66 508.96 667.14 504.18 662.75 C 502.02 664.97 500.03 667.35 498.25 669.88 M 377.78 674.85 C 372.66 683.57 367.66 692.67 365.96 702.77 C 375.24 709.52 384.87 716.43 396.08 719.49 C 397.45 713.69 398.00 707.75 399.17 701.92 C 400.23 696.30 401.88 690.81 403.04 685.22 C 399.87 683.24 396.56 681.52 393.36 679.62 C 388.97 677.02 385.25 673.50 381.65 669.93 C 380.15 671.39 378.80 673.02 377.78 674.85 M 482.59 682.62 C 479.39 684.45 476.10 686.14 472.93 688.02 C 475.34 699.30 477.40 710.65 479.01 722.07 C 482.60 721.24 486.07 719.94 489.27 718.13 C 495.98 714.43 502.54 710.36 508.44 705.48 C 510.30 704.33 508.97 702.08 508.57 700.52 C 505.01 691.04 500.66 681.63 494.32 673.68 C 490.56 676.85 486.87 680.17 482.59 682.62 M 407.59 687.14 C 404.95 698.59 402.00 710.14 401.72 721.94 C 412.78 725.79 424.33 729.09 436.15 728.97 C 436.41 723.65 436.33 718.32 436.30 713.00 C 436.22 706.50 436.64 699.97 435.93 693.49 C 431.32 693.19 426.70 692.78 422.20 691.69 C 417.22 690.53 412.48 688.59 407.59 687.14 M 451.87 693.45 C 448.28 693.70 444.67 693.72 441.08 693.87 C 440.94 705.61 440.97 717.35 441.07 729.09 C 452.12 729.43 463.20 727.93 473.74 724.57 C 473.80 716.54 471.50 708.79 470.29 700.92 C 469.72 697.16 468.98 693.43 467.85 689.81 C 462.53 691.06 457.36 693.09 451.87 693.45 M 350.33 693.99 C 350.48 697.67 350.84 701.33 351.23 705.00 C 353.84 704.62 356.45 704.25 359.07 703.91 C 356.16 700.59 353.40 697.15 350.33 693.99 M 515.06 706.78 C 518.17 705.31 521.60 704.80 525.00 705.42 C 525.34 702.59 525.66 699.75 525.83 696.91 C 521.96 699.89 518.57 703.41 515.06 706.78 M 541.08 698.32 C 541.11 699.42 541.14 700.53 541.18 701.65 C 549.81 701.63 558.44 701.58 567.07 701.66 C 563.52 700.15 559.89 698.57 555.99 698.36 C 551.02 698.08 546.05 698.29 541.08 698.32 M 541.64 705.12 C 541.73 706.96 541.83 708.81 541.94 710.66 C 549.96 710.67 557.98 710.60 566.00 710.62 C 571.62 710.56 577.28 711.02 582.87 710.17 C 582.06 708.94 581.60 707.29 580.12 706.70 C 576.06 704.69 571.39 704.99 566.99 704.98 C 558.54 705.16 550.09 704.85 541.64 705.12 M 364.71 708.67 C 365.19 719.04 366.45 729.38 368.69 739.51 C 369.28 742.43 371.54 744.52 373.94 746.07 C 380.60 750.54 387.56 754.74 395.23 757.23 C 395.71 750.82 395.08 744.40 395.25 737.99 C 395.36 733.68 395.50 729.36 395.36 725.06 C 390.08 722.45 384.55 720.39 379.39 717.52 C 374.33 714.85 369.71 711.44 364.71 708.67 M 497.43 719.36 C 491.77 722.76 485.59 725.12 479.67 728.00 C 479.61 731.99 479.76 735.99 479.86 739.99 C 480.02 746.12 479.37 752.25 479.61 758.39 C 486.82 757.96 494.04 756.49 500.66 753.56 C 503.36 752.50 504.04 749.42 505.00 747.01 C 509.04 735.32 512.81 723.05 511.05 710.53 C 506.24 713.04 502.12 716.65 497.43 719.36 M 542.59 715.95 C 542.56 717.96 542.57 719.98 542.61 722.01 C 550.40 722.30 558.20 722.08 566.00 722.13 C 572.79 722.08 579.59 722.34 586.37 721.93 C 585.88 720.03 585.37 718.15 584.87 716.27 C 577.92 715.86 570.96 716.06 564.00 715.99 C 556.86 715.99 549.72 715.66 542.59 715.95 M 400.46 727.16 C 400.11 736.13 399.88 745.12 400.33 754.10 C 400.46 755.70 400.48 757.39 401.15 758.90 C 402.96 760.65 405.61 760.75 407.95 761.22 C 408.71 756.77 408.92 752.23 410.10 747.86 C 410.98 745.12 412.49 742.22 415.21 740.93 C 418.96 739.87 423.58 740.84 425.87 744.21 C 430.29 749.71 430.52 757.05 431.38 763.74 C 432.88 763.73 434.38 763.73 435.90 763.74 C 436.64 757.85 436.22 751.91 436.32 746.00 C 436.38 742.01 436.33 738.02 436.09 734.04 C 429.76 733.13 423.33 733.05 417.08 731.68 C 411.44 730.53 406.02 728.57 400.46 727.16 M 542.26 728.36 C 542.24 730.46 542.23 732.56 542.23 734.68 C 555.83 734.75 569.42 734.59 583.02 734.74 C 584.90 734.82 586.76 734.44 588.64 734.28 C 588.34 732.51 588.06 730.76 587.80 729.01 C 581.22 728.35 574.60 728.74 568.00 728.65 C 559.42 728.70 550.84 728.29 542.26 728.36 M 459.86 732.71 C 453.65 733.74 447.34 733.70 441.08 734.11 C 440.96 744.00 440.81 753.89 441.22 763.77 C 442.71 763.74 444.20 763.72 445.70 763.71 C 446.44 757.27 447.51 750.61 451.23 745.12 C 453.60 741.11 459.26 739.53 463.41 741.53 C 468.93 746.83 467.78 755.08 468.37 762.01 C 470.05 761.54 471.76 761.15 473.35 760.43 C 474.46 758.87 474.46 756.84 474.70 755.03 C 475.33 746.45 474.92 737.85 474.64 729.27 C 469.75 730.57 464.86 731.94 459.86 732.71 M 317.79 736.58 C 323.45 736.83 329.11 736.72 334.78 736.69 C 334.87 734.81 334.96 732.95 335.04 731.09 C 329.08 731.97 322.54 732.44 317.79 736.58 M 309.87 741.87 C 307.14 743.09 304.86 745.08 302.63 747.03 C 313.16 747.52 323.73 747.40 334.26 747.11 C 334.27 745.09 334.27 743.07 334.26 741.07 C 328.49 740.93 322.72 740.98 316.95 740.94 C 314.58 741.00 312.09 740.87 309.87 741.87 M 542.19 741.17 C 542.20 743.11 542.21 745.04 542.23 746.99 C 550.47 747.68 558.74 747.14 567.00 747.30 C 574.99 747.12 583.00 747.73 590.97 746.95 C 590.61 745.01 590.26 743.08 589.91 741.15 C 581.94 740.83 573.97 741.09 566.00 741.02 C 558.06 741.09 550.12 740.81 542.19 741.17 M 373.80 752.34 C 376.72 761.23 384.78 766.72 389.77 774.29 C 393.23 779.66 398.71 783.34 404.35 786.10 C 404.16 781.69 401.19 778.25 399.67 774.30 C 398.21 770.57 397.46 766.62 396.30 762.81 C 392.79 761.62 389.25 760.51 385.82 759.11 C 381.54 757.36 377.77 754.66 373.80 752.34 M 292.21 754.30 C 289.27 755.77 286.69 757.84 284.04 759.75 C 301.67 759.53 319.31 759.74 336.95 759.65 C 336.27 757.55 335.55 755.47 334.80 753.41 C 323.19 753.23 311.57 753.49 299.96 753.30 C 297.37 753.36 294.60 753.09 292.21 754.30 M 542.25 753.33 C 541.62 755.27 540.98 757.21 540.36 759.17 C 544.53 759.95 548.78 759.69 553.00 759.66 C 565.69 759.61 578.38 759.69 591.07 759.66 C 591.24 757.55 591.26 755.44 591.15 753.34 C 574.85 753.36 558.55 753.38 542.25 753.33 M 484.15 762.37 C 482.20 762.88 479.87 762.90 478.36 764.39 C 477.09 767.57 476.66 771.06 475.15 774.17 C 473.79 777.17 471.70 779.83 470.74 783.02 C 470.84 785.30 471.62 787.50 472.19 789.71 C 479.07 784.83 484.45 778.26 490.29 772.26 C 494.34 768.16 497.13 763.07 499.73 757.99 C 494.62 759.72 489.51 761.56 484.15 762.37 M 280.35 765.32 C 279.57 767.22 278.78 769.13 278.01 771.04 C 286.32 771.65 294.67 771.18 303.00 771.32 C 315.58 771.21 328.16 771.54 340.74 771.16 C 340.01 769.22 339.31 767.29 338.62 765.36 C 331.43 764.67 324.21 765.15 317.00 765.04 C 304.79 765.22 292.55 764.64 280.35 765.32 M 469.03 766.03 C 468.96 769.39 468.98 772.76 469.15 776.12 C 470.83 772.58 472.14 768.88 472.96 765.04 C 471.64 765.35 470.32 765.67 469.03 766.03 M 538.31 765.29 C 537.85 767.23 537.39 769.18 536.94 771.14 C 551.96 771.60 567.00 771.12 582.02 771.39 C 584.17 771.23 586.57 771.69 588.53 770.62 C 589.18 768.87 589.54 767.05 589.98 765.25 C 580.99 764.75 571.99 765.15 563.00 765.03 C 554.77 765.16 546.53 764.70 538.31 765.29 M 402.62 765.55 C 403.07 769.86 404.19 774.19 406.98 777.63 C 409.59 774.75 408.57 770.67 408.70 767.17 C 406.67 766.60 404.65 766.05 402.62 765.55 M 441.26 768.31 C 440.76 777.50 440.87 786.72 441.16 795.92 C 442.29 795.91 443.42 795.90 444.56 795.91 C 444.30 791.97 444.58 788.02 445.33 784.16 C 446.33 778.93 446.07 773.59 445.61 768.33 C 444.15 768.32 442.70 768.31 441.26 768.31 M 431.79 768.79 C 431.36 777.84 432.77 786.84 432.93 795.89 C 433.71 795.88 435.29 795.86 436.08 795.86 C 436.51 786.85 436.39 777.81 436.15 768.80 C 434.69 768.79 433.24 768.78 431.79 768.79 M 274.46 778.29 C 273.09 779.98 272.17 781.97 271.16 783.88 C 296.15 783.88 321.15 784.00 346.14 783.80 C 345.11 781.87 344.70 779.24 342.75 778.05 C 338.88 777.30 334.91 777.73 331.00 777.67 C 313.65 777.68 296.29 777.71 278.94 777.63 C 277.44 777.72 275.84 777.60 274.46 778.29 M 268.08 790.09 C 267.38 792.01 266.68 793.94 265.99 795.87 C 281.32 796.50 296.67 796.20 312.00 796.36 C 325.66 796.21 339.32 796.80 352.99 796.66 C 351.99 794.52 350.91 792.43 349.73 790.39 C 326.16 790.31 302.58 790.30 279.01 790.01 C 275.36 789.95 271.72 789.99 268.08 790.09 M 265.70 802.93 C 266.43 804.91 267.21 806.90 268.00 808.88 C 271.67 808.98 275.34 809.05 279.01 809.01 C 307.08 808.82 335.17 809.21 363.24 808.82 C 361.65 806.74 360.43 803.94 357.84 802.97 C 353.93 802.34 349.94 802.73 346.00 802.69 C 325.33 802.71 304.67 802.68 284.00 802.70 C 277.90 802.72 271.79 802.49 265.70 802.93 M 430.97 802.95 C 430.85 804.94 430.74 806.93 430.65 808.93 C 436.23 809.05 441.82 809.05 447.40 808.93 C 447.31 806.93 447.20 804.94 447.08 802.97 C 441.72 802.50 436.32 802.50 430.97 802.95 M 270.12 815.12 C 271.37 817.38 272.23 820.07 274.43 821.62 C 279.19 822.71 284.15 821.99 289.00 822.11 C 316.61 822.02 344.22 821.69 371.83 821.80 C 370.09 819.71 368.57 817.34 366.29 815.79 C 364.91 815.40 363.46 815.39 362.05 815.35 C 337.37 815.39 312.68 815.31 288.01 815.07 C 282.04 815.03 276.08 814.90 270.12 815.12 M 281.83 827.44 C 285.92 831.22 291.26 834.00 296.96 833.74 C 323.69 833.58 350.43 833.83 377.16 833.61 C 376.82 831.38 376.16 828.76 373.72 828.02 C 370.86 827.35 367.90 827.58 364.99 827.56 C 352.00 827.80 339.00 827.26 326.01 827.38 C 311.28 827.45 296.55 827.20 281.83 827.44 Z" />
</g>
<g id="#f0f4faff">
</g>
<g id="#f3f9fbff">
</g>
<g id="#f8f7fbff">
</g>
<g id="#fdfdfbff">
</g>
<g id="#f9f7f9ff">
</g>
<g id="#fcfdf9ff">
</g>
<g id="#fcfcfaff">
</g>
<g id="#fefefeff">
</g>
<g id="#fdfdfcff">
</g>
<g id="#f8fbfbff">
</g>
<g id="#f7fafbff">
</g>
<g id="#fbfbfdff">
</g>
<g id="#f9fbfcff">
</g>
<g id="#fefefcff">
</g>
<g id="#f9fdfcff">
</g>
<g id="#fcfafbff">
</g>
<g id="#fdfbfaff">
</g>
<g id="#fdfbf9ff">
</g>
<g id="#fdfcfbff">
</g>
<g id="#f9fcfbff">
</g>
<g id="#f9fdfbff">
</g>
<g id="#fcfdfaff">
</g>
<g id="#f5f9fdff">
<path fill="#f5f9fd" opacity="1.00" d=" M 469.03 766.03 C 470.32 765.67 471.64 765.35 472.96 765.04 C 472.14 768.88 470.83 772.58 469.15 776.12 C 468.98 772.76 468.96 769.39 469.03 766.03 Z" />
</g>
<g id="#fcfcf8ff">
</g>
<g id="#fcfdfcff">
</g>
<g id="#fbfcfbff">
</g>
<g id="#fcfbfcff">
</g>
<g id="#fcfefcff">
</g>
<g id="#fbfefeff">
</g>
<g id="#fefffaff">
</g>
<g id="#fdfffaff">
</g>
<g id="#fdfffdff">
</g>
<g id="#fefefaff">
</g>
<g id="#fffffcff">
</g>
<g id="#fcfefeff">
</g>
<g id="#fefdf9ff">
</g>
<g id="#fdfcf9ff">
</g>
<g id="#fafdfcff">
</g>
<g id="#fbfbfaff">
<path fill="#fbfbfa" opacity="1.00" d=" M 405.08 957.20 C 411.07 957.13 417.06 957.17 423.05 957.24 C 419.22 959.40 415.69 962.80 411.17 963.22 C 408.74 961.66 406.97 959.33 405.08 957.20 Z" />
</g>
<g id="#393978ff">
<path fill="#393978" opacity="1.00" d=" M 595.32 1207.05 C 596.74 1205.92 598.46 1208.14 596.51 1208.84 C 595.08 1209.93 593.37 1207.73 595.32 1207.05 Z" />
</g>
<g id="#fffefdff">
</g>
<g id="#282a6aff">
<path fill="#282a6a" opacity="1.00" d=" M 444.93 1351.00 C 445.04 1347.22 444.35 1343.30 445.71 1339.67 C 446.34 1347.84 446.37 1356.11 445.67 1364.28 C 444.32 1359.96 445.08 1355.42 444.93 1351.00 Z" />
</g>
<g id="#fefdfeff">
</g>
</svg>
