<?xml version="1.0" encoding="UTF-8" standalone="no"?>
<!-- Created with Inkscape (http://www.inkscape.org/) -->

<svg
   xmlns:dc="http://purl.org/dc/elements/1.1/"
   xmlns:cc="http://creativecommons.org/ns#"
   xmlns:rdf="http://www.w3.org/1999/02/22-rdf-syntax-ns#"
   xmlns:svg="http://www.w3.org/2000/svg"
   xmlns="http://www.w3.org/2000/svg"
   xmlns:sodipodi="http://sodipodi.sourceforge.net/DTD/sodipodi-0.dtd"
   xmlns:inkscape="http://www.inkscape.org/namespaces/inkscape"
   width="1863.4193"
   height="1020"
   id="svg2"
   version="1.1"
   inkscape:version="0.48.2 r9819"
   sodipodi:docname="UADY.svg">
  <defs
     id="defs4" />
  <sodipodi:namedview
     id="base"
     pagecolor="#ffffff"
     bordercolor="#666666"
     borderopacity="1.0"
     inkscape:pageopacity="0.0"
     inkscape:pageshadow="2"
     inkscape:zoom="0.18289999"
     inkscape:cx="1158.9908"
     inkscape:cy="384.09783"
     inkscape:document-units="px"
     inkscape:current-layer="layer1"
     showgrid="false"
     fit-margin-top="10"
     fit-margin-bottom="10"
     fit-margin-left="10"
     fit-margin-right="10"
     inkscape:window-width="1366"
     inkscape:window-height="706"
     inkscape:window-x="-8"
     inkscape:window-y="-8"
     inkscape:window-maximized="1"
     showguides="true"
     inkscape:guide-bbox="true">
    <inkscape:grid
       type="xygrid"
       id="grid3036"
       empspacing="5"
       visible="true"
       enabled="true"
       snapvisiblegridlinesonly="true" />
  </sodipodi:namedview>
  <metadata
     id="metadata7">
    <rdf:RDF>
      <cc:Work
         rdf:about="">
        <dc:format>image/svg+xml</dc:format>
        <dc:type
           rdf:resource="http://purl.org/dc/dcmitype/StillImage" />
        <dc:title />
      </cc:Work>
    </rdf:RDF>
  </metadata>
  <g
     inkscape:label="Capa 1"
     inkscape:groupmode="layer"
     id="layer1"
     transform="translate(809.78568,-14.402779)">
    <g
       id="g2996"
       transform="matrix(0.99307908,0,0,0.99307908,703.80695,-58.169675)"
       style="fill:#2d2558;fill-opacity:1">
      <path
         style="fill:#2d2558;fill-opacity:1"
         d="m -1214.1648,1087.6617 c -14.9815,-7.8049 -18.3715,-28.3611 -6.5039,-39.4381 2.4166,-2.2557 2.5973,-3.0376 2.5973,-11.2384 l 0,-8.8141 -39.25,-0.2616 -39.25,-0.2616 -0.2498,-9 c -0.1374,-4.95 -0.4835,-10.0125 -0.7691,-11.25 l -0.5192,-2.25 -24.5124,0 c -20.3094,0 -24.6062,-0.2447 -25.0599,-1.4271 -0.3012,-0.7849 9.2014,-19.90689 21.1169,-42.49339 11.9155,-22.5864 21.502,-41.55397 21.3033,-42.15004 -0.1987,-0.59606 -7.0997,-3.75364 -15.3355,-7.01685 -43.4702,-17.22372 -75.2672,-37.55247 -104.5444,-66.83807 -23.8869,-23.89385 -39.2282,-45.71178 -54.4168,-77.38983 -8.5524,-17.83729 -14.7921,-33.99468 -20.3459,-52.68471 -5.0976,-17.15461 -5.5051,-19.26123 -4.7282,-24.44215 0.606,-4.04061 1.7644,-5.27224 22.7231,-24.15776 12.1465,-10.94505 22.9291,-20.97328 23.9612,-22.28495 1.6609,-2.11067 1.8749,-4.23762 1.8614,-18.5 -0.01,-8.86333 -0.3612,-16.65938 -0.784,-17.32456 -0.5682,-0.8941 -8.1251,-1.24255 -28.9847,-1.33649 -15.5188,-0.0699 -28.216,-0.36088 -28.216,-0.64667 0,-0.28579 1.2858,-2.15937 2.8574,-4.16352 3.1642,-4.03513 71.2229,-97.83778 72.5593,-100.0057 0.5245,-0.85088 0.3225,-1.6893 -0.5386,-2.23469 -0.758,-0.48009 -11.8406,-0.87978 -24.6281,-0.8882 l -23.25,-0.0153 0,-71 0,-71 19.3088,0 c 13.8853,0 19.7804,-0.35111 20.9873,-1.25 1.4479,-1.0783 1.7145,-3.7911 1.9412,-19.75 l 0.2627,-18.5 104.3782,-0.25465 104.3783,-0.25464 -0.5104,-10.74536 c -0.465,-9.78969 -0.8812,-11.61598 -4.68,-20.53461 -2.2933,-5.38409 -4.4356,-12.03479 -4.7607,-14.77934 -0.3676,-3.10453 -1.7514,-6.77382 -3.6622,-9.71074 -3.761,-5.78095 -4.2831,-12.75116 -1.2094,-16.14751 1.9153,-2.11643 1.9117,-2.18185 -0.375,-6.85499 -4.0089,-8.19266 -6.0588,-15.34665 -6.0588,-21.14481 0,-12.11452 7.8664,-31.67551 16.1851,-40.24626 6.3599,-6.5527 7.6149,-6.36914 7.6149,1.1138 0,7.689 2.0887,13.89814 9.5084,28.26615 5.7377,11.11073 6.0684,12.14219 6.494,20.25 0.2772,5.28082 0.07,8.54296 -0.543,8.54296 -0.5453,0 -1.9437,-2.5875 -3.1075,-5.75 -1.4897,-4.04792 -3.9004,-7.60912 -8.144,-12.0305 -3.3154,-3.45427 -7.6631,-8.7432 -9.6617,-11.75318 -4.5044,-6.78421 -5.6029,-6.19442 -7.928,4.25686 -1.1958,5.37447 -1.5168,9.90682 -1.11,15.66926 0.8544,12.10359 2.0468,15.23786 6.7001,17.61182 7.6633,3.9095 9.2336,1.75688 5.5093,-7.55241 -2.8688,-7.17075 -3.1925,-10.45185 -1.0311,-10.45185 0.87,0 2.9987,3.18666 5.1327,7.6836 2.4105,5.07964 5.3422,9.30978 8.6508,12.48203 4.3172,4.13929 4.8237,5.01651 3.6872,6.38593 -0.7246,0.87312 -2.1444,1.37126 -3.155,1.10698 -2.0359,-0.53241 -4.8022,1.70678 -4.8022,3.88721 0,1.72903 4.3268,4.04973 9.2845,4.97981 2.0435,0.38336 3.7155,1.00694 3.7155,1.38573 0,2.23751 -3.0934,3.08871 -11.2248,3.08871 -8.5526,0 -8.8548,0.0791 -9.8,2.5651 -2.2922,6.02891 -0.6737,10.4349 3.8332,10.4349 2.1424,0 2.3256,-0.30376 1.6589,-2.75 -1.2854,-4.71656 -1.0368,-6.45899 1.0327,-7.23749 3.6124,-1.35891 6.5,0.53317 6.5,4.2591 0,3.70445 3.9518,8.22047 9.75,11.14212 1.7875,0.9007 3.25,2.08721 3.25,2.6367 0,1.94742 -5.6053,3.10055 -13.5,2.77721 l -8,-0.32764 0.2244,6 c 0.1234,3.3 0.7446,9.51163 1.3806,13.80362 l 1.1562,7.80362 3.1194,-0.30362 c 3.0054,-0.29253 3.1303,-0.49222 3.4186,-5.46746 0.2608,-4.49883 -0.04,-5.47878 -2.3379,-7.60926 -3.71,-3.4401 -3.1139,-7.11525 1.2222,-7.5353 4.2803,-0.41465 5.4208,1.93335 6.0813,12.51981 l 0.5235,8.39213 3.6059,-0.30177 3.6058,-0.30177 0.3069,-5.38582 c 0.2674,-4.69101 -0.035,-5.74321 -2.3471,-8.15615 -3.4114,-3.56072 -2.6863,-6.95803 1.4851,-6.95803 4.3037,0 5.5002,2.35097 6.0551,11.89787 l 0.5,8.60213 6,0 6,0 0.3187,-3.32196 c 0.2855,-2.97559 0.1235,-3.21747 -1.5539,-2.31978 -2.5528,1.36623 -3.5656,0.44663 -5.661,-5.13997 -2.1064,-5.61609 -1.6081,-7.71829 1.8296,-7.71829 2.9221,0 4.5244,2.46697 4.6663,7.18426 0.1891,6.29103 1.6914,-1.0127 1.8006,-8.75379 0.099,-7.05057 0.091,-7.07337 -3.1495,-8.5 -4.6342,-2.04019 -4.6906,-4.46498 -0.1545,-6.6416 4.7162,-2.26306 7.5312,-6.04293 7.7404,-10.39354 l 0.1633,-3.39533 -9.287,-0.58697 c -9.5856,-0.60584 -12.677,-1.84754 -10.3647,-4.16303 0.7676,-0.76868 5.5219,-1.47211 12.3472,-1.82684 l 11.099,-0.57684 3.3527,-3.65847 c 5.7478,-6.27188 4.0697,-8.65072 -4.7656,-6.75589 -6.9762,1.49614 -27.7396,3.14179 -30.5957,2.42495 -1.2877,-0.32319 -2.2859,-1.33504 -2.2859,-2.3171 0,-1.45936 1.2875,-1.84266 7.9032,-2.35283 16.3378,-1.25988 22.2616,-4.64561 25.5734,-14.61656 0.9263,-2.78873 2.0714,-5.07042 2.5447,-5.07042 1.9682,0 1.9332,2.32928 -0.1424,9.47236 -1.206,4.15088 -1.9182,7.82173 -1.5825,8.15745 0.6959,0.69581 4.5395,-0.17946 6.555,-1.4927 1.9362,-1.26151 4.1147,-11.49246 4.1329,-19.40931 0.014,-5.96459 -0.4782,-7.75339 -4.1253,-15 -5.4788,-10.88593 -8.7145,-20.61756 -9.3468,-28.11128 -0.5255,-6.22679 0.961,-12.63169 3.0929,-13.32644 0.6326,-0.20618 2.4605,3.91559 4.2756,9.64141 1.7438,5.50085 5.7007,15.01835 8.7931,21.14999 5.3317,10.57172 5.6174,11.51755 5.5238,18.28348 -0.056,4.04634 -1.0691,10.59818 -2.3404,15.13504 -1.5721,5.61013 -2.1678,10.15457 -1.9942,15.21235 0.2464,7.17797 0.2282,7.23341 -3.8277,11.63345 -6.5293,7.08345 -12.1783,26.91007 -13.6477,47.89949 l -0.6822,9.74528 102.8973,0.25472 102.89729,0.25471 0.5,18.7885 c 0.4052,15.22655 0.7843,18.96788 2,19.73469 0.825,0.5204 11.51251,0.95308 23.75001,0.9615 l 22.25,0.0153 0,71 0,71 -23.25,0.0153 c -12.7875,0.008 -23.87021,0.40811 -24.62821,0.8882 -0.861,0.54539 -1.0631,1.38381 -0.5386,2.23469 1.3365,2.16792 69.39511,95.97057 72.55931,100.0057 1.5716,2.00415 2.8575,3.87883 2.8575,4.16595 0,0.28712 -13.147,0.57765 -29.2155,0.64563 -21.6585,0.0916 -29.4143,0.43669 -29.9846,1.33405 -0.4231,0.66576 -0.7762,8.03844 -0.7846,16.38374 -0.015,14.61067 0.074,15.27809 2.4018,18 1.3294,1.5547 13.6692,12.05173 27.4217,23.32673 13.7525,11.275 25.5062,21.56981 26.1194,22.87735 2.7129,5.78476 2.3107,10.22543 -2.3211,25.62265 -24.2253,80.53195 -62.5322,133.20695 -123.9888,170.49454 -13.6997,8.31207 -38.9176,21.06993 -54.4035,27.52299 -6.1903,2.57956 -11.488,5.06698 -11.7727,5.5276 -0.2847,0.46062 9.3926,19.55608 21.5051,42.43448 12.1125,22.8784 22.0228,41.98159 22.0228,42.45169 0,1.7839 -3.866,2.0687 -28.0818,2.0687 l -24.9182,0 0,10.3776 c 0,7.4459 -0.378,10.6912 -1.338,11.4879 -0.9168,0.7609 -13.4276,1.1929 -39.75,1.3725 l -38.412,0.262 -0.2935,7.8306 c -0.2912,7.767 -0.264,7.8634 3.3471,11.8604 4.907,5.4315 6.7511,10.1383 6.7893,17.3291 0.054,10.1027 -5.9351,18.9045 -15.6146,22.9489 -5.5649,2.3251 -14.3364,1.9024 -19.8217,-0.9552 z m 17.6923,-7.4193 c 6.226,-2.8275 8.9011,-7.2668 8.9011,-14.7712 0,-7.433 -1.9852,-10.7124 -8.5586,-14.1379 -16.6152,-8.6586 -31.4718,13.7233 -17.6671,26.6161 4.6189,4.3138 11.0118,5.1599 17.3246,2.293 z m -0.2059,-40.6763 c 0.3338,-0.87 0.607,-3.0832 0.607,-4.9182 0,-6.0033 -0.5813,-6.5 -7.607,-6.5 l -6.393,0 0,6.5 0,6.5 6.393,0 c 4.9071,0 6.5341,-0.3677 7,-1.5818 z m -86.2869,-25.5022 3.8939,-3.0841 0,-8.9159 c 0,-10.35929 -0.9082,-11.08899 -7.2722,-5.84319 l -3.7278,3.0728 0,8.92719 c 0,10.3448 0.6978,10.9186 7.1061,5.8432 z m 165.8939,-6.332 0,-8.41589 -3.8939,-3.0841 c -2.1417,-1.6962 -4.3917,-3.084 -5,-3.084 -0.7256,0 -1.1061,3.0716 -1.1061,8.92749 0,8.88 0.017,8.9412 3.25,11.4889 5.8236,4.5897 6.75,3.7893 6.75,-5.8324 z m -18,-10.08399 0.5,-11 19.7895,-0.2713 c 16.1333,-0.2211 19.8918,-0.5376 20.3428,-1.713 0.3043,-0.7929 -7.8135,-17.3407 -18.0396,-36.7729 -10.226,-19.43212 -18.5927,-35.83649 -18.5927,-36.45412 0,-0.61762 2.149,-1.58383 4.7755,-2.14712 6.1037,-1.30901 30.2273,-9.84753 41.0578,-14.53238 36.6471,-15.85206 63.2799,-33.57485 88.72209,-59.04009 32.25111,-32.28035 53.04281,-67.24337 68.72631,-115.56909 6.5442,-20.16487 8.6098,-16.33587 -21.7817,-40.37659 l -26.00001,-20.56686 -39.49999,0.22173 -39.5,0.22172 -0.3104,3.75 -0.3104,3.75 37.4301,0 37.43009,0 22.63031,17.98402 c 14.2545,11.32788 22.6303,18.64104 22.6303,19.75921 0,2.77214 -7.3468,24.78227 -12.3477,36.99234 -21.5457,52.60546 -55.2073,92.98906 -101.2395,121.45646 -23.2009,14.348 -63.8929,32.19316 -91.7102,40.21878 -3.1886,0.91994 -6.0417,2.30929 -6.3403,3.08746 -0.2987,0.77816 6.9678,15.61728 16.1476,32.97583 9.2314,17.4561 16.4405,32.2126 16.1311,33.0191 -0.4535,1.1817 -3.7427,1.5101 -17.3503,1.7324 l -16.7907,0.2744 -0.5,11 -0.5,11 -53.4355,0.2589 c -42.0858,0.2038 -53.6053,-0.01 -54.2347,-1 -0.4396,-0.6924 -0.8061,-5.8714 -0.8145,-11.5089 l -0.015,-10.25 -17.5,0 c -14.492,0 -17.5,-0.2453 -17.5,-1.4272 0,-0.7849 7.4396,-15.4974 16.5324,-32.6943 9.0928,-17.19698 16.3263,-31.80417 16.0745,-32.46046 -0.2518,-0.65628 -6.9039,-3.31082 -14.7824,-5.89899 -58.0803,-19.07999 -98.2735,-41.9567 -130.8799,-74.49287 -26.7156,-26.65796 -46.2686,-57.88486 -60.7539,-97.02618 -7.015,-18.95525 -9.3042,-27.50372 -7.8462,-29.29948 0.6355,-0.78273 10.0569,-8.68555 20.9365,-17.56183 l 19.781,-16.13869 34.862,0 c 37.272,0 36.3988,0.12434 35.1134,-5 l -0.6272,-2.5 -38.4551,-0.25713 -38.4551,-0.25714 -22.5,19.58046 c -12.375,10.76925 -22.6403,20.42069 -22.8118,21.44765 -0.3944,2.36212 4.5945,19.15979 9.9453,33.48616 15.2186,40.7467 35.6076,73.2474 63.3633,101.00316 19.7775,19.77749 43.3645,36.73792 69.3606,49.87432 21.1847,10.70515 28.1586,13.5498 63.3926,25.85777 3.1625,1.10473 5.75,2.57402 5.75,3.26509 0,0.69107 -8.1323,16.65259 -18.0717,35.47006 -9.9394,18.8175 -17.8286,34.8472 -17.5314,35.6216 0.4384,1.1424 4.13,1.408 19.5717,1.408 l 19.0314,0 0,10.8333 c 0,5.95839 0.3031,11.13649 0.6736,11.50699 0.3705,0.3704 31.083,0.5579 68.25,0.4166 l 67.5764,-0.2569 0.5,-10.99999 z m 67,-1.3998 c 0,-0.4949 -8.9226,-17.6748 -19.8281,-38.1776 l -19.828,-37.27782 -5.6996,-2.46146 c -3.1347,-1.3538 -5.9709,-2.19008 -6.3026,-1.8584 -0.3317,0.33168 7.6683,16.39608 17.7776,35.69868 l 18.3807,35.0956 6.9436,4.9404 c 6.9711,4.96 8.5564,5.7086 8.5564,4.0406 z m -258.627,-6.4865 6.127,-4.3864 17,-32.1997 c 9.35,-17.7099 17.1455,-32.83601 17.3233,-33.61367 0.421,-1.84091 -1.8396,-1.79134 -6.6829,0.14655 -3.7738,1.50997 -4.519,2.72388 -23.0202,37.49892 -10.5161,19.7662 -19.1202,36.1639 -19.1202,36.4395 0,1.3927 2.8439,0.073 8.373,-3.8852 z m 170.627,-12.1137 0.5,-11 14.75,-0.2767 c 9.887,-0.1855 14.75,-0.6392 14.75,-1.3761 0,-0.6046 -7.2,-14.7247 -16,-31.37797 -8.8,-16.65329 -16,-30.72264 -16,-31.26522 0,-0.54257 8.6625,-3.77901 19.25,-7.19207 24.1716,-7.79216 38.2168,-13.30166 57.25,-22.45747 46.2729,-22.25939 80.0612,-51.91478 106.02289,-93.05447 13.28331,-21.04921 33.27091,-68.38307 31.17841,-73.83588 -0.5628,-1.46674 -34.57531,-28.50284 -38.38561,-30.51223 -2.4657,-1.30033 -72.02589,-1.66428 -73.88439,-0.38658 -0.5878,0.40408 -2.7456,5.62375 -4.7951,11.59927 -13.3665,38.97031 -41.5202,71.07976 -78.1362,89.1149 -23.4454,11.54796 -39.1574,15.43904 -65.5,16.22117 -14.8767,0.44169 -19.3594,0.20255 -29.9034,-1.59529 -57.6579,-9.83116 -104.7223,-50.02514 -123.1742,-105.19338 -1.7314,-5.17659 -3.6597,-9.74259 -4.2852,-10.14667 -0.6255,-0.40408 -16.4499,-0.74158 -35.1654,-0.75 -33.6886,-0.0152 -34.0601,0.007 -37.2187,2.23469 -6.5135,4.59365 -31.16,25.29925 -31.7226,26.65032 -1.2791,3.07178 10.9156,35.63941 20.2571,54.09968 33.796,66.78556 87.0936,108.88222 173.2124,136.81041 8.525,2.76465 17.4125,5.53064 19.75,6.14665 2.3375,0.61602 4.25,1.6879 4.25,2.38198 0,0.69407 -7.2,14.91347 -16,31.59868 -8.8,16.68518 -16,30.71298 -16,31.17278 0,0.4598 6.6375,0.9606 14.75,1.1128 l 14.75,0.2767 0.2658,10 c 0.1462,5.5 0.4713,10.567 0.7224,11.2599 0.3602,0.9938 10.3354,1.205 47.2342,1 l 46.7776,-0.2599 0.5,-11 z m -73.2924,-3.1257 c -0.3892,-0.3892 -0.7076,-4.9552 -0.7076,-10.1466 0,-8.652 -0.2121,-9.691 -2.5431,-12.4613 l -2.5431,-3.0223 0.2931,-39.4613 0.2931,-39.4613 2.3608,-1.91075 c 2.1875,-1.77053 4.2525,-1.91075 28.1392,-1.91075 23.8864,0 25.9517,0.14023 28.1392,1.9107 l 2.3608,1.91069 0.3121,39.43871 0.3122,39.4387 -2.8122,3.3512 c -2.6091,3.1093 -2.7932,3.8964 -2.5494,10.9006 0.4224,12.1362 0.3865,12.1925 -7.5431,11.8444 l -6.7196,-0.295 -0.2803,-12.1829 c -0.2633,-11.4458 -0.1473,-12.3066 1.916,-14.2289 2.3617,-2.2003 3.695,-10.6422 2.4587,-15.56792 l -0.6455,-2.5721 -15.2245,0.27591 -15.2244,0.27591 -0.2913,7.1242 c -0.2625,6.4196 -0.037,7.4267 2.2823,10.1828 2.4897,2.9588 2.5644,3.4436 2.2913,14.8758 l -0.2823,11.8172 -6.5424,0.291 c -3.5983,0.16 -6.8608,-0.027 -7.25,-0.4167 z m 41.6565,-65.01387 c 1.2207,-8.90614 0.7507,-26.02022 -0.7487,-27.26465 -0.9444,-0.7838 -6.2695,-1.06116 -16.75,-0.87245 l -15.3654,0.27667 -0.2875,14 c -0.1582,7.7 -0.037,15.0125 0.269,16.25 0.548,2.21525 0.8013,2.25 16.4016,2.25 l 15.845,0 0.636,-4.63957 z m -95.8613,-31.6586 c -13.0167,-4.85724 -14.1123,-5.46751 -15.6418,-8.71246 -0.9046,-1.91915 -2.5934,-4.34661 -3.7529,-5.39436 -2.0749,-1.87496 -2.1081,-2.51378 -2.1081,-40.52749 0,-47.48747 -0.2773,-46.59536 12.3375,-39.69813 3.3894,1.85316 8.7234,4.39996 11.8534,5.65954 5.5469,2.23217 5.9583,2.67761 16.25,17.59347 5.8075,8.41681 10.5591,15.95721 10.5591,16.75642 0,2.0132 -7.7174,7.94362 -9.4647,7.27312 -0.784,-0.30088 -4.9978,-5.87904 -9.3638,-12.39591 -6.9076,-10.31054 -8.4292,-11.99955 -11.7199,-13.00949 -2.0799,-0.63834 -4.1574,-0.92839 -4.6166,-0.64456 -0.4593,0.28383 -0.835,11.02997 -0.835,23.88031 0,23.14474 0.022,23.39082 2.3785,26.19098 1.3082,1.5547 2.5512,3.7233 2.7622,4.81912 0.4083,2.12012 3.8026,4.14628 8.5299,5.09174 2.5635,0.51269 3.0768,0.16876 4.6397,-3.10877 1.6738,-3.51003 1.9341,-3.65357 5.4735,-3.01924 11.7115,2.09889 12.7011,3.01445 12.0358,11.13471 -0.2827,3.45007 -0.6633,3.9591 -3.2977,4.41069 -2.1978,0.37676 -3.2443,1.29493 -3.9943,3.5045 -1.209,3.56174 -3.2877,5.4325 -6.0276,5.42464 -1.1,-0.003 -8.2987,-2.35613 -15.9972,-5.22883 z m 130.9118,3.9362 c -0.2875,-0.74909 -0.3859,-3.98484 -0.2187,-7.19057 0.2946,-5.64635 0.4057,-5.85481 3.5541,-6.66662 l 3.25,-0.83802 0,-22.97141 c 0,-13.72668 -0.3797,-22.97141 -0.9433,-22.97141 -0.5188,0 -4.5688,4.10334 -9,9.11852 l -8.0567,9.11853 0,6.27449 c 0,6.89581 -0.5145,7.48846 -6.5,7.48846 -6.1829,0 -6.5,-0.4411 -6.5,-9.04051 l 0,-7.82653 7.1875,-8.81648 c 22.68,-27.82002 31.7864,-38.06037 34.9706,-39.32528 1.838,-0.73014 8.1887,-4.01314 14.1126,-7.29556 10.6435,-5.89752 10.7954,-5.94578 12.8524,-4.0842 4.0504,3.66551 4.8769,6.78181 4.8769,18.38779 l 0,11.09855 -4.25,1.92915 c -2.3375,1.06103 -5.2625,1.93903 -6.5,1.95111 -2.1212,0.0207 -2.25,-0.37894 -2.25,-6.97804 0,-4.09795 -0.4235,-7 -1.0215,-7 -1.2407,0 -8.6247,4.63972 -11.7285,7.36967 -2.2358,1.96646 -2.25,2.16153 -2.25,30.88111 l 0,28.90216 3.75,-0.17336 c 6.375,-0.29472 6.25,-0.41275 6.25,5.89798 0,3.50181 -0.5053,6.28193 -1.25,6.87799 -1.003,0.80273 -26.9808,7.24445 -29.2151,7.24445 -0.3287,0 -0.8329,-0.61289 -1.1203,-1.36197 z m 65.2343,-27.1824 c -0.3569,-2.60412 -0.6489,-5.95222 -0.6489,-7.44021 0,-1.488 -0.9,-3.51993 -2,-4.51542 -1.9366,-1.75253 -2,-3.07997 -2,-41.82325 l 0,-40.01327 11.2537,-11.58174 c 13.3438,-13.73263 17.8501,-19.49745 25.1187,-32.13385 5.3789,-9.35111 5.474,-9.44789 9.2811,-9.44789 l 3.8465,0 -0.2329,54 c -0.1281,29.7 -0.3531,58.25284 -0.5,63.45076 l -0.2671,9.45077 -5,3.7942 c -5.6958,4.32214 -6.1724,4.46454 -6.8764,2.05427 -0.7301,-2.49978 -0.7492,-20.12787 -0.034,-31 0.3349,-5.0875 0.2161,-9.25 -0.2641,-9.25 -0.8006,0 -12.0334,11.20764 -18.6349,18.59322 -2.4265,2.71468 -2.6823,3.60973 -2.09,7.31383 0.3712,2.32134 1.7559,5.81353 3.0771,7.76042 2.1005,3.09531 2.3658,4.48987 2.112,11.10544 l -0.2902,7.56562 -4.6063,2.827 c -2.5335,1.55485 -5.954,3.09653 -7.6011,3.42594 -2.9267,0.58536 -3.0094,0.49156 -3.6436,-4.13584 z m 22.084,-65.68776 10.2671,-10.23214 0,-15.76786 c 0,-8.67233 -0.3635,-15.76787 -0.8076,-15.76787 -0.4442,0 -5.6192,4.88275 -11.5,10.85056 l -10.6924,10.85055 0,13.56766 c 0,12.88359 0.4231,16.73123 1.8399,16.73123 0.3442,0 5.2461,-4.60446 10.893,-10.23213 z m -276.3786,61.67762 c -6.0304,-3.60497 -13.1895,-8.23456 -15.9093,-10.28798 -4.3938,-3.31727 -5.0043,-4.24417 -5.4765,-8.31455 -0.3412,-2.94147 -1.5939,-5.9701 -3.5,-8.46202 l -2.9685,-3.88094 -0.7507,-38 c -1.4001,-70.87355 -1.3947,-74 0.1277,-74 0.7573,0 4.4506,5.10847 8.2072,11.35215 3.7566,6.24368 8.6494,13.71024 10.873,16.59237 3.8937,5.04693 4.0422,5.51346 4.0275,12.64785 -0.02,9.76124 -0.9583,11.2652 -4.7567,7.62607 -1.5767,-1.51055 -3.173,-2.44014 -3.5474,-2.06577 -0.3743,0.37436 -0.6806,14.38862 -0.6806,31.1428 l 0,30.46213 3.5,3.87408 c 2.3544,2.60605 3.5,4.8519 3.5,6.86148 0,2.40815 0.921,3.66314 4.75,6.47233 5.4981,4.03379 7.976,4.44135 8.4304,1.38664 0.3136,-2.10769 1.5824,-3.17103 5.0696,-4.24859 1.6056,-0.49616 1.75,-2.60528 1.75,-25.56927 l 0,-25.02851 -3.5,-3.87408 c -3.4357,-3.80293 -3.5,-4.03408 -3.5,-12.58621 0,-4.79168 0.3558,-8.56214 0.7907,-8.3788 0.4349,0.18333 5.1652,3.92326 10.5117,8.31095 l 9.7209,7.97763 -0.2617,38.02237 -0.2616,38.02238 -3.2016,0.30975 c -2.1214,0.20524 -3.4099,0.96616 -3.8191,2.25539 -0.8638,2.72169 -5.403,7.93486 -6.909,7.93486 -0.6885,0 -6.1857,-2.94953 -12.216,-6.55451 z m 116.8564,-1.24429 c -5.9451,-7.64038 -27.2107,-38.13818 -27.2107,-39.024 0,-1.09971 8.5988,-9.1772 9.7694,-9.1772 1.7051,0 17.0248,10.09019 23.602,15.54524 l 6.8714,5.69904 -0.4436,7.66225 c -0.343,5.92581 -1.1909,9.28363 -3.7413,14.81689 -1.8138,3.93506 -3.8984,7.38513 -4.6325,7.66682 -0.7526,0.28881 -2.5906,-1.10189 -4.2147,-3.18904 z m 4.2127,-16.75212 c 0.8304,-3.30867 -1.7023,-6.878 -8.7247,-12.2958 -8.7463,-6.74771 -10.0943,-5.36791 -3.5556,3.63942 8.2418,11.35339 11.0981,13.36676 12.2803,8.65638 z m 21.3616,18.80092 c -0.8387,-0.9625 -3.1943,-5.486 -5.2346,-10.05221 -3.1413,-7.03014 -3.5558,-8.74375 -2.7051,-11.18395 1.2301,-3.52876 9.698,-15.94441 14.9292,-21.88918 3.6691,-4.1696 4.2939,-4.46208 13.2878,-6.21979 16.5839,-3.24107 19.414,-2.18124 12.5377,4.69513 -2.5059,2.50589 -4.281,3.40247 -6.75,3.40938 -4.0956,0.0115 -13.85,5.39702 -13.85,7.64677 0,1.34155 0.7698,1.51019 4.5368,0.99386 6.6511,-0.91164 7.1901,1.52712 1.4332,6.48532 -3.6212,3.11877 -5.2587,3.82572 -9.4263,4.06956 -4.7443,0.27759 -5.0634,0.46763 -5.3752,3.20121 -0.5365,4.70327 2.6232,10.48375 6.2388,11.4137 2.5769,0.66275 3.1467,1.35209 3.4169,4.13295 0.3969,4.08675 -0.8751,5.0118 -6.9192,5.03194 -3.1431,0.0105 -5.0769,-0.53765 -6.12,-1.73469 z m 175.0587,-44 c -0.3114,-8.83292 -0.6035,-10.08947 -3.1049,-13.35909 l -2.7613,-3.60908 0.2613,-41.39092 0.2612,-41.39091 7.1521,-0.29183 c 8.4596,-0.34519 6.4352,-2.48991 20.8056,22.04183 5.39649,9.2125 10.40729,16.75 11.13489,16.75 3.2852,0 10.6881,-20.22008 9.0069,-24.60116 -0.2813,-0.73313 -2.5557,-1.41673 -5.2963,-1.59187 l -4.8032,-0.30697 -0.2978,-6.25 -0.2977,-6.25 12.2977,0.0997 c 16.25021,0.13172 17.21961,0.43172 17.59331,5.44448 0.4032,5.41056 -6.4704,26.00948 -13.33281,39.95584 -4.8985,9.95516 -12.3292,20.5 -14.4459,20.5 -1.1909,0 -9.6769,-11.83958 -17.00169,-23.72065 -3.4656,-5.62136 -6.6867,-9.9823 -7.1581,-9.69099 -0.4714,0.2913 -0.857,10.26159 -0.857,22.15619 0,21.03995 0.061,21.69137 2.246,24.01734 1.8449,1.96383 2.3092,3.78041 2.5994,10.17161 l 0.3534,7.78079 -6.2141,6.64285 c -3.4177,3.65356 -6.5703,6.64284 -7.0057,6.64284 -0.4354,0 -0.9463,-4.3875 -1.1353,-9.75 z m -384.1191,-14.44823 c -3.5556,-4.56598 -9.2232,-12.51352 -12.5947,-17.66121 -5.3693,-8.19812 -6.1299,-9.95894 -6.1299,-14.19098 0,-5.53049 1.667,-7.33673 3.8026,-4.12027 0.7927,1.19388 2.0614,2.17069 2.8193,2.17069 1.7697,0 1.9215,-10.05662 0.1781,-11.8 -0.66,-0.66 -3.8275,-1.2 -7.0387,-1.2 -5.3894,0 -6.1379,-0.28863 -9.7255,-3.75 -2.4972,-2.4093 -5.2111,-6.78891 -7.5911,-12.25 -3.7136,-8.52142 -7.4228,-19.38357 -7.4371,-21.77903 -0.01,-0.98868 3.0002,-1.21568 13.2424,-1 l 13.25,0.27903 0,6 0,6 -3.5,0.3213 c -1.925,0.17671 -3.8612,0.67287 -4.3026,1.10258 -0.4414,0.42971 0.3264,3.33415 1.7063,6.45432 l 2.5089,5.67303 15.7937,-0.27562 15.7937,-0.27561 0,-5.99018 c 0,-5.87361 -0.058,-6.00029 -3,-6.50982 -2.9416,-0.50953 -3,-0.63621 -3,-6.50982 l 0,-5.99018 9.3507,-0.28886 c 6.035,-0.18643 9.8469,0.12294 10.75,0.87245 1.8707,1.55255 2.051,33.86469 0.1993,35.71641 -0.7387,0.73864 -4.3596,1.2 -9.4182,1.2 -4.5201,0 -8.9301,0.27314 -9.8,0.60699 -1.359,0.52149 -1.5818,3.07165 -1.5818,18.10564 0,17.28479 0.031,17.53559 2.5428,20.52058 2.2473,2.67079 2.5087,3.78217 2.25,9.56466 -0.171,3.81996 -0.7736,6.70148 -1.4481,6.9242 -0.6354,0.2098 -4.0645,-3.35433 -7.6201,-7.9203 z m 209.7754,-7.75111 c 47.9997,-4.00053 88.9738,-28.35093 114.9456,-68.3108 28.6669,-44.10653 31.9092,-100.83387 8.4614,-148.04202 -7.5567,-15.21414 -16.0975,-26.97319 -28.8646,-39.74091 -21.5752,-21.57634 -45.4357,-34.47312 -76.0424,-41.10143 -14.9413,-3.23574 -43.7275,-3.25762 -58.6478,-0.0446 -45.9923,9.90429 -83.3328,38.19458 -104.1189,78.88361 -11.0615,21.65302 -15.2186,38.29138 -15.9418,63.80548 -0.4305,15.18986 -0.1906,19.87432 1.5364,30.00575 11.4789,67.33975 66.8149,118.39554 134.8657,124.43396 12.5916,1.1173 11.7773,1.11351 23.8064,0.11095 z m -24,-8.63865 c -21.6963,-3.11946 -34.4028,-6.81771 -49.8262,-14.50201 -13.2827,-6.61775 -23.2659,-13.67257 -34.4489,-24.34387 -37.3485,-35.63966 -52.1244,-87.44853 -39.307,-137.82205 11.0528,-43.4384 42.6526,-79.31564 84.6105,-96.0638 15.7249,-6.2768 27.8697,-8.75601 45.9716,-9.38448 17.2673,-0.5995 28.1432,0.40483 41.1562,3.80055 52.5924,13.72395 92.0464,55.35772 103.4972,109.21524 2.9324,13.79223 3.1429,39.73688 0.4356,53.68841 -11.1006,57.20603 -55.0485,101.76609 -111.5535,113.10737 -9.1363,1.83378 -33.9846,3.24652 -40.5355,2.30464 z m 45.5072,-9.17741 c 26.419,-6.82923 46.3231,-18.46231 65.3378,-38.18703 18.029,-18.70227 29.3828,-40.61091 35.2644,-68.04757 2.4921,-11.62529 2.5263,-37.91483 0.065,-50.2699 -11.0418,-55.43568 -52.9558,-97.3504 -108.4049,-108.40686 -12.276,-2.4478 -37.5145,-2.38879 -49.7699,0.11636 -49.3371,10.08507 -88.2542,44.48956 -103.5037,91.50199 -4.7084,14.51527 -6.3385,25.52268 -6.3024,42.55841 0.036,16.90455 2.0685,28.99815 7.4274,44.18841 14.8584,42.11721 49.7078,74.48093 92.5134,85.91474 14.047,3.7521 19.4644,4.30902 38.3653,3.944 15.5049,-0.29943 18.8118,-0.67708 29.0072,-3.31255 z m -74.8805,-38.11396 c -11.0306,-14.78365 -20.7834,-27.15865 -21.6729,-27.5 -0.8896,-0.34135 -12.1556,-0.62064 -25.0356,-0.62064 -18.9727,0 -23.4182,-0.25582 -23.4182,-1.34763 0,-0.74119 3.3429,-8.49627 7.4286,-17.2335 4.7931,-10.24984 7.1034,-16.2778 6.5119,-16.99053 -0.5042,-0.60756 -2.8139,-1.67304 -5.1326,-2.36775 -2.3187,-0.6947 -6.8701,-3.06553 -10.1141,-5.26851 -4.6755,-3.17508 -6.375,-5.08344 -8.1981,-9.20573 -5.0396,-11.39549 -5.0745,-12.1375 -1.0402,-22.10623 6.1549,-15.20843 9.0468,-19.22415 18.5929,-25.81756 11.9385,-8.24586 18.4169,-11.86153 25.3757,-14.16256 5.807,-1.92018 6.0766,-2.15964 6.7545,-6 0.3884,-2.2 0.732,-6.9824 0.7637,-10.62756 0.059,-6.77253 0.8339,-8.33503 4.471,-9.01483 1.2056,-0.22535 3.2476,-2.98758 5.521,-7.46844 10.0324,-19.77373 25.3856,-31.75898 46.0464,-35.9454 30.1073,-6.10052 56.6727,8.3578 74.1819,40.37376 2.0235,3.70002 6.5642,5.169 16.0019,5.17689 5.0284,0.004 8.7109,0.77729 15,3.14898 4.5845,1.72887 8.9309,3.61127 9.6586,4.1831 3.2227,2.53252 5.4725,9.53275 7.2657,22.60739 l 1.8606,13.56611 -5.1317,23.5 -5.1317,23.5 -4.4406,4.63342 c -5.2031,5.42905 -6.0417,2.58833 7.3854,25.01687 5.153,8.60766 9.3692,16.14516 9.3692,16.75 0,0.77725 -9.6113,1.09971 -32.7775,1.09971 -29.2373,0 -33.0446,0.18393 -35.25,1.70297 -1.3599,0.93664 -16.0962,13.31164 -32.7475,27.5 -16.6512,14.18837 -30.6726,25.79703 -31.1587,25.79703 -0.4862,0 -9.909,-12.09571 -20.9396,-26.87936 z m 25.6733,18.67936 c 2.0673,-2.06731 1.3346,-2.8 -2.8,-2.8 -3.7709,0 -5.2188,1.44792 -3.3334,3.33333 1.0866,1.08655 4.8399,0.76018 6.1334,-0.53333 z m 9.6616,-8.1483 c 3.672,-2.68501 0.7702,-3.6517 -10.9616,-3.6517 -11.5135,0 -13.8144,0.71129 -11.4637,3.5438 1.6461,1.98335 19.7414,2.07041 22.4253,0.1079 z m 8.9733,-7.62695 c 1.4108,-0.53639 2.5651,-1.66139 2.5651,-2.5 0,-1.31675 -2.7966,-1.52475 -20.5,-1.52475 -20.9748,0 -22.7504,0.3496 -19.3,3.8 1.4905,1.49049 33.3992,1.68309 37.2349,0.22475 z m 11.0267,-9.37305 c 4.3587,-3.18712 0.917,-3.6517 -27.052,-3.6517 -24.2672,0 -27.5441,0.18678 -28.0867,1.60092 -0.3379,0.88051 0.014,1.99862 0.7814,2.48469 0.7676,0.48607 12.8972,0.89066 26.9545,0.89908 19.8817,0.0119 25.9685,-0.28418 27.4028,-1.33299 z m 10.3384,-8.8517 c 0.66,-0.66 1.2,-1.56 1.2,-2 0,-0.44 -16.425,-0.8 -36.5,-0.8 -29.75,0 -36.5,0.24658 -36.5,1.33333 0,0.73334 0.3,1.63334 0.6666,2 0.3667,0.36667 16.2517,0.66667 35.3,0.66667 25.6037,0 34.9462,-0.31286 35.8334,-1.2 z m -36.8643,-7.7391 c 1.1898,-0.7529 1.2117,-1.17839 0.1275,-2.48468 -1.9397,-2.33726 -41.0632,-2.37918 -41.0632,-0.044 0,0.84273 1.0125,1.9392 2.25,2.43662 2.9526,1.18679 36.8282,1.26741 38.6857,0.0921 z m 43.9853,-0.32564 c 1.3316,-0.67939 2.6066,-1.79776 2.8333,-2.48526 0.6775,-2.05383 -21.1007,-1.74248 -22.8176,0.32622 -1.0841,1.30629 -1.0623,1.73178 0.1276,2.48468 2.1287,1.34703 17.0582,1.10219 19.8567,-0.32564 z m -26.1214,-2.14025 c 1.4852,-0.77274 3.7913,-2.57274 5.1247,-4 l 2.4243,-2.59501 45.3257,0 c 42.5204,0 45.3224,-0.10831 45.2737,-1.75 -0.029,-0.9625 -4.0377,-8.5 -8.909,-16.75 l -8.857,-15 -11.341,-0.16834 c -7.0252,-0.10427 -10.3897,0.14321 -8.841,0.65032 1.375,0.45027 4.3,0.87041 6.5,0.93365 2.2,0.0633 4.4886,0.4456 5.0859,0.84968 2.0171,1.36468 10.6112,18.27845 10.0417,19.76269 -0.8238,2.14667 -14.3308,1.92152 -36.715,-0.61199 -26.83,-3.0367 -39.6075,-1.71042 -47.9261,4.9746 l -3.737,3.00313 -3.8748,-2.83376 c -7.0094,-5.12626 -12.4732,-6.42223 -26.8747,-6.3745 -7.15,0.0237 -18.6116,0.77916 -25.4702,1.6788 -15.9879,2.09715 -30.876,2.20009 -31.6363,0.21876 -0.2991,-0.77933 1.331,-5.45211 3.6225,-10.38395 4.7631,-10.25166 4.4864,-10.10597 19.484,-10.25837 4.4,-0.0447 8.9,-0.46803 10,-0.94072 1.2138,-0.52161 -5.5667,-0.88706 -17.25,-0.92971 -18.092,-0.0661 -19.25,0.0411 -19.25,1.78068 0,1.01803 -2.7,7.83509 -6,15.14903 -3.3,7.31394 -6,14.131 -6,15.14903 0,1.77378 1.8702,1.85097 44.845,1.85097 44.5844,0 44.8561,0.0124 46.75,2.14318 4.9441,5.56226 12.513,7.41319 18.2046,4.45183 z m -0.7165,-41.14747 c 2.6016,-1.64234 3.9268,-3.15773 3.7164,-4.25 -0.2783,-1.44513 -1.6507,-1.69754 -9.2299,-1.69754 -10.5188,0 -11.5669,1.04064 -5.485,5.44632 5.1156,3.70575 5.8679,3.74003 10.9985,0.50122 z m -48.4894,-3.59924 c 0.3915,-0.63344 -0.1268,-1.7649 -1.1517,-2.51435 -1.495,-1.09317 -7.804,-1.31037 -31.9028,-1.0983 -18.5684,0.16341 -30.0392,0.63493 -30.0392,1.23482 0,0.53375 1.125,1.53962 2.5,2.23526 3.4103,1.72534 59.5339,1.85739 60.5937,0.14257 z m 24.3868,-0.70937 8.4805,-0.63893 0.6622,-4.5 c 2.3112,-15.70469 3.1065,-25.7545 2.5546,-32.28314 -0.8099,-9.58162 -1.2206,-10.52833 -4.4928,-10.35725 -3.4559,0.1807 -4.4277,-1.59412 -1.2797,-2.33727 3.9476,-0.9319 4.8822,-3.49015 2.4609,-6.73631 -4.8972,-6.56528 -7.1308,-3.48633 -8.3496,11.50958 -0.8782,10.80506 -3.4599,20.18547 -5.767,20.95453 -0.7845,0.26149 -1.2496,-0.54504 -1.2496,-2.16681 0,-2.30433 -0.9205,-3.06956 -3.25,-2.70175 -0.4125,0.0651 -0.75,-0.48684 -0.75,-1.22659 0,-0.73976 -0.9563,-2.20226 -2.125,-3.25 -4.648,-4.16676 -13.7274,-16.20916 -16.1383,-21.40499 -1.4518,-3.12896 -3.2703,-10.02653 -4.2182,-16 -2.062,-12.99452 -2.2556,-13.68514 -4.0277,-14.36513 -2.0993,-0.80559 -4.4908,2.07253 -4.4908,5.40462 0,2.11658 0.7127,3.27008 2.6466,4.28336 l 2.6467,1.38672 -2.6467,0.66427 c -2.5361,0.63653 -2.6466,0.94694 -2.6466,7.4336 0,6.7514 2.0546,14.51904 5.0994,19.27871 2.5364,3.96495 4.914,10.78754 3.9639,11.37472 -1.1477,0.70933 -7.4471,-12.31825 -9.4845,-19.61478 -0.8736,-3.1284 -1.5788,-9.46727 -1.5788,-14.19098 0,-8.74402 -0.6259,-10.22602 -3.8821,-9.19255 -1.6059,0.50969 -1.9589,2.07734 -2.5479,11.31455 -0.5913,9.27164 -0.4046,11.62138 1.3789,17.36156 3.5271,11.35186 6.4407,16.80121 18.5718,34.73446 l 11.7522,17.37313 5.1135,-0.7342 c 2.8125,-0.40381 8.9298,-1.02172 13.5941,-1.37313 z m 108.4811,0.51277 c 4.2538,-3.11041 0.852,-3.6517 -22.9492,-3.6517 -19.9694,0 -23.5996,0.22997 -24.9502,1.58062 -0.8693,0.86934 -1.3249,1.99434 -1.0124,2.5 0.3192,0.51652 10.756,0.91938 23.8181,0.91938 17.9255,0 23.6721,-0.30877 25.0937,-1.3483 z m -42.4616,-15.7457 c 12.3199,-15.58986 15.8424,-21.56443 20.0128,-33.9441 1.8821,-5.58702 2.0924,-8.24204 1.895,-23.93158 -0.1221,-9.70606 -0.5868,-18.63354 -1.0327,-19.83885 -1.0405,-2.81274 -3.336,-2.79934 -5.3184,0.031 -2.5509,3.64189 -1.9532,7.52807 1.6661,10.83386 2.8998,2.64858 3.0108,2.94363 1.107,2.94363 -2.7628,0 -3.3166,1.68583 -3.394,10.33179 -0.035,3.94251 -0.5979,9.64321 -1.25,12.66821 -1.2215,5.66553 -7.6027,19.92971 -8.9358,19.97469 -1.4825,0.05 -0.697,-2.87245 2.307,-8.58303 2.9806,-5.66631 5.9424,-17.66998 5.9428,-24.08496 10e-5,-2.16637 -0.7146,-3.69391 -2.2223,-4.75 l -2.2225,-1.5567 2.2225,-1.5567 c 2.5695,-1.79978 2.867,-5.07806 0.7368,-8.11932 -1.3141,-1.87624 -1.3141,-2.18683 0,-2.69112 1.4432,-0.55379 2.1602,-4.63286 0.8144,-4.63286 -1.4405,0 -4.1682,3.25478 -3.7158,4.43374 0.263,0.68521 -0.2174,1.82303 -1.0674,2.52849 -0.8501,0.70546 -1.5455,2.76964 -1.5455,4.58706 0,3.61403 -6.3215,28.31435 -8.0941,31.62645 -0.606,1.13241 -3.9828,5.36223 -7.5039,9.3996 -3.5211,4.0374 -6.402,7.8096 -6.402,8.3827 0,0.5731 -0.9,1.042 -2,1.042 -1.1,0 -2,-0.26059 -2,-0.57908 0,-0.3185 2.925,-3.93287 6.5,-8.03195 6.3748,-7.3094 8.445,-12.1041 4.75,-11.00158 -0.9625,0.2872 -3.873,1.04229 -6.4677,1.67798 -3.3806,0.82822 -4.8992,1.76216 -5.3579,3.29521 -1.1253,3.76114 -4.8898,11.63942 -5.5616,11.63942 -1.2241,0 -1.766,-2.92398 -2.4471,-13.20427 -0.8051,-12.1524 -1.5278,-14.03404 -5.2256,-13.60566 -5.7384,0.66478 -6.349,9.80993 -0.6549,9.80993 3.9323,0 2.8479,1.84756 -1.2852,2.18963 l -3.75,0.31037 -0.5479,10.5 c -0.3499,6.70525 -0.069,13.21054 0.7767,18 0.7285,4.125 1.74,9.86901 2.2478,12.76448 0.5078,2.89546 1.1316,5.59546 1.3863,6 0.2547,0.40453 5.5647,0.78586 11.8001,0.84739 l 11.337,0.11186 12.5,-15.81773 z m -24.3334,-10.57267 c -1.2579,-1.25797 -0.6665,-4.33333 0.8334,-4.33333 0.9333,0 1.5,0.94444 1.5,2.5 0,2.42787 -0.9738,3.19294 -2.3334,1.83333 z m -71.1396,18.62287 c 0.3549,-0.5741 0.1013,-1.6991 -0.5634,-2.5 -1.8073,-2.17767 -66.9636,-2.18339 -66.9636,-0.006 0,0.79767 0.7875,1.90899 1.75,2.46959 2.4263,1.41323 64.9048,1.4477 65.777,0.0363 z m 54.3687,0.12941 c 0.7676,-0.48607 1.1193,-1.60418 0.7814,-2.48469 -0.4677,-1.21861 -2.0291,-1.60092 -6.5388,-1.60092 -6.0515,0 -8.2701,1.46824 -5.8602,3.87814 1.3273,1.32726 9.6154,1.47527 11.6176,0.20747 z m 89,0 c 0.7676,-0.48607 1.1192,-1.60418 0.7814,-2.48469 -0.5391,-1.40481 -3.482,-1.60092 -24.0233,-1.60092 -19.275,0 -23.6224,0.25716 -24.6175,1.4562 -0.6647,0.8009 -0.9182,1.9259 -0.5634,2.5 0.8019,1.29754 46.3856,1.41937 48.4228,0.12941 z m -148.8957,-9.97862 c 0,-1.04116 -0.7118,-2.16616 -1.5818,-2.5 -0.87,-0.33385 -15.495,-0.60699 -32.5,-0.60699 -29.8035,0 -30.9182,0.0691 -30.9182,1.91667 0,1.05416 0.5625,2.14364 1.25,2.42105 0.6875,0.27741 15.3125,0.53991 32.5,0.58333 30.0224,0.0758 31.25,0.005 31.25,-1.81406 z m 59.6771,0.29209 c 0.8401,-2.18925 -1.3736,-3.36552 -6.3681,-3.38377 -4.3662,-0.0159 -5.8756,1.06581 -4.929,3.53258 0.8221,2.14242 10.4666,2.01538 11.2971,-0.14881 z m 91.2186,0.68653 c 0.7676,-0.48607 1.1192,-1.60418 0.7814,-2.48469 -0.5363,-1.39743 -3.2785,-1.60092 -21.5743,-1.60092 -17.7729,0 -21.2003,0.24034 -22.5406,1.58062 -0.8693,0.86934 -1.3249,1.99434 -1.0124,2.5 0.7292,1.17987 42.483,1.18458 44.3459,0.005 z m -157.4658,-8.9723 c 0.3015,-0.48768 -0.1383,-1.45629 -0.9771,-2.15247 -1.9102,-1.58532 -54.1665,-2.62816 -56.3485,-1.1245 -0.7677,0.529 -1.1193,1.68223 -0.7814,2.56274 0.5434,1.41603 3.9026,1.60092 29.0867,1.60092 15.6598,0 28.7189,-0.39901 29.0203,-0.88669 z m 160.3844,-1.38426 c 0.318,-1.65474 -0.9927,-1.75317 -19.974,-1.5 -18.5198,0.24701 -20.3444,0.42739 -20.6547,2.0419 -0.318,1.65474 0.9928,1.75317 19.974,1.5 18.5198,-0.24701 20.3444,-0.42739 20.6547,-2.0419 z m -101.8143,-7.72905 c 0,-7.33333 -0.2778,-9 -1.5,-9 -1.2134,0 -1.5,1.59259 -1.5,8.33333 0,4.58334 0.3,8.63334 0.6666,9 1.8057,1.80568 2.3334,-0.0788 2.3334,-8.33333 z m 6.3082,-0.60821 c 0.1563,-6.4335 -0.085,-7.89179 -1.3082,-7.89179 -1.1716,0 -1.565,1.62159 -1.797,7.40642 -0.3272,8.16083 0.2508,11.03971 1.888,9.40259 0.5639,-0.56398 1.1117,-4.57673 1.2172,-8.91722 z m -28.8423,0.85821 c -0.4114,-0.9625 -1.7566,-4.45 -2.9893,-7.75 -2.1012,-5.62486 -2.5457,-6.11354 -7.109,-7.81603 -2.6772,-0.99882 -5.2951,-2.23632 -5.8176,-2.75 -1.2346,-1.21375 -3.55,-1.20454 -3.55,0.0141 0,1.32539 9.4704,12.88161 13.7693,16.80192 3.9405,3.59347 6.9277,4.38003 5.6966,1.5 z m -40.6563,-1 c -0.31,-1.60981 -2.2974,-1.75 -24.8096,-1.75 -22.5122,0 -24.4996,0.14019 -24.8097,1.75 -0.3137,1.62921 1.3988,1.75 24.8097,1.75 23.4109,0 25.1234,-0.12079 24.8096,-1.75 z m 166.6904,-0.25 c 0,-1.27774 -2.6652,-1.5 -17.9863,-1.5 -16.4231,0 -18.016,0.15408 -18.3278,1.77286 -0.3183,1.65296 0.8981,1.75441 17.9863,1.5 15.5034,-0.23081 18.3278,-0.50401 18.3278,-1.77286 z m -122.6654,-7.12445 c -0.3846,-2.70662 -3.8346,-3.95103 -3.8346,-1.38313 0,0.90148 0.4917,2.55779 1.0926,3.68068 1.3762,2.57142 3.215,1.0307 2.742,-2.29755 z m -48.3346,-1.37555 c 0,-1.92474 -0.7568,-2.01017 -20.1108,-2.27026 -17.4141,-0.23402 -20.2884,-0.0562 -21.4357,1.32621 -2.437,2.9364 0.9873,3.44341 21.5465,3.19029 19.2512,-0.23702 20,-0.32111 20,-2.24624 z m 172.4636,1.0438 c 2.5141,-3.02923 0.051,-3.5438 -16.9636,-3.5438 -16.8897,0 -18.8315,0.39097 -17.62,3.54789 0.8223,2.14298 32.8048,2.1392 34.5836,-0.004 z m -80.5063,-1.6129 c -0.8573,-1.38704 -1.4573,-1.12841 -1.4573,0.62812 0,0.85746 0.4573,1.27636 1.0163,0.9309 0.559,-0.34546 0.7574,-1.04702 0.441,-1.55902 z m -24.6723,-13.17861 -0.285,-10.24772 -5.7149,-0.71194 c -3.1432,-0.39156 -8.2845,-1.38295 -11.4251,-2.20308 -3.1406,-0.82013 -6.0814,-1.26172 -6.5351,-0.98133 -1.3358,0.82557 -0.9997,19.81704 0.3751,21.19178 2.6166,2.61667 4.5489,1.35986 5.2665,-3.42556 1.7848,-11.90183 12.0564,-11.24096 14.0659,0.905 0.8466,5.11684 1.1697,5.72056 3.0616,5.72056 1.2238,0 1.4273,-1.75074 1.191,-10.24771 z m 8.1399,4.46944 c 2.1017,-6.2082 4.5771,-9.22173 7.5751,-9.22173 3.1967,0 5.4013,3.00087 6.1345,8.35039 0.743,5.42041 2.0795,6.76116 4.0516,4.06425 0.9924,-1.35732 1.3024,-4.43401 1.0982,-10.90278 -0.3261,-10.33719 1.2798,-9.3708 -13.2843,-7.99418 -4.4,0.41589 -8.5625,1.19965 -9.25,1.74169 -1.3388,1.05551 -1.8328,17.82453 -0.5625,19.0948 1.3684,1.36845 2.5011,-0.003 4.2374,-5.13244 z m -78.0292,2.86388 c 0.7676,-0.48607 1.1193,-1.60418 0.7814,-2.48469 -0.9172,-2.39023 -28.1386,-2.36684 -31.5565,0.0271 -1.8212,1.27561 -2.0317,1.81348 -0.9725,2.48469 1.7875,1.13269 29.9539,1.10863 31.7476,-0.0271 z m 175.5225,0.3074 c 0.87,-0.33384 1.5818,-1.45884 1.5818,-2.5 0,-1.78059 -0.9764,-1.89301 -16.441,-1.89301 -16.4452,0 -18.3866,0.40094 -17.179,3.54789 0.4527,1.17988 3.3599,1.45211 15.5068,1.45211 8.2223,0 15.6614,-0.27314 16.5314,-0.60699 z m -61.0161,-4.07828 c 2.9039,-1.62514 6.6856,-12.76178 7.3227,-21.56473 0.3822,-5.28078 0.2128,-7.75 -0.5318,-7.75 -0.601,0 -3.0278,1.30259 -5.3929,2.89464 -2.3651,1.59205 -6.8876,4.16079 -10.0501,5.70831 l -5.75,2.81369 0,10.20834 c 0,7.27277 0.3594,10.33088 1.25,10.63444 1.5405,0.52511 10.5606,-1.49445 13.1521,-2.94469 z m -72.6183,-9.05692 -0.2838,-10.74219 -9.9141,-5.2937 c -5.4528,-2.91154 -10.2377,-4.94005 -10.6331,-4.50781 -0.8485,0.92749 0.6569,14.41234 2.1116,18.91497 1.2388,3.83447 3.0026,5.48187 9.9968,9.33693 8.9348,4.92472 9.0536,4.81976 8.7226,-7.7082 z m -42.4503,3.3153 c 1.0442,-2.7211 -2.0289,-3.80709 -9.6799,-3.42074 -7.0651,0.35678 -11.2863,2.0149 -10.0836,3.96094 0.3014,0.48768 4.7483,0.88669 9.882,0.88669 7.1618,0 9.4614,-0.33206 9.8815,-1.42689 z m 177.1935,0.38309 c 0.3548,-0.5741 0.1013,-1.6991 -0.5634,-2.5 -0.9582,-1.15453 -4.2652,-1.4562 -15.9636,-1.4562 -11.6985,0 -15.0055,0.30167 -15.9637,1.4562 -2.491,3.00146 -0.048,3.5438 15.9637,3.5438 9.9536,0 16.1227,-0.38963 16.527,-1.0438 z m -178.1088,-6.56319 c 2.3951,-0.91908 1.9055,-3.39497 -0.6682,-3.37936 -3.8178,0.0232 -6.75,1.15391 -6.75,2.60298 0,1.44108 4.4675,1.90865 7.4182,0.77638 z m 176.3925,-3.14301 c -0.299,-1.55821 -1.9699,-1.78044 -15.2456,-2.02772 -8.3895,-0.15627 -15.321,0.13361 -15.8503,0.66287 -2.4593,2.45928 0.8908,3.11485 15.9175,3.11485 14.2368,0 15.4867,-0.1441 15.1784,-1.75 z m -104.8107,-14.23095 0,-11.98095 -2.75,-0.57588 c -1.5125,-0.31673 -5.7782,-1.30963 -9.4793,-2.20644 -3.7011,-0.89681 -6.9921,-1.36778 -7.3132,-1.04661 -0.9863,0.98627 -3.3761,10.97716 -4.0526,16.94247 -0.5734,5.05588 -0.4218,5.76894 1.4381,6.76434 3.1363,1.67853 13.1094,3.90666 17.907,4.00071 l 4.25,0.0833 0,-11.98095 z m 20.0196,10.88332 c 2.8149,-0.6037 5.3592,-1.72612 5.654,-2.49427 0.7607,-1.98244 -2.7569,-21.23229 -4.0806,-22.3309 -0.6655,-0.55234 -3.0723,-0.51363 -6.0963,0.098 -2.7482,0.55587 -6.5717,1.32233 -8.4967,1.70323 l -3.5,0.69254 -0.287,10.39689 c -0.1579,5.71829 -0.06,10.98981 0.2186,11.7145 0.6312,1.64479 9.402,1.7611 16.588,0.21997 z m 82.4804,-5.40237 c 0,-1.89084 -0.7598,-2.01525 -13.9207,-2.27933 -14.314,-0.28722 -17.0343,0.3213 -14.5919,3.26422 1.0891,1.31225 3.5338,1.52419 14.9076,1.29239 12.8459,-0.26181 13.605,-0.38887 13.605,-2.27728 z m -65.7168,-0.90707 c 8.1737,-4.17123 13.2168,-8.36213 13.2168,-10.98341 0,-3.40989 -7.8297,-18.60952 -9.5862,-18.60952 -0.8041,0 -3.8137,1.5621 -6.6879,3.47133 -9.5592,6.3497 -8.869,4.68688 -6.6523,16.02867 2.8455,14.55902 2.224,13.91301 9.7096,10.09293 z m -62.0086,-10.84293 2.2444,-11.25 -2.6729,-2 c -1.4701,-1.1 -4.6283,-3.4625 -7.0182,-5.25 -2.3899,-1.7875 -4.7724,-3.25 -5.2944,-3.25 -1.2427,0 -5.7363,7.71948 -8.611,14.79234 -1.6403,4.036 -2.0098,6.11026 -1.3186,7.40192 1.2305,2.29922 15.7077,10.80574 18.3902,10.80574 1.7943,0 2.3024,-1.33536 4.2805,-11.25 z m -35.3448,3.77216 c 0.5252,-2.79908 0.9436,-3.17343 3.0888,-2.76335 1.7463,0.33383 2.4814,0.0317 2.4814,-1.01979 0,-1.91209 -2.6046,-4.10142 -3.9155,-3.29123 -0.5518,0.34098 -1.8619,0.0837 -2.9114,-0.57173 -3.6204,-2.26099 -5.1731,-0.48232 -5.1731,5.92589 0,3.22559 0.2699,6.13461 0.5997,6.46449 1.4392,1.43915 5.2522,-1.66373 5.8301,-4.74428 z m 160.124,1.39071 c 1.4453,-2.33847 -1.9147,-3.42202 -11.6539,-3.7582 -5.5023,-0.18994 -11.1057,-0.0689 -12.452,0.26905 -2.58,0.64754 -3.3179,3.05856 -1.1979,3.914 2.5693,1.03674 24.6294,0.66635 25.3038,-0.42485 z m -14.0538,-6.91287 c -0.34,-0.55 -3.2915,-1 -6.5591,-1 -3.2939,0 -5.9409,0.44555 -5.9409,1 0,0.56503 2.853,1 6.559,1 4.118,0 6.329,-0.37216 5.941,-1 z m -28.5133,-11.87354 c -1.7877,-3.35396 -4.7327,-7.79199 -6.5445,-9.86229 l -3.2943,-3.76417 -2.302,2.25585 c -2.2499,2.20468 -2.2617,2.31809 -0.5202,5 0.9801,1.50928 3.2336,5.66915 5.0079,9.24415 4.9389,9.95139 4.5121,9.6158 7.9095,6.21843 l 2.9938,-2.99387 -3.2502,-6.0981 z m -106.5961,5.52068 c 0.9143,-2.39407 3.2255,-6.94859 5.1359,-10.12115 3.918,-6.50658 4.084,-7.35919 1.9629,-10.08486 -1.4599,-1.87605 -1.6307,-1.80702 -5.0952,2.05887 -3.8777,4.32699 -9.3942,14.39369 -9.3942,17.14274 0,2.02409 2.8117,5.35726 4.5191,5.35726 0.665,0 1.9572,-1.95879 2.8715,-4.35286 z m 64.3018,-2.17178 c 6.4913,-0.97808 6.7778,-1.97988 3.4222,-11.96566 -1.6132,-4.80044 -3.3557,-9.15079 -3.8724,-9.66745 -0.5579,-0.55793 -2.9296,-0.60655 -5.8408,-0.11973 l -4.9014,0.81964 -0.2875,9.83133 c -0.32,10.9446 0.4789,13.0238 4.6968,12.2245 1.4249,-0.27002 4.4773,-0.7752 6.7831,-1.12263 z m -14.9086,-10.17776 -0.2838,-10.70239 -4.8601,-1.50735 c -4.5595,-1.41415 -4.9441,-1.39237 -6.2198,0.35231 -2.1244,2.9053 -6.6138,15.31555 -6.2409,17.25199 0.3778,1.9618 9.244,5.14702 14.6046,5.24675 l 3.2838,0.0611 -0.2838,-10.7024 z m 34.0963,1.14982 c 1.7159,-1.44386 3.1199,-3.2057 3.1199,-3.91519 0,-1.9483 -13.7651,-14.53223 -15.8963,-14.53223 -3.1814,0 -4.5694,2.62293 -3.3285,6.28988 1.881,5.55817 5.6913,15.15841 6.5315,16.45645 0.9672,1.49417 4.6588,-0.16353 9.5734,-4.29891 z m -53.6177,-2.03061 c 0.9699,-2.70425 2.7418,-7.07003 3.9378,-9.70174 l 2.1744,-4.78492 -2.1542,-2.15413 -2.1541,-2.15414 -5.2981,3.64897 c -7.1493,4.92387 -12.1737,10.23004 -11.4566,12.09891 0.7208,1.87841 10.8121,8.75565 12.179,8.30002 0.5547,-0.18489 1.802,-2.54873 2.7718,-5.25297 z m 63.0724,-7.58299 c 1.3971,-2.21861 -0.067,-3.89155 -8.7334,-9.97751 -6.8372,-4.80158 -11.6014,-6.21486 -11.6014,-3.44148 0,0.77816 2.1375,2.99213 4.75,4.91993 2.6125,1.92781 6.3138,5.12962 8.2252,7.11513 3.647,3.78854 5.6127,4.15816 7.3596,1.38393 z m -75.9426,-4.13885 c 2.8093,-2.36777 6.6828,-5.38359 8.6078,-6.70182 4.2163,-2.88732 5.2023,-4.19083 4.0452,-5.34788 -1.0903,-1.09036 -10.1006,3.03642 -15.7952,7.2343 -4.0127,2.95804 -5.5209,6.51619 -3.5834,8.45376 1.0559,1.0559 1.3352,0.90485 6.7256,-3.63836 z m 32.6078,-7.19497 c 0,-4.01218 -0.3737,-5.5 -1.3813,-5.5 -1.4572,0 -6.6187,6.14798 -6.6187,7.88359 0,1.41145 3.0521,3.04954 5.75,3.086 2.0643,0.0279 2.25,-0.42354 2.25,-5.46959 z m 11.8016,3.31927 c 0.3685,-1.94582 -6.5809,-10.07372 -7.9105,-9.25198 -1.0577,0.6537 -1.207,9.78347 -0.1769,10.81364 1.4096,1.40959 7.7569,0.18396 8.0874,-1.56166 z m 5.1984,-3.22107 c 0,-1.6435 -6.3521,-5.95436 -6.813,-4.6237 -0.1722,0.49695 0.4421,2.05598 1.365,3.46452 1.7853,2.7248 5.448,3.50411 5.448,1.15918 z m -26.4945,-1.60433 c 0.9986,-1.10337 1.5568,-2.26483 1.2407,-2.58102 -0.9505,-0.95042 -4.7462,1.54666 -4.7462,3.12233 0,2.03789 1.3617,1.82762 3.5055,-0.54131 z m 29.4945,-3.46528 c 0,-1.3688 -5.9019,-3.74273 -6.9851,-2.80964 -0.6837,0.58895 4.222,4.2319 5.7351,4.25881 0.6875,0.0122 1.25,-0.63989 1.25,-1.44917 z m -32.5,-1.52859 c 0.3399,-0.55 -0.084,-1 -0.941,-1 -0.8575,0 -1.559,0.45 -1.559,1 0,0.55 0.4234,1 0.941,1 0.5175,0 1.2191,-0.45 1.559,-1 z m 310.1855,171.82569 c 1.273,-1.19588 2.3145,-2.70673 2.3145,-3.35746 0,-0.97726 -42.1473,-36.55339 -52.3983,-44.22892 l -3.0193,-2.26069 -42.0412,0.26069 -42.0412,0.26069 -0.3134,3.25 -0.3134,3.25 38.5638,0 38.56379,0 13.24961,10.69917 c 7.2873,5.88455 19.7123,16.00955 27.6112,22.5 7.8989,6.49046 15.0699,11.80083 15.9356,11.80083 0.8656,0 2.6154,-0.97844 3.8883,-2.17431 z m -553.9608,-18.60159 c 12.5264,-10.87674 24.0735,-20.77674 25.6601,-22 2.8637,-2.2078 3.1592,-2.2241 40.3134,-2.2241 l 37.4285,0 -0.3134,-3.25 -0.3133,-3.25 -41.2603,-0.2611 -41.2603,-0.2611 -4.2397,3.83181 c -2.3319,2.10749 -13.4647,12.09042 -24.7397,22.18428 -11.275,10.09386 -20.677,18.80548 -20.8933,19.35917 -0.3822,0.97824 4.6643,5.63201 6.118,5.64197 0.3986,0.003 10.9736,-8.89418 23.5,-19.77093 z m 34.1716,-39.59914 c 0.8008,-0.9649 1.061,-8.34723 0.8724,-24.75 l -0.2687,-23.37496 -19,-0.5 c -12.3397,-0.32473 -19,-0.86968 -19,-1.55459 0,-0.58003 16.875,-24.32966 37.5,-52.77696 20.625,-28.44731 37.6443,-52.3793 37.8208,-53.1822 0.2754,-1.2537 -4.5254,-1.49699 -34,-1.72304 l -34.3208,-0.26321 0,-49.5 0,-49.5 21,-0.5 21,-0.5 0.2711,-19.75231 0.2712,-19.75232 212.2288,0.25232 212.22889,0.25231 0.5,19.5 0.5,19.5 21,0.5 21.00001,0.5 0,49.5 0,49.5 -32.25001,0.26385 c -24.81169,0.203 -32.24539,0.54897 -32.22969,1.5 0.011,0.67988 17.1227,24.77292 38.02559,53.54008 20.90301,28.76716 37.74231,52.72966 37.42071,53.25 -0.3351,0.54227 -8.8825,0.94607 -20.0257,0.94607 l -19.44091,0 0,24.39301 c 0,21.32075 0.1992,24.46946 1.5818,25 2.2421,0.86038 9.68401,0.72511 11.14431,-0.20256 0.8761,-0.55662 1.3042,-5.90365 1.5,-18.73469 l 0.2739,-17.95576 25.25,-0.26717 c 17.1147,-0.18109 25.25,-0.6122 25.25,-1.33807 0,-0.58899 -16.6888,-24.09376 -37.0862,-52.23283 -20.39731,-28.13906 -37.15981,-51.61193 -37.25001,-52.16193 -0.1043,-0.63689 10.0032,-1.18155 27.83621,-1.5 l 28,-0.5 0,-63.5 0,-63.5 -22.9529,-0.26929 c -16.83181,-0.19748 -23.16141,-0.59751 -23.73471,-1.5 -0.43,-0.67689 -0.7887,-9.39507 -0.7971,-19.37372 -0.013,-15.61233 -0.236,-18.22768 -1.5971,-18.75 -0.87,-0.33385 -102.03399,-0.60699 -224.80889,-0.60699 -177.0198,0 -223.5745,0.25875 -224.9055,1.25 -1.4479,1.0783 -1.7145,3.7911 -1.9411,19.75 l -0.2627,18.5 -20.5,0.5 -20.5,0.5 0,63.5 0,63.5 28,0.5 c 17.833,0.31845 27.9405,0.86311 27.8361,1.5 -0.09,0.55 -16.8526,24.02287 -37.25,52.16193 -20.3974,28.13907 -37.0861,51.64357 -37.0861,52.23222 0,0.7236 7.8551,1.15703 24.25,1.33807 l 24.25,0.26778 0.2739,17.95576 c 0.1957,12.83104 0.6238,18.17807 1.5,18.73469 2.1092,1.34 11.3859,0.9244 12.6224,-0.56549 z m 61.5322,-0.19639 c 1.3921,-1.39205 1.5715,-8.12091 1.5715,-58.94911 l 0,-57.37768 3.25,-2.43826 c 10.3932,-7.79738 33.6746,-18.91352 54.5659,-26.05362 74.659,-25.5164 161.1672,-22.58016 230.2302,7.81441 13.2577,5.83468 32.4628,16.31454 36.0662,19.68061 l 2.8877,2.6975 0,57.4918 c 0,51.50251 0.1647,57.55504 1.5818,58.09879 2.376,0.91177 48.72259,0.70049 50.18669,-0.22879 0.9795,-0.62169 1.2073,-6.25775 1,-24.73468 l -0.2685,-23.92954 -14.92389,-0.27773 c -11.2689,-0.20971 -15.1224,0.0352 -15.7347,1 -0.9391,1.47989 -1.1379,22.84159 -0.2344,25.19594 0.4649,1.21171 2.0869,1.58179 6.9326,1.58179 5.4473,0 6.4137,-0.27768 6.9604,-2 0.9187,-2.89481 -0.3466,-6 -2.445,-6 -2.4736,0 -4.2763,-2.4124 -3.8818,-5.19496 0.3029,-2.13679 0.8012,-2.30504 6.8268,-2.30504 l 6.5,0 0,11.5 0,11.5 -14,0 -14,0 0,-75.5 0,-75.5 33.49999,-0.53385 c 18.425,-0.29362 33.61731,-0.63112 33.76081,-0.75 0.1435,-0.11888 0.1435,-19.22865 0,-42.46615 l -0.2608,-42.25 -20.75001,-0.27029 -20.74999,-0.27029 -0.015,-18.72971 c -0.01,-10.30134 -0.3732,-19.29329 -0.8105,-19.98212 -0.6336,-0.99789 -42.3429,-1.20111 -205.2347,-1 l -204.4395,0.25241 -0.2712,19.75 -0.2711,19.75 -20.4437,0 c -19.1886,0 -20.5072,0.11875 -21.4788,1.93426 -1.4161,2.64595 -1.4161,79.48553 0,82.13148 0.9931,1.85574 2.4548,1.93426 36.0062,1.93426 l 34.9711,0 -0.2562,75.75 -0.2563,75.75 -13.5,0 -13.5,0 0,-11.5 0,-11.5 6.5,0 c 6.0255,0 6.5238,0.16825 6.8267,2.30504 0.4246,2.99481 -1.4597,5.19496 -4.4492,5.19496 -2.1116,0 -2.3775,0.45252 -2.3775,4.04569 l 0,4.04569 6.75,-0.29569 6.75,-0.29569 0,-13.5 0,-13.5 -16,0 -16,0 -0.2688,23.37496 c -0.1885,16.40277 0.072,23.7851 0.8725,24.75 0.9122,1.0991 6.1193,1.37504 25.9473,1.37504 21.2177,0 25.0334,-0.22732 26.3775,-1.57143 z m 4.1035,-130.67857 c -1.2151,-3.74818 -1.7797,-12.13249 -1.8989,-28.19956 l -0.1331,-17.94957 5.6862,-3.37474 c 8.1455,-4.83434 18.0801,-8.1233 22.0743,-7.3079 l 3.2395,0.66134 0.2777,14.25333 c 0.244,12.52139 0.031,14.81035 -1.75,18.83734 -1.1153,2.5212 -2.0277,6.09024 -2.0277,7.9312 0,2.71491 -0.5723,3.64312 -3.0294,4.91375 -1.6661,0.8616 -3.4661,1.2966 -4,0.96666 -1.5645,-0.96691 -1.1214,-6.0252 0.9989,-11.40463 1.358,-3.44523 1.6307,-5.20625 0.8783,-5.67129 -1.3807,-0.8533 -14.5857,5.46855 -15.2975,7.32364 -0.2918,0.76022 0.1401,2.98703 0.9596,4.94845 2.3033,5.51267 1.9648,11.87609 -0.7324,13.76528 -2.6836,1.87966 -4.6974,1.99741 -5.2455,0.3067 z m 14.4929,-33.26257 6.9751,-3.51257 0,-5.51882 c 0,-6.63025 -1.175,-7.42475 -7.4412,-5.03167 -7.1061,2.71386 -9.5588,5.62904 -9.5588,11.36121 0,7.48243 0.3465,7.57582 10.0249,2.70185 z m 301.2251,32.85166 c -2.7235,-1.91618 -3.0694,-8.13378 -0.76,-13.66107 0.8196,-1.96142 1.2637,-4.15388 0.987,-4.87212 -0.5388,-1.39863 -12.2492,-7.8059 -14.2666,-7.8059 -1.6255,0 -1.5249,2.31155 0.2896,6.65424 1.6984,4.06482 1.985,9.92795 0.5293,10.82761 -0.5338,0.32994 -2.3338,-0.10506 -4,-0.96666 -2.422,-1.25247 -3.0294,-2.21301 -3.0298,-4.79087 -3e-4,-1.77338 -0.9003,-5.59165 -2,-8.48505 -1.6396,-4.31376 -1.9995,-7.68254 -1.9995,-18.71481 0,-12.65494 0.125,-13.52102 2.1053,-14.58081 1.2307,-0.65869 3.6193,-0.84711 5.75,-0.45361 5.2238,0.96476 19.6201,7.89444 22.6081,10.88252 2.4704,2.47034 2.5366,2.89672 2.5366,16.33859 0,7.59113 -0.5077,15.37408 -1.1282,17.29545 -0.6204,1.92137 -1.4079,5.73871 -1.75,8.48298 -0.6871,5.51292 -2.1471,6.4701 -5.8718,3.84951 z m 0.5466,-35.48954 c 0.2662,-5.05319 0.029,-5.84123 -2.3077,-7.67963 -3.4871,-2.74293 -11.0409,-5.55582 -12.9512,-4.82276 -1.6323,0.62637 -2.2115,9.07931 -0.7724,11.27249 1.0935,1.66644 12.5013,7.3447 14.2347,7.08534 1.0868,-0.16261 1.5817,-1.77537 1.7966,-5.85544 z m -41.0466,15.5761 c -2.3478,-1.27165 -2.75,-2.12336 -2.75,-5.82273 0,-2.81901 0.6988,-5.22169 2,-6.87579 1.7035,-2.16568 2,-4.05678 2,-12.7573 0,-8.07234 -0.2622,-9.99166 -1.25,-9.15117 -0.6875,0.58495 -4.175,6.70792 -7.75,13.60659 -3.575,6.89867 -6.9571,12.55017 -7.5157,12.55889 -0.8888,0.0139 -2.8096,-4.7083 -11.688,-28.73414 -1.067,-2.8875 -2.3577,-5.25 -2.8682,-5.25 -0.5105,0 -0.9281,4.09152 -0.9281,9.09227 0,7.57808 0.333,9.51571 2,11.63486 2.1371,2.71695 2.814,10.65174 1.004,11.77036 -0.5477,0.33854 -2.228,0.025 -3.734,-0.69678 -1.97,-0.94419 -2.8986,-2.29245 -3.3106,-4.80651 -0.315,-1.92181 -1.3464,-4.67063 -2.2921,-6.10848 -1.4772,-2.24595 -1.6806,-4.85241 -1.4434,-18.5 l 0.2761,-15.88572 4.6282,0.0552 c 7.6426,0.0912 9.0664,1.71922 13.89,15.88265 2.3531,6.90918 4.785,12.56214 5.4044,12.56214 0.6193,0 3.2576,-4.29105 5.8628,-9.53566 2.6053,-5.24462 5.3901,-9.78634 6.1885,-10.09272 0.7984,-0.30638 3.7184,0.19583 6.4889,1.11603 l 5.0372,1.67308 0,16.5909 c 0,14.16364 -0.2469,16.8637 -1.6876,18.45561 -0.9281,1.0256 -1.9406,3.72441 -2.25,5.99735 -0.6482,4.76277 -1.5059,5.28283 -5.3124,3.22106 z m -233.25,-1.66865 c -1.65,-1.20282 -3.3306,-2.65271 -3.7347,-3.22197 -0.4041,-0.56927 -0.7416,-7.35753 -0.75,-15.08503 -0.01,-8.64879 -0.4278,-14.46243 -1.0882,-15.12284 -0.59,-0.59007 -0.9275,-2.58944 -0.75,-4.44305 0.3615,-3.77334 3.66,-6.01388 9.2024,-6.25075 2.7892,-0.1192 3.1524,0.19421 3.4215,2.95181 0.1833,1.87803 -0.3058,3.58886 -1.25,4.37245 -1.2596,1.04537 -1.551,3.79448 -1.551,14.62964 0,11.72399 0.2139,13.45689 1.764,14.28645 2.3098,1.23616 7.4373,-0.89541 9.6077,-3.994 2.2071,-3.15104 2.362,-24.81111 0.2015,-28.16489 -1.7145,-2.66129 -0.9969,-7.42578 1.2991,-8.62682 0.8952,-0.46825 3.0902,-1.16537 4.8777,-1.54914 l 3.25,-0.69777 0,19.6223 0,19.62229 -4.4124,4.70716 c -4.0575,4.32855 -5.7658,5.26382 -16.0876,8.80776 -0.55,0.18884 -2.35,-0.64078 -4,-1.8436 z m 43.1484,-10.44188 c -0.3566,-0.35665 -0.6484,-2.1581 -0.6484,-4.00323 0,-2.608 0.5565,-3.60832 2.5,-4.49384 2.4913,-1.13515 2.5,-1.18687 2.5,-14.97857 l 0,-13.83948 -3.3781,0 c -2.2825,0 -3.8229,0.66048 -4.75,2.03673 -0.7881,1.17006 -2.6485,2.12747 -4.3719,2.25 -2.7991,0.19899 -3.0211,-0.0425 -3.3146,-3.60652 -0.1729,-2.10088 0.1943,-4.43288 0.8162,-5.18222 1.7306,-2.08522 18.3411,-5.63006 29.2484,-6.2419 l 9.75,-0.54692 0,5.25045 0,5.25045 -4.25,-0.62868 c -12.0512,-1.78267 -11.75,-2.13698 -11.75,13.8208 l 0,13.46497 2.75,0.31642 c 2.4831,0.28571 2.75,0.70026 2.75,4.27135 l 0,3.95494 -6.5,1.28284 c -3.575,0.70556 -7.4457,1.50514 -8.6016,1.77685 -1.1558,0.27171 -2.3933,0.20222 -2.75,-0.15444 z m 128.4655,-3.75173 c -6.4888,-1.07278 -7.7217,-1.63234 -10.1487,-4.60593 -2.6127,-3.20126 -2.8,-4.11878 -3.455,-16.92113 -0.6228,-12.17449 -0.4917,-14.03936 1.3034,-18.53633 l 1.996,-5 7.0122,0.24839 c 11.8084,0.41829 14.3529,1.29057 16.9041,5.79479 2.0203,3.56686 2.2428,5.32136 2.2576,17.80245 0.015,12.5506 -0.1851,14.14067 -2.1386,17 -2.2264,3.25877 -4.8094,5.73491 -5.7861,5.54663 -0.3073,-0.0593 -3.8826,-0.65724 -7.9449,-1.32887 z m 7.8815,-10.55236 c 1.515,-3.65765 0.9751,-22.44045 -0.693,-24.10858 -0.6204,-0.62045 -3.3048,-1.53496 -5.9653,-2.03226 -6.7229,-1.25667 -7.3371,-0.16018 -7.3371,13.09843 0,13.77544 1.051,15.42492 10.1286,15.8952 2.0377,0.10556 2.9071,-0.53586 3.8668,-2.85279 z m -97.002,6.75915 c 0,-1.2486 -0.9007,-3.62018 -1.9934,-5.27018 -1.7355,-2.62051 -1.9877,-4.70997 -1.9934,-16.51787 -0.01,-12.68264 0.1439,-13.73938 2.4296,-17.10316 2.1369,-3.14471 3.0893,-3.66371 7.75,-4.22344 2.9226,-0.35098 7.4146,-0.64206 9.9822,-0.64684 4.2259,-0.008 4.8658,0.31062 6.75,3.35934 1.8328,2.96545 2.0773,4.90783 2.0461,16.25 -0.025,9.27931 -0.4351,13.58114 -1.4645,15.38197 -0.786,1.375 -1.4451,3.6824 -1.4646,5.12756 -0.02,1.44515 -0.5979,3.07178 -1.2854,3.61472 -0.6875,0.54294 -5.6375,1.28212 -11,1.64263 -9.6614,0.6495 -9.7501,0.63481 -9.7566,-1.61473 z m 15.4499,-8.99269 c 1.1946,-1.70563 1.5567,-4.9571 1.5567,-13.98094 0,-11.70835 -0.011,-11.76112 -2.5,-12.38591 -2.7697,-0.69513 -7.3074,0.18459 -9.2444,1.7922 -0.8689,0.72106 -1.2556,4.44551 -1.2556,12.09086 0,8.87772 0.3252,11.40817 1.655,12.87756 2.3776,2.62727 7.8258,2.4081 9.7883,-0.39377 z m 43.3658,9.51196 c -2.2772,-0.34771 -3.8023,-2.40034 -9.9191,-13.35017 -3.9755,-7.1166 -7.6021,-12.93928 -8.0591,-12.93928 -0.457,0 -0.8309,2.92798 -0.8309,6.50661 0,5.69407 0.3122,6.77807 2.5,8.68034 1.8381,1.59824 2.5,3.16934 2.5,5.93437 0,4.28466 -1.0688,5.32923 -4.5569,4.45377 -1.5439,-0.3875 -2.4431,-1.32951 -2.4431,-2.55935 0,-1.07038 -1.3617,-3.49696 -3.0259,-5.39239 l -3.0258,-3.44625 0.2758,-15.83855 0.2759,-15.83855 3.6434,-0.30401 c 4.3401,-0.36214 4.2364,-0.49102 14.9226,18.55053 4.0887,7.28558 8.0112,13.24808 8.7167,13.25 0.9845,0.003 1.217,-2.60954 1,-11.23509 -0.2822,-11.2176 -0.288,-11.24107 -3.09,-12.582 -2.3329,-1.11646 -2.7553,-1.87866 -2.5,-4.51143 l 0.3073,-3.168 5.958,0.2775 c 3.3164,0.15447 6.3023,0.81952 6.7346,1.5 0.9108,1.43353 1.0929,38.81495 0.2004,41.14071 -0.5997,1.56278 -3.3924,1.81665 -9.5839,0.87124 z m 164.6634,-10.30963 c -3.8349,-2.76109 -9.7834,-6.47359 -13.2188,-8.25 -5.9366,-3.06966 -6.2465,-3.41161 -6.25,-6.89579 0,-3.08023 -0.6428,-4.17216 -4.0037,-6.83403 l -4,-3.16806 0,-36.94202 0,-36.94201 15.1948,0.27604 15.1948,0.27605 13.9565,46.7653 c 7.67609,25.72091 13.64899,47.07287 13.27309,47.44879 -0.3759,0.37592 -3.6025,-0.75596 -7.1703,-2.5153 -9.07589,-4.47552 -9.44889,-4.37105 -9.44889,2.64622 0,4.39256 -0.4545,6.25627 -1.8288,7.5 -2.7524,2.49091 -4.106,2.10154 -11.6987,-3.36519 z m 3.5275,-18.05899 c 0.2759,-4.64653 0.9482,-8.40699 1.5,-8.38996 0.55,0.017 2.4946,0.3973 4.3215,0.84516 1.8268,0.44786 3.5364,0.59936 3.7991,0.33666 0.8089,-0.80893 -18.5379,-62.04215 -19.8696,-62.88769 -1.4921,-0.94742 -4.4097,-1.02316 -7.501,-0.19471 l -2.25,0.60297 0,27.52154 0,27.52154 4,4.33949 c 3.4368,3.72847 4,4.97598 4,8.85999 0,4.30774 0.2235,4.66085 4.75,7.50217 2.6125,1.63992 5.2,2.84261 5.75,2.67266 0.55,-0.16995 1.225,-4.09837 1.5,-8.72982 z m -374.5351,15.19331 c -9.3025,-3.35092 -12.4649,-5.79321 -12.4649,-9.62655 0,-3.41307 -1.0841,-3.67989 -8.1671,-2.01012 -8.2646,1.94835 -9.8447,1.9116 -9.7798,-0.22747 0.029,-0.9625 5.0952,-20.2 11.2578,-42.75 l 11.2046,-41 4.8817,-0.31049 c 2.685,-0.17077 5.2484,0.0561 5.6965,0.50424 0.4481,0.4481 -3.2115,15.66282 -8.1326,33.81049 -4.921,18.14767 -8.9504,33.83435 -8.9542,34.8593 -0.01,1.89896 0.3238,1.90826 10.4931,0.29509 0.55,-0.0873 1.225,2.5857 1.5,5.93988 0.5761,7.02704 2.1017,9.40149 6.0406,9.40149 4.385,0 5.8994,-0.9621 8.002,-5.0835 1.8373,-3.6014 1.9583,-6.0942 1.9727,-40.62666 0.01,-20.23441 0.3905,-37.38153 0.8491,-38.10471 0.5388,-0.84969 2.3908,-1.20348 5.2347,-1 l 4.4009,0.31487 0.2616,39.25551 0.2616,39.25552 -2.9094,5.74448 c -2.4781,4.89293 -3.8642,6.30039 -9.35,9.49449 -3.5423,2.0625 -6.6258,3.73377 -6.8522,3.71392 -0.2264,-0.0198 -2.6774,-0.85224 -5.4467,-1.84978 z m 329.2851,-17.77262 -3.75,-1.55543 0,-12.67054 c 0,-15.41735 -0.8568,-17.39125 -7.3438,-16.91847 l -4.1562,0.30292 -0.5751,9 c -0.5309,8.30886 -1.9604,13.50807 -3.7101,13.49442 -2.5337,-0.0198 -8.217,-2.29335 -8.2277,-3.29142 -0.01,-0.66165 0.7334,-4.39378 1.6453,-8.29362 l 1.6581,-7.09063 -5.6453,-19.17703 c -3.1049,-10.54736 -5.6378,-20.18158 -5.6288,-21.40937 0.01,-1.22779 1.0353,-4.03235 2.2805,-6.23235 l 2.2641,-4 15.7159,-0.27537 c 17.2273,-0.30186 19.8629,0.38276 21.8781,5.68302 1.3954,3.67023 -0.085,74.10981 -1.5562,74.04082 -0.6044,-0.0283 -2.7863,-0.75147 -4.8488,-1.60695 z m -4.25,-53.84152 0,-13 -9.4104,-0.28965 c -5.1757,-0.1593 -9.8218,0.12185 -10.3248,0.62479 -0.8572,0.85722 4.2263,20.20806 6.426,24.46102 0.7701,1.48904 1.9874,1.74552 7.1191,1.5 l 6.1901,-0.29616 0,-13 z m -287.5,50.24591 c 0,-3.46211 -0.6769,-5.32267 -3,-8.24591 l -3,-3.77501 0.015,-30.11249 c 0.01,-16.56188 0.3894,-30.70247 0.8467,-31.42355 0.5497,-0.86682 2.4849,-1.20566 5.7113,-1 l 4.8798,0.31105 8.579,18.5 c 4.7185,10.175 9.004,18.5 9.5234,18.5 0.5195,0 1.0739,-4.16598 1.2321,-9.25772 0.2623,-8.44182 0.059,-9.64798 -2.3074,-13.68583 -2.0203,-3.44733 -2.527,-5.49437 -2.2876,-9.24227 l 0.3074,-4.81418 5,0 5,0 0.5199,5.16705 c 0.2863,2.84492 1.2975,6.02618 2.25,7.07874 1.5472,1.7096 1.7301,4.67409 1.7301,28.04281 l 0,26.13112 -4.1794,1.25215 c -2.5721,0.77063 -4.3338,0.88221 -4.581,0.29015 -3.0589,-7.32589 -19.0619,-37.92938 -19.9896,-38.22728 -0.9583,-0.30773 -1.25,2.76323 -1.25,13.15887 0,13.36082 0.037,13.58438 2.5,15.19835 2.2919,1.50173 2.5,2.25075 2.5,9 0,8.00417 -0.9191,9.39218 -7.25,10.94873 -2.6908,0.66156 -2.75,0.57982 -2.75,-3.79478 z m 43.4934,-11.90249 c -0.2879,-0.75025 -0.4042,-15.08444 -0.2584,-31.85375 l 0.265,-30.48967 4.4009,-0.31487 c 2.8439,-0.20348 4.6958,0.15031 5.2347,1 0.4585,0.72318 0.8406,14.02737 0.8491,29.56487 0.015,26.92759 -0.078,28.34362 -1.9847,30.25 -1.1,1.1 -2.6382,2 -3.4182,2 -0.7801,0 -2.1263,0.27169 -2.9916,0.60375 -0.8807,0.33795 -1.8038,0.003 -2.0968,-0.76033 z m 193.2624,-1.97501 c -6.6602,-1.64211 -8.3749,-2.54006 -12.25,-6.41521 l -4.5058,-4.50583 0,-23.40226 c 0,-19.94144 0.2324,-23.63464 1.5714,-24.97368 1.192,-1.19196 3.7098,-1.57143 10.4266,-1.57143 l 8.8552,0 2.9808,5.25 c 3.0453,5.36339 16.166,46.43451 16.166,50.60344 0,2.05035 -0.4084,2.26697 -3.7232,1.97476 -3.2259,-0.28437 -3.9009,0.0391 -5.0545,2.4218 -1.593,3.29009 -3.3294,3.36432 -14.4665,0.61841 z m 6.0434,-12.77302 3.2993,-2.82333 -4.6482,-16.38603 c -4.5366,-15.99251 -6.1844,-19.30905 -9.0475,-18.21036 -1.1245,0.43149 -1.4028,3.77697 -1.4028,16.86012 l 0,16.32181 3.368,3.5712 c 1.8525,1.96416 3.765,3.55291 4.25,3.53056 0.4851,-0.0224 2.3666,-1.31114 4.1812,-2.86397 z m -175.176,5.00164 -6.1232,-4.62437 0,-23.98633 0,-23.98633 4.75,-0.30479 c 2.6125,-0.16764 4.8403,-0.16764 4.9507,0 0.1104,0.16763 0.4479,10.19465 0.75,22.28226 l 0.5493,21.97747 2.8472,0.99977 c 5.1944,1.82395 5.6528,-0.13389 5.6528,-24.14584 l 0,-21.30887 5,0 5,0 0,23.40539 0,23.40538 -3.6085,4.34462 c -1.9847,2.38953 -3.7803,4.5278 -3.9904,4.75169 -0.2101,0.22389 -2.4683,0.72371 -5.0183,1.1107 -4.4196,0.67072 -4.9227,0.48739 -10.7596,-3.92075 z m 137.8768,2.04232 -3,-0.65899 0,-26.99018 0,-26.99018 4.7175,-0.30347 c 4.2154,-0.27116 4.7775,-0.0583 5.2812,2 0.3101,1.26691 0.4372,13.77847 0.2825,27.80347 -0.3136,28.43033 0.1658,26.77521 -7.2812,25.13935 z m -105.25,-2.28144 c -0.9352,-0.94112 -1.25,-7.75546 -1.25,-27.05791 l 0,-25.8 8.1,0 c 7.9019,0 8.1844,0.0844 11.551,3.45101 3.3733,3.37329 3.4162,3.51825 1.9071,6.43659 -2.0989,4.05877 -3.0786,4.47267 -6.0222,2.54401 -3.6374,-2.38332 -5.5359,-1.23889 -5.5359,3.33701 0,5.11163 1.393,6.23138 7.7522,6.23138 l 5.3523,0 -0.3023,5.25 -0.3022,5.25 -5.7434,0.29971 c -5.0747,0.26481 -5.8121,0.57317 -6.3329,2.64828 -0.3242,1.29172 -0.4397,3.40686 -0.2566,4.7003 0.3035,2.14415 0.8845,2.37799 6.5829,2.64943 l 6.25,0.29771 0,4.37283 c 0,5.00957 0.1319,4.94837 -13,6.02987 -5.3999,0.44472 -7.8501,0.26544 -8.75,-0.64022 z m 72.75,-0.72723 c -2.9178,-0.78191 -7,-8.01175 -7,-12.39736 0,-2.76726 0.1262,-2.83479 4.7448,-2.53811 4.402,0.28277 4.7821,0.52156 5.2598,3.30479 0.457,2.66193 0.9083,3 4.0052,3 l 3.4902,0 0,-5 0,-5 -8.5,-4.5 -8.5,-4.5 -0.2898,-8.21178 c -0.2367,-6.7056 0.088,-8.95244 1.7703,-12.25 l 2.0601,-4.03822 8.903,0 c 8.119,0 9.1738,0.22795 11.9796,2.58889 2.6495,2.22934 3.0768,3.25611 3.0768,7.39301 0,5.33864 -0.7538,6.01228 -5.8783,5.25361 -2.1632,-0.32028 -3.5507,-1.15992 -3.8579,-2.33471 -1.1257,-4.30458 -8.2638,-2.88437 -8.2638,1.64417 0,2.91761 1.2027,4.03105 10.5,9.72032 l 7,4.28351 0.2848,9.60743 0.2847,9.60744 -3.1115,2.61817 c -2.6623,2.24022 -4.0026,2.60377 -9.2848,2.51848 -3.3953,-0.0548 -7.2982,-0.40116 -8.6732,-0.76964 z m -42.2863,-0.75029 c -0.3926,-0.39255 -0.7137,-12.11372 -0.7137,-26.04706 l 0,-25.33333 10.75,0.004 c 8.9522,0.003 11.2935,0.33512 14,1.9853 l 3.25,1.98156 0,11.54682 c 0,8.00161 -0.4606,12.64905 -1.5,15.13682 -2.0314,4.86175 -1.9109,6.4299 1.0314,13.42049 1.3923,3.30796 2.2658,6.4444 1.941,6.96987 -0.8592,1.39023 -8.2121,1.17144 -9.1634,-0.27267 -0.445,-0.67543 -1.7473,-3.93793 -2.8942,-7.25 -1.7744,-5.12447 -2.445,-6.02193 -4.5,-6.02193 -2.2755,0 -2.4437,0.40385 -2.9148,7 l -0.5,7 -4.0363,0.29705 c -2.22,0.16338 -4.3575,-0.0241 -4.75,-0.41666 z m 16.6793,-24.96218 c 0.3338,-0.86998 0.607,-4.45415 0.607,-7.96481 0,-5.35958 -0.3207,-6.55466 -2,-7.4534 -1.421,-0.76049 -2.579,-0.76049 -4,0 -1.6793,0.89874 -2,2.09382 -2,7.4534 0,8.1954 0.5661,9.5466 4,9.5466 1.618,0 3.0405,-0.66316 3.393,-1.58179 z m 154.607,183.56709 0,-43.0147 -3.25,-2.00872 c -5.9996,-3.70813 -28.1671,-14.70873 -36.8342,-18.27889 -17.3306,-7.13885 -39.2377,-13.67334 -57.6561,-17.19779 -14.1027,-2.69861 -14.7368,-1.60249 -1.9888,3.43811 36.7271,14.522 66.0716,41.45933 83.6203,76.76079 5.2892,10.63979 11.0118,26.82608 13.1047,37.0659 0.7025,3.4375 1.6659,6.25 2.1407,6.25 0.4749,0 0.8634,-19.35661 0.8634,-43.0147 z m -306.615,25.1588 c 13.83,-46.56141 46.3682,-82.5368 92.115,-101.84541 11.9366,-5.03816 8.4561,-5.4728 -10.1241,-1.26427 -30.4251,6.89144 -65.1929,20.66075 -85.0933,33.69998 l -2.2826,1.49562 0,41.08499 c 0,22.9109 0.3793,40.66475 0.8575,40.13499 0.4716,-0.5225 2.509,-6.51015 4.5275,-13.3059 z m -36.3193,-12.17928 c 1.8664,-0.99884 1.9343,-2.54624 1.9343,-44.07333 0,-36.89915 -0.205,-42.99202 -1.4369,-42.71481 -1.1104,0.24985 -56.8485,75.91672 -61.953,84.10383 -0.8602,1.37968 -0.7724,1.99532 0.3899,2.73469 2.092,1.33078 58.5721,1.28418 61.0657,-0.0504 z m -37.5256,-10.89988 c -0.7697,-1.24543 23.4963,-33.96282 25.2335,-34.02174 0.9941,-0.0337 1.2136,3.74219 1,17.2068 l -0.2736,17.25 -12.6729,0.2793 c -7.6296,0.16815 -12.9173,-0.11613 -13.287,-0.71436 z m 472.8781,11.32807 c 0.87,-0.33384 1.5818,-1.02927 1.5818,-1.5454 0,-1.81428 -62.3498,-86.89768 -63.4185,-86.54166 -0.7473,0.24898 -1.1621,13.5192 -1.3422,42.94509 -0.231,37.72842 -0.08,42.76518 1.3214,44.16686 1.3709,1.37092 5.4994,1.5821 30.92889,1.5821 16.1407,0 30.05861,-0.27314 30.92861,-0.60699 z m -48.7516,-11.05968 c -0.3666,-0.36666 -0.6666,-8.24166 -0.6666,-17.5 0,-12.82304 0.2978,-16.82304 1.25,-16.79013 1.6958,0.0586 25.97869,32.77768 25.22789,33.99244 -0.6641,1.07467 -24.75639,1.35254 -25.81129,0.29769 z m -417.8915,-261.89213 c -3.4078,-1.84937 -4.7751,-4.34636 -4.7751,-8.72047 0,-4.62336 2.2772,-6.395 10.5626,-8.21742 14.0894,-3.09906 137.6319,-26.50227 139.747,-26.4729 1.7306,0.024 1.8755,0.21324 0.6904,0.90141 -2.3003,1.3357 -140.0125,44.07373 -141.8693,44.02814 -0.8969,-0.022 -2.8569,-0.70546 -4.3556,-1.51876 z m 358.7249,-22.51302 c -65.3022,-23.03907 -67.0683,-23.69325 -66.2297,-24.53189 0.5284,-0.52835 129.2992,27.71363 135.51509,29.72113 9.8025,3.16583 6.7621,17.06905 -3.67029,16.7837 -1.9883,-0.0544 -31.5151,-9.94221 -65.6151,-21.97294 z m -325.9066,-26.17818 c -1.385,-1.2375 -2.791,-3.41625 -3.1244,-4.84167 -0.8234,-3.51945 3.4926,-8.6594 7.8413,-9.33825 3.9983,-0.62417 86.53,-3.6315 96.6897,-3.52323 5.5266,0.0589 6.9076,0.31803 5.2484,0.98488 -4.1527,1.6691 -94.9733,18.96827 -99.5833,18.96827 -3.3095,0 -5.2416,-0.61474 -7.0717,-2.25 z m 305.6918,-7.14599 c -26.5181,-5.06008 -48.5681,-9.57415 -49,-10.03127 -0.4319,-0.45713 10.9148,-0.50339 25.2148,-0.1028 14.3,0.40058 37.9656,1.03487 52.5902,1.40953 28.7576,0.73671 30.5762,1.0995 33.0822,6.59968 2.5036,5.49476 -2.9472,11.61362 -10.1724,11.41919 -1.925,-0.0518 -25.1967,-4.23425 -51.7148,-9.29433 z m -105.502,-22.15407 c -0.3025,-0.30254 -0.1632,-2.21504 0.3095,-4.25 1.6179,-6.96423 0.9789,-14.24602 -2.1357,-24.3391 -2.0296,-6.57708 -3.5281,-9.86084 -4.5,-9.86084 -0.8013,0 -1.457,0.45 -1.457,1 0,2.22618 -3.0146,0.81048 -3.7265,-1.75 -2.4666,-8.87249 0.4234,-18.94579 7.3715,-25.69371 5.4221,-5.2659 6.134,-4.79282 5.588,3.7137 -0.5451,8.49383 1.0629,15.74768 6.47,29.18658 6.1281,15.23105 5.2757,23.64421 -3.0382,29.9855 -3.5392,2.69952 -4.0003,2.88915 -4.8816,2.00787 z m -171.2832,-3.16526 c -8.9855,-2.17603 -8.174,-14.77572 1.0655,-16.54195 2.2696,-0.43388 72.9959,8.6669 76.3276,9.82154 3.9885,1.38226 3.2598,1.45331 -69.3931,6.76601 -3.3,0.24131 -6.9,0.22079 -8,-0.0456 z m 263,-1.94576 c -30.5823,-2.36851 -34.3528,-2.81945 -33.2015,-3.97077 0.6883,-0.68834 68.6682,-9.34354 73.5011,-9.35817 9.5115,-0.0288 14.1408,9.41619 7.0497,14.38302 -2.9792,2.08666 -8.3358,1.96741 -47.3493,-1.05408 z m -102.798,-1.01206 c -0.3161,-0.51149 -1.5069,-3.29474 -2.6461,-6.18501 -1.1393,-2.89027 -4.3764,-8.67092 -7.1936,-12.84589 -7.5358,-11.1676 -10.1894,-18.21063 -10.2841,-27.29596 -0.09,-8.6426 2.1159,-13.41177 7.8402,-16.94959 5.1739,-3.19763 5.5313,-2.83919 4.8828,4.89637 -0.7526,8.97674 0.8581,16.95222 5.9602,29.51306 3.5411,8.71755 4.0889,11.09402 4.1584,18.04016 0.074,7.3745 -1.3488,13.04198 -2.7178,10.82686 z m -106.702,-22.46791 c -15.125,-1.03551 -28.524,-2.11384 -29.7755,-2.39629 -6.1156,-1.38022 -8.2013,-8.57676 -3.77,-13.00811 4.1689,-4.16888 3.0621,-4.40117 50.7955,10.66133 14.7652,4.65924 19.3746,7.05434 13,6.75497 -1.5125,-0.071 -15.125,-0.97638 -30.25,-2.0119 z m 170.4698,1.0923 c -0.4686,-0.75832 6.6085,-3.16038 44.2921,-15.03314 11.0433,-3.47935 13.1271,-3.57986 16.6567,-0.80342 2.1654,1.70325 2.6294,2.80264 2.3849,5.65065 -0.5562,6.4791 -2.1501,6.93645 -30.3035,8.69522 -13.75,0.85897 -26.6874,1.73891 -28.7498,1.95542 -2.0624,0.21651 -3.9886,0.007 -4.2804,-0.46473 z m -157.8965,-21.90232 c -19.6129,-4.25624 -22.1718,-5.04338 -24.25,-7.45941 -3.1092,-3.6147 -2.9269,-6.1398 0.7056,-9.77231 2.6251,-2.62505 3.5025,-2.94009 6.5806,-2.36265 3.3915,0.63626 40.3011,20.38469 43.3548,23.19691 1.2557,1.15643 1.042,1.3348 -1.5,1.25217 -1.6304,-0.053 -12.8313,-2.23762 -24.891,-4.85471 z m 153.9267,2.36154 c 1.1,-0.83925 9.6726,-5.77494 19.0503,-10.96819 18.9888,-10.51574 22.692,-11.4923 26.2804,-6.93039 2.3111,2.9381 1.845,6.00513 -1.2142,7.99046 -2.2085,1.43323 -41.2118,11.52135 -44.33,11.46585 -1.6259,-0.0289 -1.6067,-0.16903 0.2135,-1.55773 z m -12.5,-11.19007 c 0,-1.16117 24.2195,-24.8613 26.6842,-26.11202 8.2648,-4.1939 16.4082,3.69838 10.0141,9.7053 -3.345,3.14242 -36.6983,18.05371 -36.6983,16.40672 z m -108.5,-1.66503 c -1.65,-0.70482 -9.7324,-3.89728 -17.9608,-7.09437 -16.3383,-6.34808 -19.5392,-8.65533 -19.5392,-14.08397 0,-5.60163 7.0978,-8.75146 12.7448,-5.65583 3.4263,1.87821 28.6499,24.89301 29.6229,27.0288 0.7047,1.54665 -0.9458,1.48066 -4.8677,-0.19463 z m 101.5,-14.09428 c 0,-1.31279 12.3415,-20.78047 15.3355,-24.19041 4.9774,-5.66904 12.6939,-3.23395 11.2068,3.53657 -0.7745,3.52649 -2.2643,4.93905 -14.3675,13.62269 -9.5219,6.83166 -12.1748,8.36377 -12.1748,7.03115 z m -101.5,-9.02503 c -14.0066,-9.03676 -17.5,-12.21489 -17.5,-15.9204 0,-4.65828 5.235,-7.48939 10.1127,-5.46898 2.5911,1.07326 13.3884,14.83204 21.348,27.20332 2.8533,4.43484 0.2331,3.34366 -13.9607,-5.81394 z m 16.4038,-11.58614 c -5.7912,-6.24246 -11.2887,-12.46255 -12.2167,-13.82243 -2.442,-3.57877 -2.1871,-8.56387 0.5354,-10.47079 6.3196,-4.42643 10.3733,-0.0213 17.3405,18.84417 3.0267,8.19547 5.3607,15.32794 5.1867,15.84992 -0.174,0.52197 -5.0546,-4.15842 -10.8459,-10.40087 z m 71.5032,6.90008 c 0.7213,-2.3375 2.5551,-8.3 4.0752,-13.25 4.7976,-15.62267 7.9335,-19.4886 13.4246,-16.54985 2.3745,1.27078 2.8863,6.69939 0.9693,10.28129 -1.9509,3.64534 -17.9334,23.76856 -18.8777,23.76856 -0.4965,0 -0.3127,-1.9125 0.4086,-4.25 z m -56.8503,-20.1099 c -8.4796,-16.11364 -9.4143,-20.37687 -5.0888,-23.211056 3.5025,-2.29488 7.5673,-0.7766 9.7063,3.625416 0.9581,1.97184 2.1389,8.36422 2.7606,14.94554 0.5975,6.325 1.3119,13.1875 1.5876,15.25 0.2761,2.06554 0.072,3.75 -0.4538,3.75 -0.5253,0 -4.3556,-6.46196 -8.5119,-14.3599 z m 23.4433,13.47847 c 0,-0.48478 -1.3494,-10.2088 -2.9986,-21.60894 l -2.9986,-20.727506 1.9423,-4.39106 c 1.6928,-3.82679 2.341,-4.39106 5.0441,-4.39106 3.6254,0 7.5905,3.47719 8.6136,7.55367 0.9198,3.66476 -7.0998,44.446326 -8.7403,44.446326 -0.4744,0 -0.8625,-0.39664 -0.8625,-0.88143 z m 17.4011,-3.86857 c 0.3238,-2.6125 1.081,-9.7 1.6827,-15.75 0.657,-6.60628 1.7611,-12.16623 2.7642,-13.91973 3.7079,-6.481606 12.152,-5.127876 12.152,1.94818 0,3.75942 -14.3079,32.47155 -16.1813,32.47155 -0.6166,0 -0.7783,-1.83991 -0.4176,-4.75 z"
         id="path3004"
         inkscape:connector-curvature="0" />
    </g>
    <text
       xml:space="preserve"
       style="font-size:420px;font-style:normal;font-weight:normal;line-height:125%;letter-spacing:0px;word-spacing:0px;fill:#2d2558;fill-opacity:1;stroke:none;font-family:Times New Roman;-inkscape-font-specification:Times New Roman"
       x="-164.07141"
       y="440.11707"
       id="text3006"
       sodipodi:linespacing="125%"><tspan
         sodipodi:role="line"
         id="tspan3008"
         x="-164.07141"
         y="440.11707">UADY</tspan></text>
    <text
       xml:space="preserve"
       style="font-size:115px;font-style:normal;font-weight:normal;line-height:125%;letter-spacing:0px;word-spacing:0px;fill:#bf942b;fill-opacity:1;stroke:none;font-family:Sans"
       x="203.6821"
       y="594.40277"
       id="text3010"
       sodipodi:linespacing="125%"><tspan
         sodipodi:role="line"
         x="203.6821"
         y="594.40277"
         id="tspan3016"
         style="font-size:115px;font-family:Times New Roman;-inkscape-font-specification:Times New Roman;fill:#bf942b;fill-opacity:1">UNIVERSIDAD</tspan></text>
    <text
       xml:space="preserve"
       style="font-size:115px;font-style:normal;font-weight:normal;line-height:125%;letter-spacing:0px;word-spacing:0px;fill:#bf942b;fill-opacity:1;stroke:none;font-family:Times New Roman;-inkscape-font-specification:Times New Roman"
       x="315.88199"
       y="724.15625"
       id="text3022"
       sodipodi:linespacing="125%"><tspan
         sodipodi:role="line"
         x="315.88199"
         y="724.15625"
         id="tspan3026">AUTNOMA</tspan></text>
    <text
       xml:space="preserve"
       style="font-size:115px;font-style:normal;font-weight:normal;line-height:125%;letter-spacing:0px;word-spacing:0px;fill:#bf942b;fill-opacity:1;stroke:none;font-family:Times New Roman;-inkscape-font-specification:Times New Roman"
       x="242.31531"
       y="863.72119"
       id="text3030"
       sodipodi:linespacing="125%"><tspan
         sodipodi:role="line"
         id="tspan3032"
         x="242.31531"
         y="863.72119">DE YUCATN</tspan></text>
  </g>
</svg>
